G75*
G70*
%OFA0B0*%
%FSLAX24Y24*%
%IPPOS*%
%LPD*%
%AMOC8*
5,1,8,0,0,1.08239X$1,22.5*
%
%ADD10C,0.0060*%
%ADD11C,0.0050*%
%ADD12C,0.0080*%
%ADD13R,0.0079X0.0079*%
%ADD14C,0.0070*%
%ADD15C,0.0010*%
D10*
X002694Y002084D02*
X002694Y002424D01*
X002864Y002424D01*
X002921Y002368D01*
X002921Y002254D01*
X002864Y002198D01*
X002694Y002198D01*
X003062Y002198D02*
X003176Y002311D01*
X003233Y002311D01*
X003369Y002254D02*
X003369Y002141D01*
X003426Y002084D01*
X003540Y002084D01*
X003596Y002141D01*
X003596Y002254D01*
X003540Y002311D01*
X003426Y002311D01*
X003369Y002254D01*
X003062Y002311D02*
X003062Y002084D01*
X003738Y002084D02*
X003908Y002084D01*
X003965Y002141D01*
X003965Y002254D01*
X003908Y002311D01*
X003738Y002311D01*
X003738Y001971D01*
X004106Y002084D02*
X004219Y002084D01*
X004163Y002084D02*
X004163Y002311D01*
X004106Y002311D01*
X004163Y002424D02*
X004163Y002481D01*
X004352Y002311D02*
X004522Y002311D01*
X004578Y002254D01*
X004578Y002084D01*
X004720Y002141D02*
X004720Y002254D01*
X004777Y002311D01*
X004947Y002311D01*
X004947Y001971D01*
X004947Y002084D02*
X004777Y002084D01*
X004720Y002141D01*
X005088Y002141D02*
X005145Y002084D01*
X005315Y002084D01*
X005315Y002311D01*
X005457Y002311D02*
X005513Y002311D01*
X005513Y002084D01*
X005457Y002084D02*
X005570Y002084D01*
X005759Y002141D02*
X005759Y002368D01*
X005702Y002311D02*
X005816Y002311D01*
X005948Y002311D02*
X005948Y002141D01*
X006004Y002084D01*
X006174Y002084D01*
X006174Y002027D02*
X006118Y001971D01*
X006061Y001971D01*
X006174Y002027D02*
X006174Y002311D01*
X005816Y002084D02*
X005759Y002141D01*
X005513Y002424D02*
X005513Y002481D01*
X005088Y002311D02*
X005088Y002141D01*
X004352Y002084D02*
X004352Y002311D01*
X002272Y006968D02*
X001772Y006968D01*
X001522Y007218D01*
X001272Y006968D01*
X000772Y006968D01*
X000522Y007218D01*
X000522Y007718D01*
X000772Y007968D01*
X001272Y007968D01*
X001522Y007718D01*
X001772Y007968D01*
X002272Y007968D01*
X002522Y007718D01*
X002522Y007218D01*
X002272Y006968D01*
X001522Y007218D02*
X001522Y007718D01*
X008174Y008885D02*
X008314Y008745D01*
X010934Y008745D01*
X010934Y011505D01*
X008174Y011505D01*
X008174Y008885D01*
X008333Y009045D02*
X008335Y009068D01*
X008341Y009091D01*
X008350Y009112D01*
X008363Y009132D01*
X008379Y009149D01*
X008397Y009163D01*
X008417Y009174D01*
X008439Y009182D01*
X008462Y009186D01*
X008486Y009186D01*
X008509Y009182D01*
X008531Y009174D01*
X008551Y009163D01*
X008569Y009149D01*
X008585Y009132D01*
X008598Y009112D01*
X008607Y009091D01*
X008613Y009068D01*
X008615Y009045D01*
X008613Y009022D01*
X008607Y008999D01*
X008598Y008978D01*
X008585Y008958D01*
X008569Y008941D01*
X008551Y008927D01*
X008531Y008916D01*
X008509Y008908D01*
X008486Y008904D01*
X008462Y008904D01*
X008439Y008908D01*
X008417Y008916D01*
X008397Y008927D01*
X008379Y008941D01*
X008363Y008958D01*
X008350Y008978D01*
X008341Y008999D01*
X008335Y009022D01*
X008333Y009045D01*
X011159Y013940D02*
X011196Y013940D01*
X011159Y013940D02*
X011159Y014578D01*
X011196Y014578D01*
X011514Y014578D02*
X011925Y014578D01*
X012242Y014578D02*
X012279Y014578D01*
X012279Y013940D01*
X012242Y013940D01*
X011925Y013940D02*
X011888Y013940D01*
X011551Y013940D02*
X011514Y013940D01*
X012355Y016861D02*
X012105Y017111D01*
X012105Y017611D01*
X012355Y017861D01*
X012105Y018111D01*
X012105Y018611D01*
X012355Y018861D01*
X012855Y018861D01*
X013105Y018611D01*
X013105Y018111D01*
X012855Y017861D01*
X013105Y017611D01*
X013105Y017111D01*
X012855Y016861D01*
X012355Y016861D01*
X012355Y017861D02*
X012855Y017861D01*
X010798Y017139D02*
X010548Y016889D01*
X010048Y016889D01*
X009798Y017139D01*
X009798Y018639D01*
X009548Y018889D01*
X009048Y018889D01*
X008798Y018639D01*
X008548Y018889D01*
X008048Y018889D01*
X007798Y018639D01*
X007798Y017139D01*
X008048Y016889D01*
X008548Y016889D01*
X008798Y017139D01*
X008798Y018639D01*
X009798Y018639D02*
X010048Y018889D01*
X010548Y018889D01*
X010798Y018639D01*
X010798Y017139D01*
X009798Y017139D02*
X009548Y016889D01*
X009048Y016889D01*
X008798Y017139D01*
X012537Y002424D02*
X012707Y002424D01*
X012764Y002368D01*
X012764Y002254D01*
X012707Y002198D01*
X012537Y002198D01*
X012537Y002084D02*
X012537Y002424D01*
X012962Y002311D02*
X013075Y002311D01*
X013132Y002254D01*
X013132Y002084D01*
X012962Y002084D01*
X012905Y002141D01*
X012962Y002198D01*
X013132Y002198D01*
X013273Y002311D02*
X013387Y002311D01*
X013330Y002368D02*
X013330Y002141D01*
X013387Y002084D01*
X013519Y002141D02*
X013519Y002254D01*
X013576Y002311D01*
X013746Y002311D01*
X013887Y002254D02*
X013944Y002311D01*
X014057Y002311D01*
X014114Y002254D01*
X014114Y002084D01*
X013887Y002084D02*
X013887Y002424D01*
X013746Y002084D02*
X013576Y002084D01*
X013519Y002141D01*
X014624Y002311D02*
X014737Y002084D01*
X014851Y002311D01*
X014992Y002311D02*
X015106Y002424D01*
X015106Y002084D01*
X015219Y002084D02*
X014992Y002084D01*
X015360Y002084D02*
X015417Y002084D01*
X015417Y002141D01*
X015360Y002141D01*
X015360Y002084D01*
X015545Y002141D02*
X015545Y002368D01*
X015601Y002424D01*
X015715Y002424D01*
X015771Y002368D01*
X015545Y002141D01*
X015601Y002084D01*
X015715Y002084D01*
X015771Y002141D01*
X015771Y002368D01*
D11*
X014967Y002448D02*
X011148Y002448D01*
X011148Y000125D01*
X007172Y000125D01*
X007172Y002448D01*
X011148Y002448D01*
X011173Y002552D02*
X011173Y002822D01*
X011058Y002777D02*
X011013Y002822D01*
X010923Y002822D01*
X010878Y002777D01*
X010878Y002732D01*
X010923Y002687D01*
X011013Y002687D01*
X011058Y002642D01*
X011058Y002597D01*
X011013Y002552D01*
X010923Y002552D01*
X010878Y002597D01*
X011173Y002687D02*
X011353Y002687D01*
X011467Y002687D02*
X011648Y002687D01*
X011648Y002732D02*
X011648Y002552D01*
X011762Y002552D02*
X011762Y002822D01*
X011897Y002822D01*
X011942Y002777D01*
X011942Y002687D01*
X011897Y002642D01*
X011762Y002642D01*
X011852Y002642D02*
X011942Y002552D01*
X012057Y002552D02*
X012057Y002822D01*
X012192Y002822D01*
X012237Y002777D01*
X012237Y002687D01*
X012192Y002642D01*
X012057Y002642D01*
X011648Y002732D02*
X011558Y002822D01*
X011467Y002732D01*
X011467Y002552D01*
X011353Y002552D02*
X011353Y002822D01*
X014967Y002448D02*
X014967Y003531D01*
X016444Y003531D01*
X014968Y005007D02*
X014970Y005084D01*
X014976Y005160D01*
X014986Y005236D01*
X015000Y005311D01*
X015017Y005386D01*
X015039Y005459D01*
X015064Y005532D01*
X015094Y005603D01*
X015126Y005672D01*
X015163Y005739D01*
X015202Y005805D01*
X015245Y005868D01*
X015292Y005929D01*
X015341Y005988D01*
X015394Y006044D01*
X015449Y006097D01*
X015507Y006147D01*
X015567Y006194D01*
X015630Y006238D01*
X015695Y006279D01*
X015762Y006316D01*
X015831Y006350D01*
X015901Y006380D01*
X015973Y006406D01*
X016047Y006428D01*
X016121Y006447D01*
X016196Y006462D01*
X016272Y006473D01*
X016348Y006480D01*
X016425Y006483D01*
X016501Y006482D01*
X016578Y006477D01*
X016654Y006468D01*
X016730Y006455D01*
X016804Y006438D01*
X016878Y006418D01*
X016951Y006393D01*
X017022Y006365D01*
X017092Y006333D01*
X017160Y006298D01*
X017226Y006259D01*
X017290Y006217D01*
X017351Y006171D01*
X017411Y006122D01*
X017467Y006071D01*
X017521Y006016D01*
X017572Y005959D01*
X017620Y005899D01*
X017665Y005837D01*
X017706Y005772D01*
X017744Y005706D01*
X017779Y005638D01*
X017809Y005567D01*
X017837Y005496D01*
X017860Y005423D01*
X017880Y005349D01*
X017896Y005274D01*
X017908Y005198D01*
X017916Y005122D01*
X017920Y005045D01*
X017920Y004969D01*
X017916Y004892D01*
X017908Y004816D01*
X017896Y004740D01*
X017880Y004665D01*
X017860Y004591D01*
X017837Y004518D01*
X017809Y004447D01*
X017779Y004376D01*
X017744Y004308D01*
X017706Y004242D01*
X017665Y004177D01*
X017620Y004115D01*
X017572Y004055D01*
X017521Y003998D01*
X017467Y003943D01*
X017411Y003892D01*
X017351Y003843D01*
X017290Y003797D01*
X017226Y003755D01*
X017160Y003716D01*
X017092Y003681D01*
X017022Y003649D01*
X016951Y003621D01*
X016878Y003596D01*
X016804Y003576D01*
X016730Y003559D01*
X016654Y003546D01*
X016578Y003537D01*
X016501Y003532D01*
X016425Y003531D01*
X016348Y003534D01*
X016272Y003541D01*
X016196Y003552D01*
X016121Y003567D01*
X016047Y003586D01*
X015973Y003608D01*
X015901Y003634D01*
X015831Y003664D01*
X015762Y003698D01*
X015695Y003735D01*
X015630Y003776D01*
X015567Y003820D01*
X015507Y003867D01*
X015449Y003917D01*
X015394Y003970D01*
X015341Y004026D01*
X015292Y004085D01*
X015245Y004146D01*
X015202Y004209D01*
X015163Y004275D01*
X015126Y004342D01*
X015094Y004411D01*
X015064Y004482D01*
X015039Y004555D01*
X015017Y004628D01*
X015000Y004703D01*
X014986Y004778D01*
X014976Y004854D01*
X014970Y004930D01*
X014968Y005007D01*
X014967Y003531D02*
X014967Y006483D01*
X016444Y006483D01*
X016287Y007695D02*
X016017Y007695D01*
X016017Y007830D01*
X016062Y007875D01*
X016152Y007875D01*
X016197Y007830D01*
X016197Y007695D01*
X016197Y007785D02*
X016287Y007875D01*
X016242Y007990D02*
X016287Y008035D01*
X016287Y008125D01*
X016242Y008170D01*
X016062Y008170D01*
X016017Y008125D01*
X016017Y008035D01*
X016062Y007990D01*
X016107Y007990D01*
X016152Y008035D01*
X016152Y008170D01*
X015499Y007990D02*
X015454Y007990D01*
X015274Y008170D01*
X015229Y008170D01*
X015229Y007990D01*
X015274Y007875D02*
X015229Y007830D01*
X015229Y007695D01*
X015499Y007695D01*
X015409Y007695D02*
X015409Y007830D01*
X015364Y007875D01*
X015274Y007875D01*
X015409Y007785D02*
X015499Y007875D01*
X014967Y007566D02*
X003353Y007566D01*
X003353Y006483D01*
X001877Y006483D01*
X002641Y006911D02*
X002821Y006911D01*
X002911Y007001D01*
X002821Y007091D01*
X002641Y007091D01*
X002641Y007205D02*
X002641Y007295D01*
X002641Y007250D02*
X002911Y007250D01*
X002911Y007205D02*
X002911Y007295D01*
X002911Y007402D02*
X002911Y007537D01*
X002866Y007582D01*
X002821Y007582D01*
X002776Y007537D01*
X002776Y007402D01*
X002911Y007402D02*
X002641Y007402D01*
X002641Y007537D01*
X002686Y007582D01*
X002731Y007582D01*
X002776Y007537D01*
X002776Y007696D02*
X002776Y007786D01*
X002641Y007696D02*
X002911Y007696D01*
X002911Y007877D01*
X002641Y007877D02*
X002641Y007696D01*
X003353Y006483D02*
X003353Y003531D01*
X001877Y003531D01*
X000401Y005007D02*
X000403Y005084D01*
X000409Y005160D01*
X000419Y005236D01*
X000433Y005311D01*
X000450Y005386D01*
X000472Y005459D01*
X000497Y005532D01*
X000527Y005603D01*
X000559Y005672D01*
X000596Y005739D01*
X000635Y005805D01*
X000678Y005868D01*
X000725Y005929D01*
X000774Y005988D01*
X000827Y006044D01*
X000882Y006097D01*
X000940Y006147D01*
X001000Y006194D01*
X001063Y006238D01*
X001128Y006279D01*
X001195Y006316D01*
X001264Y006350D01*
X001334Y006380D01*
X001406Y006406D01*
X001480Y006428D01*
X001554Y006447D01*
X001629Y006462D01*
X001705Y006473D01*
X001781Y006480D01*
X001858Y006483D01*
X001934Y006482D01*
X002011Y006477D01*
X002087Y006468D01*
X002163Y006455D01*
X002237Y006438D01*
X002311Y006418D01*
X002384Y006393D01*
X002455Y006365D01*
X002525Y006333D01*
X002593Y006298D01*
X002659Y006259D01*
X002723Y006217D01*
X002784Y006171D01*
X002844Y006122D01*
X002900Y006071D01*
X002954Y006016D01*
X003005Y005959D01*
X003053Y005899D01*
X003098Y005837D01*
X003139Y005772D01*
X003177Y005706D01*
X003212Y005638D01*
X003242Y005567D01*
X003270Y005496D01*
X003293Y005423D01*
X003313Y005349D01*
X003329Y005274D01*
X003341Y005198D01*
X003349Y005122D01*
X003353Y005045D01*
X003353Y004969D01*
X003349Y004892D01*
X003341Y004816D01*
X003329Y004740D01*
X003313Y004665D01*
X003293Y004591D01*
X003270Y004518D01*
X003242Y004447D01*
X003212Y004376D01*
X003177Y004308D01*
X003139Y004242D01*
X003098Y004177D01*
X003053Y004115D01*
X003005Y004055D01*
X002954Y003998D01*
X002900Y003943D01*
X002844Y003892D01*
X002784Y003843D01*
X002723Y003797D01*
X002659Y003755D01*
X002593Y003716D01*
X002525Y003681D01*
X002455Y003649D01*
X002384Y003621D01*
X002311Y003596D01*
X002237Y003576D01*
X002163Y003559D01*
X002087Y003546D01*
X002011Y003537D01*
X001934Y003532D01*
X001858Y003531D01*
X001781Y003534D01*
X001705Y003541D01*
X001629Y003552D01*
X001554Y003567D01*
X001480Y003586D01*
X001406Y003608D01*
X001334Y003634D01*
X001264Y003664D01*
X001195Y003698D01*
X001128Y003735D01*
X001063Y003776D01*
X001000Y003820D01*
X000940Y003867D01*
X000882Y003917D01*
X000827Y003970D01*
X000774Y004026D01*
X000725Y004085D01*
X000678Y004146D01*
X000635Y004209D01*
X000596Y004275D01*
X000559Y004342D01*
X000527Y004411D01*
X000497Y004482D01*
X000472Y004555D01*
X000450Y004628D01*
X000433Y004703D01*
X000419Y004778D01*
X000409Y004854D01*
X000403Y004930D01*
X000401Y005007D01*
X003353Y003531D02*
X003353Y002448D01*
X007172Y002448D01*
X004469Y007863D02*
X004199Y007863D01*
X004199Y007998D01*
X004244Y008043D01*
X004334Y008043D01*
X004379Y007998D01*
X004379Y007863D01*
X004379Y007953D02*
X004469Y008043D01*
X004469Y008157D02*
X004469Y008337D01*
X004469Y008247D02*
X004199Y008247D01*
X004289Y008157D01*
X004278Y008160D02*
X004278Y016428D01*
X007231Y018987D01*
X010971Y018987D01*
X014121Y016428D01*
X014121Y008160D01*
X004278Y008160D01*
X004334Y008452D02*
X004199Y008452D01*
X004199Y008632D01*
X004289Y008587D02*
X004334Y008632D01*
X004424Y008632D01*
X004469Y008587D01*
X004469Y008497D01*
X004424Y008452D01*
X004334Y008452D02*
X004289Y008542D01*
X004289Y008587D01*
X003648Y009023D02*
X002074Y009023D01*
X001680Y009416D01*
X001680Y010991D01*
X003648Y010991D01*
X003648Y009023D01*
X003831Y009523D02*
X004101Y009523D01*
X004101Y009703D01*
X004101Y009817D02*
X004101Y009997D01*
X004101Y010112D02*
X004101Y010247D01*
X004056Y010292D01*
X003876Y010292D01*
X003831Y010247D01*
X003831Y010112D01*
X004101Y010112D01*
X003966Y009907D02*
X003966Y009817D01*
X003831Y009817D02*
X004101Y009817D01*
X003831Y009817D02*
X003831Y009997D01*
X003966Y010407D02*
X003966Y010542D01*
X004011Y010587D01*
X004056Y010587D01*
X004101Y010542D01*
X004101Y010452D01*
X004056Y010407D01*
X003966Y010407D01*
X003876Y010497D01*
X003831Y010587D01*
X003253Y011477D02*
X003253Y011747D01*
X003163Y011747D02*
X003343Y011747D01*
X003049Y011747D02*
X002868Y011747D01*
X002868Y011477D01*
X003049Y011477D01*
X002958Y011612D02*
X002868Y011612D01*
X002754Y011567D02*
X002754Y011522D01*
X002709Y011477D01*
X002619Y011477D01*
X002574Y011522D01*
X002619Y011612D02*
X002574Y011657D01*
X002574Y011702D01*
X002619Y011747D01*
X002709Y011747D01*
X002754Y011702D01*
X002709Y011612D02*
X002754Y011567D01*
X002709Y011612D02*
X002619Y011612D01*
X002459Y011747D02*
X002279Y011747D01*
X002279Y011477D01*
X002459Y011477D01*
X002369Y011612D02*
X002279Y011612D01*
X002165Y011612D02*
X002165Y011702D01*
X002120Y011747D01*
X001984Y011747D01*
X001984Y011477D01*
X001984Y011567D02*
X002120Y011567D01*
X002165Y011612D01*
X002075Y011567D02*
X002165Y011477D01*
X000775Y010900D02*
X000775Y010810D01*
X000730Y010765D01*
X000640Y010765D01*
X000640Y010900D01*
X000685Y010945D01*
X000730Y010945D01*
X000775Y010900D01*
X000640Y010765D02*
X000550Y010855D01*
X000505Y010945D01*
X000505Y010560D02*
X000775Y010560D01*
X000775Y010470D02*
X000775Y010650D01*
X000595Y010470D02*
X000505Y010560D01*
X000550Y010356D02*
X000640Y010356D01*
X000685Y010311D01*
X000685Y010176D01*
X000685Y010266D02*
X000775Y010356D01*
X000775Y010176D02*
X000505Y010176D01*
X000505Y010311D01*
X000550Y010356D01*
X000679Y009764D02*
X000679Y009584D01*
X000544Y009719D01*
X000814Y009719D01*
X000814Y009469D02*
X000814Y009289D01*
X000814Y009379D02*
X000544Y009379D01*
X000634Y009289D01*
X000589Y009175D02*
X000544Y009130D01*
X000544Y008994D01*
X000814Y008994D01*
X000724Y008994D02*
X000724Y009130D01*
X000679Y009175D01*
X000589Y009175D01*
X000724Y009085D02*
X000814Y009175D01*
X001550Y008852D02*
X001552Y008866D01*
X001558Y008880D01*
X001566Y008892D01*
X001578Y008900D01*
X001592Y008906D01*
X001606Y008908D01*
X001620Y008906D01*
X001634Y008900D01*
X001646Y008892D01*
X001654Y008880D01*
X001660Y008866D01*
X001662Y008852D01*
X001660Y008838D01*
X001654Y008824D01*
X001646Y008812D01*
X001634Y008804D01*
X001620Y008798D01*
X001606Y008796D01*
X001592Y008798D01*
X001578Y008804D01*
X001566Y008812D01*
X001558Y008824D01*
X001552Y008838D01*
X001550Y008852D01*
X001680Y009023D02*
X001680Y009416D01*
X001680Y009023D02*
X002074Y009023D01*
X001837Y010007D02*
X001839Y010064D01*
X001845Y010121D01*
X001855Y010177D01*
X001868Y010233D01*
X001886Y010287D01*
X001907Y010340D01*
X001932Y010391D01*
X001960Y010441D01*
X001992Y010488D01*
X002026Y010534D01*
X002064Y010576D01*
X002105Y010616D01*
X002148Y010654D01*
X002194Y010688D01*
X002242Y010718D01*
X002292Y010746D01*
X002344Y010770D01*
X002398Y010790D01*
X002452Y010806D01*
X002508Y010819D01*
X002564Y010828D01*
X002621Y010833D01*
X002678Y010834D01*
X002735Y010831D01*
X002792Y010824D01*
X002848Y010813D01*
X002903Y010799D01*
X002957Y010780D01*
X003010Y010758D01*
X003061Y010733D01*
X003110Y010703D01*
X003157Y010671D01*
X003202Y010635D01*
X003244Y010597D01*
X003283Y010555D01*
X003319Y010511D01*
X003353Y010465D01*
X003383Y010416D01*
X003409Y010366D01*
X003432Y010314D01*
X003451Y010260D01*
X003467Y010205D01*
X003479Y010149D01*
X003487Y010092D01*
X003491Y010036D01*
X003491Y009978D01*
X003487Y009922D01*
X003479Y009865D01*
X003467Y009809D01*
X003451Y009754D01*
X003432Y009700D01*
X003409Y009648D01*
X003383Y009598D01*
X003353Y009549D01*
X003319Y009503D01*
X003283Y009459D01*
X003244Y009417D01*
X003202Y009379D01*
X003157Y009343D01*
X003110Y009311D01*
X003061Y009281D01*
X003010Y009256D01*
X002957Y009234D01*
X002903Y009215D01*
X002848Y009201D01*
X002792Y009190D01*
X002735Y009183D01*
X002678Y009180D01*
X002621Y009181D01*
X002564Y009186D01*
X002508Y009195D01*
X002452Y009208D01*
X002398Y009224D01*
X002344Y009244D01*
X002292Y009268D01*
X002242Y009296D01*
X002194Y009326D01*
X002148Y009360D01*
X002105Y009398D01*
X002064Y009438D01*
X002026Y009480D01*
X001992Y009526D01*
X001960Y009573D01*
X001932Y009623D01*
X001907Y009674D01*
X001886Y009727D01*
X001868Y009781D01*
X001855Y009837D01*
X001845Y009893D01*
X001839Y009950D01*
X001837Y010007D01*
X005662Y010536D02*
X005707Y010491D01*
X005887Y010491D01*
X005932Y010536D01*
X005932Y010626D01*
X005887Y010671D01*
X005887Y010785D02*
X005932Y010830D01*
X005932Y010920D01*
X005887Y010965D01*
X005842Y010965D01*
X005797Y010920D01*
X005797Y010785D01*
X005887Y010785D01*
X005797Y010785D02*
X005707Y010875D01*
X005662Y010965D01*
X005707Y010671D02*
X005662Y010626D01*
X005662Y010536D01*
X005797Y009391D02*
X005797Y009210D01*
X005662Y009346D01*
X005932Y009346D01*
X005887Y009096D02*
X005932Y009051D01*
X005932Y008961D01*
X005887Y008916D01*
X005707Y008916D01*
X005662Y008961D01*
X005662Y009051D01*
X005707Y009096D01*
X007259Y009141D02*
X007304Y009096D01*
X007484Y009096D01*
X007529Y009141D01*
X007529Y009232D01*
X007484Y009277D01*
X007529Y009391D02*
X007349Y009571D01*
X007304Y009571D01*
X007259Y009526D01*
X007259Y009436D01*
X007304Y009391D01*
X007304Y009277D02*
X007259Y009232D01*
X007259Y009141D01*
X007259Y008990D02*
X007259Y008900D01*
X007259Y008945D02*
X007529Y008945D01*
X007529Y008900D02*
X007529Y008990D01*
X007529Y009391D02*
X007529Y009571D01*
X007198Y012101D02*
X007018Y012101D01*
X006973Y012146D01*
X006973Y012236D01*
X007018Y012281D01*
X007018Y012395D02*
X006973Y012440D01*
X006973Y012531D01*
X007018Y012576D01*
X007063Y012576D01*
X007108Y012531D01*
X007153Y012576D01*
X007198Y012576D01*
X007244Y012531D01*
X007244Y012440D01*
X007198Y012395D01*
X007198Y012281D02*
X007244Y012236D01*
X007244Y012146D01*
X007198Y012101D01*
X007108Y012486D02*
X007108Y012531D01*
X006264Y012695D02*
X006084Y012695D01*
X006264Y012875D01*
X006264Y012920D01*
X006219Y012966D01*
X006129Y012966D01*
X006084Y012920D01*
X005970Y012920D02*
X005970Y012830D01*
X005925Y012785D01*
X005790Y012785D01*
X005880Y012785D02*
X005970Y012695D01*
X005790Y012695D02*
X005790Y012966D01*
X005925Y012966D01*
X005970Y012920D01*
X005831Y013888D02*
X005651Y013888D01*
X005606Y013933D01*
X005606Y014023D01*
X005651Y014068D01*
X005831Y014068D01*
X005876Y014023D01*
X005876Y013933D01*
X005831Y013888D01*
X005786Y013978D02*
X005876Y014068D01*
X005876Y014183D02*
X005876Y014363D01*
X005876Y014273D02*
X005606Y014273D01*
X005696Y014183D01*
X006681Y015682D02*
X006681Y015953D01*
X006816Y015953D01*
X006861Y015908D01*
X006861Y015817D01*
X006816Y015772D01*
X006681Y015772D01*
X006771Y015772D02*
X006861Y015682D01*
X006975Y015817D02*
X007155Y015817D01*
X007110Y015682D02*
X007110Y015953D01*
X006975Y015817D01*
X006797Y017185D02*
X006616Y017185D01*
X006797Y017366D01*
X006797Y017411D01*
X006752Y017456D01*
X006661Y017456D01*
X006616Y017411D01*
X006502Y017411D02*
X006457Y017456D01*
X006322Y017456D01*
X006322Y017185D01*
X006457Y017185D01*
X006502Y017230D01*
X006502Y017411D01*
X006207Y017456D02*
X006027Y017456D01*
X006027Y017185D01*
X006207Y017185D01*
X006117Y017321D02*
X006027Y017321D01*
X005913Y017185D02*
X005732Y017185D01*
X005732Y017456D01*
X004922Y017329D02*
X004742Y017329D01*
X004832Y017329D02*
X004832Y017599D01*
X004742Y017509D01*
X004627Y017464D02*
X004582Y017419D01*
X004447Y017419D01*
X004447Y017329D02*
X004447Y017599D01*
X004582Y017599D01*
X004627Y017554D01*
X004627Y017464D01*
X004537Y017419D02*
X004627Y017329D01*
X003666Y017225D02*
X003668Y017239D01*
X003674Y017253D01*
X003682Y017265D01*
X003694Y017273D01*
X003708Y017279D01*
X003722Y017281D01*
X003736Y017279D01*
X003750Y017273D01*
X003762Y017265D01*
X003770Y017253D01*
X003776Y017239D01*
X003778Y017225D01*
X003776Y017211D01*
X003770Y017197D01*
X003762Y017185D01*
X003750Y017177D01*
X003736Y017171D01*
X003722Y017169D01*
X003708Y017171D01*
X003694Y017177D01*
X003682Y017185D01*
X003674Y017197D01*
X003668Y017211D01*
X003666Y017225D01*
X003648Y017054D02*
X003648Y016660D01*
X003255Y017054D01*
X003648Y017054D01*
X003255Y017054D02*
X001680Y017054D01*
X001680Y015086D01*
X003648Y015086D01*
X003648Y016660D01*
X003752Y015705D02*
X003752Y015525D01*
X003887Y015525D01*
X003842Y015615D01*
X003842Y015660D01*
X003887Y015705D01*
X003977Y015705D01*
X004022Y015660D01*
X004022Y015570D01*
X003977Y015525D01*
X003977Y015410D02*
X003797Y015410D01*
X003752Y015365D01*
X003752Y015230D01*
X004022Y015230D01*
X004022Y015365D01*
X003977Y015410D01*
X004022Y015115D02*
X004022Y014935D01*
X003752Y014935D01*
X003752Y015115D01*
X003887Y015025D02*
X003887Y014935D01*
X004022Y014821D02*
X004022Y014641D01*
X003752Y014641D01*
X001837Y016070D02*
X001839Y016127D01*
X001845Y016184D01*
X001855Y016240D01*
X001868Y016296D01*
X001886Y016350D01*
X001907Y016403D01*
X001932Y016454D01*
X001960Y016504D01*
X001992Y016551D01*
X002026Y016597D01*
X002064Y016639D01*
X002105Y016679D01*
X002148Y016717D01*
X002194Y016751D01*
X002242Y016781D01*
X002292Y016809D01*
X002344Y016833D01*
X002398Y016853D01*
X002452Y016869D01*
X002508Y016882D01*
X002564Y016891D01*
X002621Y016896D01*
X002678Y016897D01*
X002735Y016894D01*
X002792Y016887D01*
X002848Y016876D01*
X002903Y016862D01*
X002957Y016843D01*
X003010Y016821D01*
X003061Y016796D01*
X003110Y016766D01*
X003157Y016734D01*
X003202Y016698D01*
X003244Y016660D01*
X003283Y016618D01*
X003319Y016574D01*
X003353Y016528D01*
X003383Y016479D01*
X003409Y016429D01*
X003432Y016377D01*
X003451Y016323D01*
X003467Y016268D01*
X003479Y016212D01*
X003487Y016155D01*
X003491Y016099D01*
X003491Y016041D01*
X003487Y015985D01*
X003479Y015928D01*
X003467Y015872D01*
X003451Y015817D01*
X003432Y015763D01*
X003409Y015711D01*
X003383Y015661D01*
X003353Y015612D01*
X003319Y015566D01*
X003283Y015522D01*
X003244Y015480D01*
X003202Y015442D01*
X003157Y015406D01*
X003110Y015374D01*
X003061Y015344D01*
X003010Y015319D01*
X002957Y015297D01*
X002903Y015278D01*
X002848Y015264D01*
X002792Y015253D01*
X002735Y015246D01*
X002678Y015243D01*
X002621Y015244D01*
X002564Y015249D01*
X002508Y015258D01*
X002452Y015271D01*
X002398Y015287D01*
X002344Y015307D01*
X002292Y015331D01*
X002242Y015359D01*
X002194Y015389D01*
X002148Y015423D01*
X002105Y015461D01*
X002064Y015501D01*
X002026Y015543D01*
X001992Y015589D01*
X001960Y015636D01*
X001932Y015686D01*
X001907Y015737D01*
X001886Y015790D01*
X001868Y015844D01*
X001855Y015900D01*
X001845Y015956D01*
X001839Y016013D01*
X001837Y016070D01*
X000768Y015516D02*
X000768Y015426D01*
X000723Y015381D01*
X000768Y015266D02*
X000768Y015086D01*
X000768Y015176D02*
X000498Y015176D01*
X000588Y015086D01*
X000543Y014972D02*
X000633Y014972D01*
X000678Y014927D01*
X000678Y014792D01*
X000678Y014882D02*
X000768Y014972D01*
X000768Y014792D02*
X000498Y014792D01*
X000498Y014927D01*
X000543Y014972D01*
X000543Y015381D02*
X000498Y015426D01*
X000498Y015516D01*
X000543Y015561D01*
X000588Y015561D01*
X000633Y015516D01*
X000678Y015561D01*
X000723Y015561D01*
X000768Y015516D01*
X000633Y015516D02*
X000633Y015471D01*
X000646Y016278D02*
X000646Y016413D01*
X000601Y016458D01*
X000510Y016458D01*
X000465Y016413D01*
X000465Y016278D01*
X000736Y016278D01*
X000646Y016368D02*
X000736Y016458D01*
X000736Y016573D02*
X000736Y016753D01*
X000736Y016663D02*
X000465Y016663D01*
X000555Y016573D01*
X000555Y016867D02*
X000465Y016957D01*
X000736Y016957D01*
X000736Y016867D02*
X000736Y017047D01*
X003463Y018825D02*
X003463Y019095D01*
X003598Y019095D01*
X003643Y019050D01*
X003643Y018960D01*
X003598Y018915D01*
X003463Y018915D01*
X003553Y018915D02*
X003643Y018825D01*
X003757Y018825D02*
X003938Y018825D01*
X003848Y018825D02*
X003848Y019095D01*
X003757Y019005D01*
X004052Y019050D02*
X004052Y018870D01*
X004232Y019050D01*
X004232Y018870D01*
X004187Y018825D01*
X004097Y018825D01*
X004052Y018870D01*
X004052Y019050D02*
X004097Y019095D01*
X004187Y019095D01*
X004232Y019050D01*
X004945Y019149D02*
X004945Y018878D01*
X005125Y018878D01*
X005240Y018878D02*
X005420Y018878D01*
X005534Y018878D02*
X005669Y018878D01*
X005715Y018923D01*
X005715Y019104D01*
X005669Y019149D01*
X005534Y019149D01*
X005534Y018878D01*
X005829Y018878D02*
X006009Y018878D01*
X005919Y018878D02*
X005919Y019149D01*
X005829Y019059D01*
X005420Y019149D02*
X005240Y019149D01*
X005240Y018878D01*
X005240Y019013D02*
X005330Y019013D01*
X006691Y019095D02*
X006691Y018825D01*
X006691Y018915D02*
X006826Y018915D01*
X006871Y018960D01*
X006871Y019050D01*
X006826Y019095D01*
X006691Y019095D01*
X006781Y018915D02*
X006871Y018825D01*
X006986Y018825D02*
X007166Y018825D01*
X007076Y018825D02*
X007076Y019095D01*
X006986Y019005D01*
X007280Y019050D02*
X007325Y019095D01*
X007416Y019095D01*
X007461Y019050D01*
X007461Y019005D01*
X007280Y018825D01*
X007461Y018825D01*
X008955Y016614D02*
X009045Y016614D01*
X009000Y016614D02*
X009000Y016344D01*
X008955Y016344D02*
X009045Y016344D01*
X009152Y016389D02*
X009197Y016344D01*
X009287Y016344D01*
X009332Y016389D01*
X009446Y016389D02*
X009491Y016344D01*
X009581Y016344D01*
X009626Y016389D01*
X009626Y016434D01*
X009581Y016479D01*
X009491Y016479D01*
X009446Y016524D01*
X009446Y016569D01*
X009491Y016614D01*
X009581Y016614D01*
X009626Y016569D01*
X009741Y016614D02*
X009876Y016614D01*
X009921Y016569D01*
X009921Y016479D01*
X009876Y016434D01*
X009741Y016434D01*
X009741Y016344D02*
X009741Y016614D01*
X009332Y016569D02*
X009287Y016614D01*
X009197Y016614D01*
X009152Y016569D01*
X009152Y016389D01*
X010071Y015207D02*
X010026Y015162D01*
X010026Y015072D01*
X010071Y015027D01*
X010071Y014912D02*
X010026Y014867D01*
X010026Y014777D01*
X010071Y014732D01*
X010251Y014732D01*
X010296Y014777D01*
X010296Y014867D01*
X010251Y014912D01*
X010296Y015027D02*
X010116Y015207D01*
X010071Y015207D01*
X010296Y015207D02*
X010296Y015027D01*
X010994Y015034D02*
X011084Y015034D01*
X011039Y015034D02*
X011039Y015304D01*
X010994Y015304D02*
X011084Y015304D01*
X011191Y015259D02*
X011191Y015079D01*
X011236Y015034D01*
X011326Y015034D01*
X011371Y015079D01*
X011485Y015034D02*
X011666Y015034D01*
X011575Y015034D02*
X011575Y015304D01*
X011485Y015214D01*
X011371Y015259D02*
X011326Y015304D01*
X011236Y015304D01*
X011191Y015259D01*
X011656Y016453D02*
X011656Y016723D01*
X011791Y016723D01*
X011836Y016678D01*
X011836Y016588D01*
X011791Y016543D01*
X011656Y016543D01*
X011951Y016453D02*
X012041Y016543D01*
X012131Y016453D01*
X012131Y016723D01*
X012245Y016723D02*
X012245Y016453D01*
X012245Y016543D02*
X012380Y016543D01*
X012425Y016588D01*
X012425Y016678D01*
X012380Y016723D01*
X012245Y016723D01*
X012335Y016543D02*
X012425Y016453D01*
X012540Y016407D02*
X012720Y016407D01*
X012835Y016498D02*
X012880Y016453D01*
X012970Y016453D01*
X013015Y016498D01*
X013015Y016543D01*
X012970Y016588D01*
X012880Y016588D01*
X012835Y016633D01*
X012835Y016678D01*
X012880Y016723D01*
X012970Y016723D01*
X013015Y016678D01*
X013129Y016723D02*
X013129Y016453D01*
X013219Y016543D01*
X013309Y016453D01*
X013309Y016723D01*
X014219Y016445D02*
X014264Y016490D01*
X014309Y016490D01*
X014354Y016445D01*
X014399Y016490D01*
X014445Y016490D01*
X014490Y016445D01*
X014490Y016355D01*
X014445Y016310D01*
X014445Y016195D02*
X014264Y016195D01*
X014219Y016150D01*
X014219Y016015D01*
X014490Y016015D01*
X014490Y016150D01*
X014445Y016195D01*
X014264Y016310D02*
X014219Y016355D01*
X014219Y016445D01*
X014354Y016445D02*
X014354Y016400D01*
X014219Y015900D02*
X014219Y015720D01*
X014490Y015720D01*
X014490Y015900D01*
X014354Y015810D02*
X014354Y015720D01*
X014490Y015606D02*
X014490Y015426D01*
X014219Y015426D01*
X014672Y015086D02*
X016641Y015086D01*
X016641Y016660D01*
X016247Y017054D01*
X016641Y017054D01*
X016641Y016660D01*
X016798Y016379D02*
X016843Y016379D01*
X016888Y016334D01*
X016933Y016379D01*
X016978Y016379D01*
X017023Y016334D01*
X017023Y016244D01*
X016978Y016199D01*
X017023Y016084D02*
X016933Y015994D01*
X016933Y016039D02*
X016933Y015904D01*
X017023Y015904D02*
X016753Y015904D01*
X016753Y016039D01*
X016798Y016084D01*
X016888Y016084D01*
X016933Y016039D01*
X016798Y016199D02*
X016753Y016244D01*
X016753Y016334D01*
X016798Y016379D01*
X016888Y016334D02*
X016888Y016289D01*
X016247Y017054D02*
X014672Y017054D01*
X014672Y015086D01*
X014869Y014653D02*
X016444Y014653D01*
X015853Y014318D02*
X014869Y014318D01*
X014869Y014653D01*
X015853Y014318D02*
X015853Y013767D01*
X016709Y013634D02*
X016709Y013454D01*
X016709Y013544D02*
X016979Y013544D01*
X016979Y013249D02*
X016709Y013249D01*
X016709Y013159D02*
X016709Y013339D01*
X016799Y013045D02*
X016709Y012955D01*
X016799Y012864D01*
X016979Y012864D01*
X016934Y012750D02*
X016979Y012705D01*
X016979Y012570D01*
X016709Y012570D01*
X016709Y012705D01*
X016754Y012750D01*
X016799Y012750D01*
X016844Y012705D01*
X016844Y012570D01*
X016844Y012705D02*
X016889Y012750D01*
X016934Y012750D01*
X016844Y012864D02*
X016844Y013045D01*
X016799Y013045D02*
X016979Y013045D01*
X017822Y012192D02*
X017822Y013964D01*
X015853Y012389D02*
X015853Y011838D01*
X014869Y011838D01*
X014869Y011503D01*
X016444Y011503D01*
X016641Y010991D02*
X014672Y010991D01*
X014672Y009416D01*
X015066Y009023D01*
X014672Y009023D01*
X014672Y009416D01*
X014529Y009441D02*
X014529Y009621D01*
X014529Y009736D02*
X014259Y009736D01*
X014259Y009916D01*
X014259Y010031D02*
X014259Y010166D01*
X014304Y010211D01*
X014484Y010211D01*
X014529Y010166D01*
X014529Y010031D01*
X014259Y010031D01*
X014394Y009826D02*
X014394Y009736D01*
X014529Y009736D02*
X014529Y009916D01*
X014394Y010325D02*
X014259Y010460D01*
X014529Y010460D01*
X014394Y010505D02*
X014394Y010325D01*
X014259Y009441D02*
X014529Y009441D01*
X014542Y008852D02*
X014544Y008866D01*
X014550Y008880D01*
X014558Y008892D01*
X014570Y008900D01*
X014584Y008906D01*
X014598Y008908D01*
X014612Y008906D01*
X014626Y008900D01*
X014638Y008892D01*
X014646Y008880D01*
X014652Y008866D01*
X014654Y008852D01*
X014652Y008838D01*
X014646Y008824D01*
X014638Y008812D01*
X014626Y008804D01*
X014612Y008798D01*
X014598Y008796D01*
X014584Y008798D01*
X014570Y008804D01*
X014558Y008812D01*
X014550Y008824D01*
X014544Y008838D01*
X014542Y008852D01*
X015066Y009023D02*
X016641Y009023D01*
X016641Y010991D01*
X014829Y010007D02*
X014831Y010064D01*
X014837Y010121D01*
X014847Y010177D01*
X014860Y010233D01*
X014878Y010287D01*
X014899Y010340D01*
X014924Y010391D01*
X014952Y010441D01*
X014984Y010488D01*
X015018Y010534D01*
X015056Y010576D01*
X015097Y010616D01*
X015140Y010654D01*
X015186Y010688D01*
X015234Y010718D01*
X015284Y010746D01*
X015336Y010770D01*
X015390Y010790D01*
X015444Y010806D01*
X015500Y010819D01*
X015556Y010828D01*
X015613Y010833D01*
X015670Y010834D01*
X015727Y010831D01*
X015784Y010824D01*
X015840Y010813D01*
X015895Y010799D01*
X015949Y010780D01*
X016002Y010758D01*
X016053Y010733D01*
X016102Y010703D01*
X016149Y010671D01*
X016194Y010635D01*
X016236Y010597D01*
X016275Y010555D01*
X016311Y010511D01*
X016345Y010465D01*
X016375Y010416D01*
X016401Y010366D01*
X016424Y010314D01*
X016443Y010260D01*
X016459Y010205D01*
X016471Y010149D01*
X016479Y010092D01*
X016483Y010036D01*
X016483Y009978D01*
X016479Y009922D01*
X016471Y009865D01*
X016459Y009809D01*
X016443Y009754D01*
X016424Y009700D01*
X016401Y009648D01*
X016375Y009598D01*
X016345Y009549D01*
X016311Y009503D01*
X016275Y009459D01*
X016236Y009417D01*
X016194Y009379D01*
X016149Y009343D01*
X016102Y009311D01*
X016053Y009281D01*
X016002Y009256D01*
X015949Y009234D01*
X015895Y009215D01*
X015840Y009201D01*
X015784Y009190D01*
X015727Y009183D01*
X015670Y009180D01*
X015613Y009181D01*
X015556Y009186D01*
X015500Y009195D01*
X015444Y009208D01*
X015390Y009224D01*
X015336Y009244D01*
X015284Y009268D01*
X015234Y009296D01*
X015186Y009326D01*
X015140Y009360D01*
X015097Y009398D01*
X015056Y009438D01*
X015018Y009480D01*
X014984Y009526D01*
X014952Y009573D01*
X014924Y009623D01*
X014899Y009674D01*
X014878Y009727D01*
X014860Y009781D01*
X014847Y009837D01*
X014837Y009893D01*
X014831Y009950D01*
X014829Y010007D01*
X013012Y011824D02*
X013012Y011914D01*
X012967Y011959D01*
X012967Y012074D02*
X013012Y012119D01*
X013012Y012209D01*
X012967Y012254D01*
X012877Y012254D01*
X012832Y012209D01*
X012832Y012164D01*
X012877Y012074D01*
X012742Y012074D01*
X012742Y012254D01*
X012787Y011959D02*
X012742Y011914D01*
X012742Y011824D01*
X012787Y011779D01*
X012967Y011779D01*
X013012Y011824D01*
X010296Y013202D02*
X010296Y013292D01*
X010251Y013337D01*
X010296Y013452D02*
X010296Y013632D01*
X010296Y013542D02*
X010026Y013542D01*
X010116Y013452D01*
X010071Y013337D02*
X010026Y013292D01*
X010026Y013202D01*
X010071Y013157D01*
X010251Y013157D01*
X010296Y013202D01*
X011951Y016453D02*
X011951Y016723D01*
X013699Y018786D02*
X013699Y019056D01*
X013834Y019056D01*
X013879Y019011D01*
X013879Y018921D01*
X013834Y018876D01*
X013699Y018876D01*
X013789Y018876D02*
X013879Y018786D01*
X013994Y018831D02*
X014039Y018786D01*
X014129Y018786D01*
X014174Y018831D01*
X014174Y018921D01*
X014129Y018966D01*
X014084Y018966D01*
X013994Y018921D01*
X013994Y019056D01*
X014174Y019056D01*
X014486Y019056D02*
X014486Y018786D01*
X014486Y018876D02*
X014622Y018876D01*
X014667Y018921D01*
X014667Y019011D01*
X014622Y019056D01*
X014486Y019056D01*
X014576Y018876D02*
X014667Y018786D01*
X014781Y018831D02*
X014826Y018786D01*
X014916Y018786D01*
X014961Y018831D01*
X014961Y018876D01*
X014916Y018921D01*
X014781Y018921D01*
X014781Y018831D01*
X014781Y018921D02*
X014871Y019011D01*
X014961Y019056D01*
X016659Y017225D02*
X016661Y017239D01*
X016667Y017253D01*
X016675Y017265D01*
X016687Y017273D01*
X016701Y017279D01*
X016715Y017281D01*
X016729Y017279D01*
X016743Y017273D01*
X016755Y017265D01*
X016763Y017253D01*
X016769Y017239D01*
X016771Y017225D01*
X016769Y017211D01*
X016763Y017197D01*
X016755Y017185D01*
X016743Y017177D01*
X016729Y017171D01*
X016715Y017169D01*
X016701Y017171D01*
X016687Y017177D01*
X016675Y017185D01*
X016667Y017197D01*
X016661Y017211D01*
X016659Y017225D01*
X014829Y016070D02*
X014831Y016127D01*
X014837Y016184D01*
X014847Y016240D01*
X014860Y016296D01*
X014878Y016350D01*
X014899Y016403D01*
X014924Y016454D01*
X014952Y016504D01*
X014984Y016551D01*
X015018Y016597D01*
X015056Y016639D01*
X015097Y016679D01*
X015140Y016717D01*
X015186Y016751D01*
X015234Y016781D01*
X015284Y016809D01*
X015336Y016833D01*
X015390Y016853D01*
X015444Y016869D01*
X015500Y016882D01*
X015556Y016891D01*
X015613Y016896D01*
X015670Y016897D01*
X015727Y016894D01*
X015784Y016887D01*
X015840Y016876D01*
X015895Y016862D01*
X015949Y016843D01*
X016002Y016821D01*
X016053Y016796D01*
X016102Y016766D01*
X016149Y016734D01*
X016194Y016698D01*
X016236Y016660D01*
X016275Y016618D01*
X016311Y016574D01*
X016345Y016528D01*
X016375Y016479D01*
X016401Y016429D01*
X016424Y016377D01*
X016443Y016323D01*
X016459Y016268D01*
X016471Y016212D01*
X016479Y016155D01*
X016483Y016099D01*
X016483Y016041D01*
X016479Y015985D01*
X016471Y015928D01*
X016459Y015872D01*
X016443Y015817D01*
X016424Y015763D01*
X016401Y015711D01*
X016375Y015661D01*
X016345Y015612D01*
X016311Y015566D01*
X016275Y015522D01*
X016236Y015480D01*
X016194Y015442D01*
X016149Y015406D01*
X016102Y015374D01*
X016053Y015344D01*
X016002Y015319D01*
X015949Y015297D01*
X015895Y015278D01*
X015840Y015264D01*
X015784Y015253D01*
X015727Y015246D01*
X015670Y015243D01*
X015613Y015244D01*
X015556Y015249D01*
X015500Y015258D01*
X015444Y015271D01*
X015390Y015287D01*
X015336Y015307D01*
X015284Y015331D01*
X015234Y015359D01*
X015186Y015389D01*
X015140Y015423D01*
X015097Y015461D01*
X015056Y015501D01*
X015018Y015543D01*
X014984Y015589D01*
X014952Y015636D01*
X014924Y015686D01*
X014899Y015737D01*
X014878Y015790D01*
X014860Y015844D01*
X014847Y015900D01*
X014837Y015956D01*
X014831Y016013D01*
X014829Y016070D01*
X016849Y008170D02*
X016894Y008170D01*
X016939Y008125D01*
X016939Y008035D01*
X016894Y007990D01*
X016849Y007990D01*
X016804Y008035D01*
X016804Y008125D01*
X016849Y008170D01*
X016939Y008125D02*
X016984Y008170D01*
X017029Y008170D01*
X017074Y008125D01*
X017074Y008035D01*
X017029Y007990D01*
X016984Y007990D01*
X016939Y008035D01*
X016939Y007875D02*
X016984Y007830D01*
X016984Y007695D01*
X017074Y007695D02*
X016804Y007695D01*
X016804Y007830D01*
X016849Y007875D01*
X016939Y007875D01*
X016984Y007785D02*
X017074Y007875D01*
X014967Y007566D02*
X014967Y006483D01*
D12*
X007798Y013727D02*
X005987Y013727D01*
X005987Y014751D01*
X007798Y014751D01*
X007798Y013727D01*
X004239Y013590D02*
X003609Y013590D01*
X003609Y013589D02*
X003593Y013584D01*
X003577Y013576D01*
X003563Y013566D01*
X003551Y013554D01*
X003541Y013539D01*
X003534Y013523D01*
X003530Y013506D01*
X003529Y013489D01*
X003531Y013471D01*
X003293Y013573D02*
X003293Y012780D01*
X003609Y012802D02*
X004239Y012802D01*
X004239Y012803D02*
X004255Y012808D01*
X004271Y012816D01*
X004285Y012826D01*
X004297Y012838D01*
X004307Y012853D01*
X004314Y012869D01*
X004318Y012886D01*
X004319Y012903D01*
X004317Y012921D01*
X004317Y013471D02*
X004319Y013489D01*
X004318Y013506D01*
X004314Y013523D01*
X004307Y013539D01*
X004297Y013554D01*
X004285Y013566D01*
X004271Y013576D01*
X004255Y013584D01*
X004239Y013589D01*
X003531Y012921D02*
X003529Y012903D01*
X003530Y012886D01*
X003534Y012869D01*
X003541Y012853D01*
X003551Y012838D01*
X003563Y012826D01*
X003577Y012816D01*
X003593Y012808D01*
X003609Y012803D01*
X002943Y011980D02*
X001243Y011980D01*
X000893Y012780D02*
X000893Y013585D01*
X001243Y014380D02*
X002943Y014380D01*
X001393Y013180D02*
X001395Y013232D01*
X001401Y013284D01*
X001411Y013336D01*
X001424Y013386D01*
X001441Y013436D01*
X001462Y013484D01*
X001487Y013530D01*
X001515Y013574D01*
X001546Y013616D01*
X001580Y013656D01*
X001617Y013693D01*
X001657Y013727D01*
X001699Y013758D01*
X001743Y013786D01*
X001789Y013811D01*
X001837Y013832D01*
X001887Y013849D01*
X001937Y013862D01*
X001989Y013872D01*
X002041Y013878D01*
X002093Y013880D01*
X002145Y013878D01*
X002197Y013872D01*
X002249Y013862D01*
X002299Y013849D01*
X002349Y013832D01*
X002397Y013811D01*
X002443Y013786D01*
X002487Y013758D01*
X002529Y013727D01*
X002569Y013693D01*
X002606Y013656D01*
X002640Y013616D01*
X002671Y013574D01*
X002699Y013530D01*
X002724Y013484D01*
X002745Y013436D01*
X002762Y013386D01*
X002775Y013336D01*
X002785Y013284D01*
X002791Y013232D01*
X002793Y013180D01*
X002791Y013128D01*
X002785Y013076D01*
X002775Y013024D01*
X002762Y012974D01*
X002745Y012924D01*
X002724Y012876D01*
X002699Y012830D01*
X002671Y012786D01*
X002640Y012744D01*
X002606Y012704D01*
X002569Y012667D01*
X002529Y012633D01*
X002487Y012602D01*
X002443Y012574D01*
X002397Y012549D01*
X002349Y012528D01*
X002299Y012511D01*
X002249Y012498D01*
X002197Y012488D01*
X002145Y012482D01*
X002093Y012480D01*
X002041Y012482D01*
X001989Y012488D01*
X001937Y012498D01*
X001887Y012511D01*
X001837Y012528D01*
X001789Y012549D01*
X001743Y012574D01*
X001699Y012602D01*
X001657Y012633D01*
X001617Y012667D01*
X001580Y012704D01*
X001546Y012744D01*
X001515Y012786D01*
X001487Y012830D01*
X001462Y012876D01*
X001441Y012924D01*
X001424Y012974D01*
X001411Y013024D01*
X001401Y013076D01*
X001395Y013128D01*
X001393Y013180D01*
D13*
X005420Y018156D03*
X006207Y018156D03*
D14*
X014520Y014274D02*
X014520Y013947D01*
X014520Y012024D02*
X014520Y011697D01*
X014357Y011861D02*
X014684Y011861D01*
D15*
X004239Y012541D02*
X004139Y012541D01*
X004239Y012641D01*
X004239Y012666D01*
X004214Y012691D01*
X004164Y012691D01*
X004139Y012666D01*
X004092Y012691D02*
X004042Y012691D01*
X004067Y012691D02*
X004067Y012566D01*
X004042Y012541D01*
X004017Y012541D01*
X003992Y012566D01*
X003945Y012566D02*
X003920Y012541D01*
X003870Y012541D01*
X003845Y012566D01*
X003870Y012616D02*
X003845Y012641D01*
X003845Y012666D01*
X003870Y012691D01*
X003920Y012691D01*
X003945Y012666D01*
X003920Y012616D02*
X003945Y012591D01*
X003945Y012566D01*
X003920Y012616D02*
X003870Y012616D01*
M02*
