G75*
G70*
%OFA0B0*%
%FSLAX24Y24*%
%IPPOS*%
%LPD*%
%AMOC8*
5,1,8,0,0,1.08239X$1,22.5*
%
%ADD10C,0.0560*%
%ADD11R,0.0560X0.0560*%
%ADD12OC8,0.0640*%
%ADD13C,0.0740*%
%ADD14C,0.0640*%
%ADD15R,0.0394X0.1181*%
%ADD16R,0.0250X0.0500*%
%ADD17OC8,0.0436*%
%ADD18C,0.0160*%
D10*
X004869Y008751D03*
X004869Y009538D03*
X004869Y010326D03*
X004869Y011113D03*
X004869Y011901D03*
X004869Y012688D03*
X004869Y013475D03*
X004869Y014263D03*
X004869Y015050D03*
X013530Y015050D03*
X013530Y014263D03*
X013530Y013475D03*
X013530Y012688D03*
X013530Y011901D03*
X013530Y011113D03*
X013530Y010326D03*
X013530Y009538D03*
X013530Y008751D03*
X013530Y015838D03*
D11*
X004869Y015838D03*
D12*
X008298Y017389D03*
X008298Y018389D03*
X009298Y018389D03*
X010298Y018389D03*
X010298Y017389D03*
X009298Y017389D03*
X009160Y002448D03*
X008160Y002448D03*
X010160Y002448D03*
D13*
X003373Y012290D03*
X003373Y014070D03*
X000813Y014070D03*
X000813Y012290D03*
D14*
X001022Y007788D02*
X001022Y007148D01*
X002022Y007148D02*
X002022Y007788D01*
X012285Y017361D02*
X012925Y017361D01*
X012925Y018361D02*
X012285Y018361D01*
D15*
X012652Y005873D03*
X011652Y005873D03*
X010652Y005873D03*
X009652Y005873D03*
X013652Y005873D03*
X014652Y005873D03*
D16*
X012684Y016227D03*
X012330Y016227D03*
D17*
X011719Y017881D03*
X010774Y016818D03*
X008570Y014653D03*
X007743Y014771D03*
X008176Y013865D03*
X008648Y012566D03*
X009869Y012527D03*
X010794Y013609D03*
X011995Y012802D03*
X012507Y013235D03*
X011837Y011739D03*
X011168Y011739D03*
X010381Y011070D03*
X009790Y010637D03*
X010263Y010046D03*
X010381Y009377D03*
X011326Y008511D03*
X011719Y007566D03*
X013294Y007802D03*
X013806Y007369D03*
X015302Y006897D03*
X016601Y006857D03*
X012625Y011109D03*
X012152Y010834D03*
X009003Y011031D03*
X009003Y009771D03*
X008767Y009259D03*
X007940Y008511D03*
X007389Y008511D03*
X006995Y009534D03*
X006995Y010322D03*
X006995Y011109D03*
X006877Y012920D03*
X005617Y015716D03*
X005184Y016621D03*
X005617Y017094D03*
X006995Y017133D03*
X007861Y016031D03*
X004121Y015086D03*
X002152Y014495D03*
X002310Y012094D03*
X001621Y011759D03*
X002428Y008393D03*
X003963Y006700D03*
X004141Y007468D03*
X005263Y005440D03*
X006207Y005991D03*
X006995Y004416D03*
X007585Y004023D03*
X009081Y005558D03*
X011641Y004928D03*
X004475Y004219D03*
X014475Y016227D03*
X014042Y016700D03*
X015381Y018393D03*
X003176Y018511D03*
X002900Y017723D03*
D18*
X000480Y011852D02*
X000480Y001839D01*
X017840Y001839D01*
X017840Y019199D01*
X010885Y019199D01*
X011427Y018657D01*
X011466Y018562D01*
X011466Y018188D01*
X011555Y018277D01*
X011787Y018277D01*
X011787Y018460D01*
X011863Y018644D01*
X012003Y018784D01*
X012186Y018860D01*
X013024Y018860D01*
X013207Y018784D01*
X013348Y018644D01*
X013424Y018460D01*
X013424Y018274D01*
X014189Y017509D01*
X014261Y017437D01*
X014301Y017342D01*
X014301Y017002D01*
X014439Y016864D01*
X014439Y016624D01*
X014639Y016624D01*
X014872Y016392D01*
X014872Y016063D01*
X014734Y015925D01*
X014734Y007987D01*
X014694Y007892D01*
X014202Y007400D01*
X014202Y007205D01*
X014035Y007037D01*
X014172Y007037D01*
X014267Y006998D01*
X014623Y006642D01*
X014923Y006642D01*
X015028Y006537D01*
X015028Y005374D01*
X015044Y005390D01*
X015044Y005609D01*
X015083Y005704D01*
X016205Y006826D01*
X016205Y007022D01*
X016437Y007254D01*
X016765Y007254D01*
X016998Y007022D01*
X016998Y006693D01*
X016765Y006461D01*
X016570Y006461D01*
X015560Y005451D01*
X015560Y005231D01*
X015521Y005136D01*
X015448Y005063D01*
X015133Y004748D01*
X015038Y004709D01*
X014307Y004709D01*
X012894Y003297D01*
X016179Y003297D01*
X017012Y004130D01*
X017012Y004432D01*
X016902Y004322D01*
X016604Y004199D01*
X016283Y004199D01*
X015986Y004322D01*
X015758Y004549D01*
X015635Y004846D01*
X015635Y005168D01*
X015758Y005465D01*
X015986Y005692D01*
X016283Y005815D01*
X016604Y005815D01*
X016902Y005692D01*
X017012Y005582D01*
X017012Y007701D01*
X016472Y007701D01*
X015699Y006928D01*
X015699Y006732D01*
X015466Y006500D01*
X015138Y006500D01*
X014905Y006732D01*
X014905Y007061D01*
X015138Y007293D01*
X015333Y007293D01*
X016146Y008106D01*
X016219Y008179D01*
X016314Y008218D01*
X017012Y008218D01*
X017012Y014112D01*
X015234Y015890D01*
X015162Y015963D01*
X015122Y016058D01*
X015122Y018090D01*
X014984Y018228D01*
X014984Y018557D01*
X015216Y018789D01*
X015545Y018789D01*
X015777Y018557D01*
X015777Y018228D01*
X015639Y018090D01*
X015639Y016216D01*
X017417Y014439D01*
X017490Y014366D01*
X017529Y014271D01*
X017529Y003971D01*
X017490Y003876D01*
X017027Y003414D01*
X017187Y003414D01*
X017470Y003297D01*
X017686Y003080D01*
X017803Y002798D01*
X017803Y002492D01*
X017686Y002209D01*
X017470Y001993D01*
X017187Y001876D01*
X016881Y001876D01*
X016599Y001993D01*
X016382Y002209D01*
X016265Y002492D01*
X016265Y002780D01*
X010533Y002780D01*
X010659Y002654D01*
X010659Y002241D01*
X010367Y001949D01*
X009954Y001949D01*
X009662Y002241D01*
X009662Y002654D01*
X009787Y002780D01*
X009535Y002780D01*
X009660Y002655D01*
X009660Y002468D01*
X009180Y002468D01*
X009180Y002428D01*
X009180Y001948D01*
X009367Y001948D01*
X009660Y002241D01*
X009660Y002428D01*
X009180Y002428D01*
X009140Y002428D01*
X008660Y002428D01*
X008660Y002241D01*
X008953Y001948D01*
X009140Y001948D01*
X009140Y002428D01*
X009140Y002468D01*
X008660Y002468D01*
X008660Y002655D01*
X008785Y002780D01*
X008533Y002780D01*
X008659Y002654D01*
X008659Y002241D01*
X008367Y001949D01*
X007954Y001949D01*
X007662Y002241D01*
X007662Y002654D01*
X007787Y002780D01*
X004660Y002780D01*
X004565Y002819D01*
X003345Y004040D01*
X003272Y004112D01*
X003233Y004207D01*
X003233Y005372D01*
X002439Y006166D01*
X001983Y006166D01*
X001888Y006205D01*
X001376Y006717D01*
X001336Y006757D01*
X001305Y006725D01*
X001122Y006649D01*
X000923Y006649D01*
X000740Y006725D01*
X000600Y006865D01*
X000524Y007048D01*
X000524Y007887D01*
X000600Y008070D01*
X000740Y008210D01*
X000923Y008286D01*
X001122Y008286D01*
X001264Y008227D01*
X001264Y011555D01*
X001224Y011595D01*
X001224Y011923D01*
X001457Y012155D01*
X001785Y012155D01*
X001913Y012027D01*
X001913Y012258D01*
X002146Y012490D01*
X002474Y012490D01*
X002706Y012258D01*
X002706Y011929D01*
X002568Y011791D01*
X002568Y008789D01*
X002592Y008789D01*
X002824Y008557D01*
X002824Y008362D01*
X003204Y007982D01*
X003277Y007909D01*
X003316Y007814D01*
X003316Y007004D01*
X003567Y006753D01*
X003567Y006864D01*
X003799Y007096D01*
X003951Y007096D01*
X003744Y007303D01*
X003744Y007632D01*
X003976Y007864D01*
X004127Y007864D01*
X003974Y008016D01*
X003902Y008089D01*
X003862Y008184D01*
X003862Y012039D01*
X003844Y012002D01*
X003793Y011932D01*
X003732Y011871D01*
X003662Y011820D01*
X003584Y011780D01*
X003502Y011754D01*
X003417Y011740D01*
X003393Y011740D01*
X003393Y012270D01*
X003353Y012270D01*
X002823Y012270D01*
X002823Y012247D01*
X002837Y012161D01*
X002864Y012079D01*
X002903Y012002D01*
X002954Y011932D01*
X003015Y011871D01*
X003085Y011820D01*
X003162Y011780D01*
X003245Y011754D01*
X003330Y011740D01*
X003353Y011740D01*
X003353Y012270D01*
X003353Y012310D01*
X002823Y012310D01*
X002823Y012333D01*
X002837Y012419D01*
X002864Y012501D01*
X002903Y012578D01*
X002954Y012648D01*
X003015Y012710D01*
X003085Y012761D01*
X003162Y012800D01*
X003245Y012827D01*
X003330Y012840D01*
X003353Y012840D01*
X003353Y012310D01*
X003393Y012310D01*
X003393Y012840D01*
X003417Y012840D01*
X003502Y012827D01*
X003584Y012800D01*
X003662Y012761D01*
X003732Y012710D01*
X003793Y012648D01*
X003844Y012578D01*
X003862Y012542D01*
X003862Y013818D01*
X003838Y013759D01*
X003684Y013605D01*
X003482Y013522D01*
X003264Y013522D01*
X003063Y013605D01*
X003061Y013607D01*
X001126Y013607D01*
X001124Y013605D01*
X000922Y013522D01*
X000704Y013522D01*
X000503Y013605D01*
X000480Y013627D01*
X000480Y012728D01*
X000525Y012761D01*
X000602Y012800D01*
X000685Y012827D01*
X000770Y012840D01*
X000793Y012840D01*
X000793Y012310D01*
X000833Y012310D01*
X000833Y012840D01*
X000857Y012840D01*
X000942Y012827D01*
X001024Y012800D01*
X001102Y012761D01*
X001172Y012710D01*
X001233Y012648D01*
X001284Y012578D01*
X001323Y012501D01*
X001350Y012419D01*
X001363Y012333D01*
X001363Y012310D01*
X000833Y012310D01*
X000833Y012270D01*
X000833Y011740D01*
X000857Y011740D01*
X000942Y011754D01*
X001024Y011780D01*
X001102Y011820D01*
X001172Y011871D01*
X001233Y011932D01*
X001284Y012002D01*
X001323Y012079D01*
X001350Y012161D01*
X001363Y012247D01*
X001363Y012270D01*
X000833Y012270D01*
X000793Y012270D01*
X000793Y011740D01*
X000770Y011740D01*
X000685Y011754D01*
X000602Y011780D01*
X000525Y011820D01*
X000480Y011852D01*
X000480Y011804D02*
X000555Y011804D01*
X000480Y011646D02*
X001224Y011646D01*
X001224Y011804D02*
X001072Y011804D01*
X000833Y011804D02*
X000793Y011804D01*
X000793Y011963D02*
X000833Y011963D01*
X000833Y012121D02*
X000793Y012121D01*
X000833Y012280D02*
X001936Y012280D01*
X001913Y012121D02*
X001819Y012121D01*
X002017Y011825D02*
X002051Y011791D01*
X002051Y008577D01*
X002031Y008557D01*
X002031Y008228D01*
X002042Y008217D01*
X002042Y007488D01*
X002002Y007488D01*
X002002Y008288D01*
X001983Y008288D01*
X001905Y008275D01*
X001831Y008251D01*
X001781Y008226D01*
X001781Y011362D01*
X001785Y011362D01*
X002017Y011595D01*
X002017Y011825D01*
X002017Y011804D02*
X002038Y011804D01*
X002051Y011646D02*
X002017Y011646D01*
X002051Y011487D02*
X001910Y011487D01*
X001781Y011329D02*
X002051Y011329D01*
X002051Y011170D02*
X001781Y011170D01*
X001781Y011012D02*
X002051Y011012D01*
X002051Y010853D02*
X001781Y010853D01*
X001781Y010695D02*
X002051Y010695D01*
X002051Y010536D02*
X001781Y010536D01*
X001781Y010378D02*
X002051Y010378D01*
X002051Y010219D02*
X001781Y010219D01*
X001781Y010061D02*
X002051Y010061D01*
X002051Y009902D02*
X001781Y009902D01*
X001781Y009744D02*
X002051Y009744D01*
X002051Y009585D02*
X001781Y009585D01*
X001781Y009427D02*
X002051Y009427D01*
X002051Y009268D02*
X001781Y009268D01*
X001781Y009110D02*
X002051Y009110D01*
X002051Y008951D02*
X001781Y008951D01*
X001781Y008793D02*
X002051Y008793D01*
X002051Y008634D02*
X001781Y008634D01*
X001781Y008476D02*
X002031Y008476D01*
X002031Y008317D02*
X001781Y008317D01*
X002002Y008159D02*
X002042Y008159D01*
X002042Y008000D02*
X002002Y008000D01*
X002002Y007842D02*
X002042Y007842D01*
X002042Y007683D02*
X002002Y007683D01*
X002002Y007525D02*
X002042Y007525D01*
X002042Y007488D02*
X002522Y007488D01*
X002522Y007827D01*
X002510Y007905D01*
X002491Y007965D01*
X002799Y007656D01*
X002799Y006845D01*
X002839Y006750D01*
X003469Y006120D01*
X003541Y006048D01*
X003636Y006008D01*
X004842Y006008D01*
X004937Y006048D01*
X005803Y006914D01*
X006765Y006914D01*
X006239Y006388D01*
X006043Y006388D01*
X005811Y006155D01*
X005811Y005827D01*
X006043Y005595D01*
X006372Y005595D01*
X006604Y005827D01*
X006604Y006022D01*
X007102Y006520D01*
X009284Y006520D01*
X009276Y006487D01*
X009276Y005891D01*
X009634Y005891D01*
X009634Y005855D01*
X009276Y005855D01*
X009276Y005259D01*
X009288Y005213D01*
X009311Y005172D01*
X009336Y005147D01*
X007416Y005147D01*
X007321Y005108D01*
X007026Y004813D01*
X006831Y004813D01*
X006598Y004581D01*
X006598Y004252D01*
X006831Y004020D01*
X007159Y004020D01*
X007189Y004050D01*
X007189Y003858D01*
X007421Y003626D01*
X007750Y003626D01*
X007982Y003858D01*
X007982Y004054D01*
X008244Y004315D01*
X009958Y004315D01*
X009895Y004289D01*
X009767Y004162D01*
X009698Y003995D01*
X009698Y003814D01*
X009767Y003647D01*
X009842Y003572D01*
X005488Y003572D01*
X004872Y004188D01*
X004872Y004384D01*
X004639Y004616D01*
X004311Y004616D01*
X004079Y004384D01*
X004079Y004055D01*
X004311Y003823D01*
X004506Y003823D01*
X005032Y003297D01*
X004818Y003297D01*
X003749Y004366D01*
X003749Y005531D01*
X003710Y005626D01*
X002765Y006571D01*
X002692Y006643D01*
X002597Y006683D01*
X002210Y006683D01*
X002214Y006684D01*
X002284Y006720D01*
X002348Y006766D01*
X002404Y006822D01*
X002450Y006885D01*
X002486Y006956D01*
X002510Y007030D01*
X002522Y007108D01*
X002522Y007448D01*
X002042Y007448D01*
X002042Y007488D01*
X002022Y007468D02*
X004050Y005440D01*
X005263Y005440D01*
X008963Y005440D01*
X009081Y005558D01*
X009337Y005558D01*
X009652Y005873D01*
X010652Y005873D01*
X010634Y005855D02*
X010276Y005855D01*
X010276Y005259D01*
X010288Y005213D01*
X010311Y005172D01*
X010336Y005147D01*
X009968Y005147D01*
X009993Y005172D01*
X010017Y005213D01*
X010029Y005259D01*
X010029Y005855D01*
X009671Y005855D01*
X009671Y005891D01*
X010029Y005891D01*
X010029Y006487D01*
X010020Y006520D01*
X010284Y006520D01*
X010276Y006487D01*
X010276Y005891D01*
X010634Y005891D01*
X010634Y005855D01*
X010671Y005855D02*
X010671Y005891D01*
X011029Y005891D01*
X011029Y006487D01*
X011020Y006520D01*
X011277Y006520D01*
X011277Y005209D01*
X011319Y005167D01*
X011244Y005092D01*
X011244Y004981D01*
X011190Y005035D01*
X011118Y005108D01*
X011023Y005147D01*
X010968Y005147D01*
X010993Y005172D01*
X011017Y005213D01*
X011029Y005259D01*
X011029Y005855D01*
X010671Y005855D01*
X011029Y005781D02*
X011277Y005781D01*
X011277Y005623D02*
X011029Y005623D01*
X011029Y005464D02*
X011277Y005464D01*
X011277Y005306D02*
X011029Y005306D01*
X010969Y005147D02*
X011299Y005147D01*
X011244Y004989D02*
X011237Y004989D01*
X010971Y004889D02*
X007467Y004889D01*
X006995Y004416D01*
X007177Y004038D02*
X007189Y004038D01*
X007189Y003879D02*
X005181Y003879D01*
X005339Y003721D02*
X007326Y003721D01*
X007585Y004023D02*
X008137Y004574D01*
X010735Y004574D01*
X011286Y004023D01*
X012389Y004023D01*
X013652Y005286D01*
X013652Y005873D01*
X013277Y005940D02*
X013028Y005940D01*
X013028Y006098D02*
X013277Y006098D01*
X013277Y006257D02*
X013028Y006257D01*
X013028Y006415D02*
X013277Y006415D01*
X013277Y006520D02*
X013277Y005277D01*
X012873Y004873D01*
X012911Y004963D01*
X012911Y005104D01*
X012923Y005104D01*
X013028Y005209D01*
X013028Y006520D01*
X013277Y006520D01*
X013609Y007172D02*
X013806Y007369D01*
X014475Y008038D01*
X014475Y016227D01*
X014872Y016242D02*
X015122Y016242D01*
X015122Y016084D02*
X014872Y016084D01*
X014734Y015925D02*
X015199Y015925D01*
X015358Y015767D02*
X014734Y015767D01*
X014734Y015608D02*
X015516Y015608D01*
X015675Y015450D02*
X014734Y015450D01*
X014734Y015291D02*
X015833Y015291D01*
X015992Y015133D02*
X014734Y015133D01*
X014734Y014974D02*
X016150Y014974D01*
X016309Y014816D02*
X014734Y014816D01*
X014734Y014657D02*
X016467Y014657D01*
X016626Y014499D02*
X014734Y014499D01*
X014734Y014340D02*
X016784Y014340D01*
X016943Y014182D02*
X014734Y014182D01*
X014734Y014023D02*
X017012Y014023D01*
X017012Y013865D02*
X014734Y013865D01*
X014734Y013706D02*
X017012Y013706D01*
X017012Y013548D02*
X014734Y013548D01*
X014734Y013389D02*
X017012Y013389D01*
X017012Y013231D02*
X014734Y013231D01*
X014734Y013072D02*
X017012Y013072D01*
X017012Y012914D02*
X014734Y012914D01*
X014734Y012755D02*
X017012Y012755D01*
X017012Y012597D02*
X014734Y012597D01*
X014734Y012438D02*
X017012Y012438D01*
X017012Y012280D02*
X014734Y012280D01*
X014734Y012121D02*
X017012Y012121D01*
X017012Y011963D02*
X014734Y011963D01*
X014734Y011804D02*
X017012Y011804D01*
X017012Y011646D02*
X014734Y011646D01*
X014734Y011487D02*
X017012Y011487D01*
X017012Y011329D02*
X014734Y011329D01*
X014734Y011170D02*
X017012Y011170D01*
X017012Y011012D02*
X014734Y011012D01*
X014734Y010853D02*
X017012Y010853D01*
X017012Y010695D02*
X014734Y010695D01*
X014734Y010536D02*
X017012Y010536D01*
X017012Y010378D02*
X014734Y010378D01*
X014734Y010219D02*
X017012Y010219D01*
X017012Y010061D02*
X014734Y010061D01*
X014734Y009902D02*
X017012Y009902D01*
X017012Y009744D02*
X014734Y009744D01*
X014734Y009585D02*
X017012Y009585D01*
X017012Y009427D02*
X014734Y009427D01*
X014734Y009268D02*
X017012Y009268D01*
X017012Y009110D02*
X014734Y009110D01*
X014734Y008951D02*
X017012Y008951D01*
X017012Y008793D02*
X014734Y008793D01*
X014734Y008634D02*
X017012Y008634D01*
X017012Y008476D02*
X014734Y008476D01*
X014734Y008317D02*
X017012Y008317D01*
X017270Y007960D02*
X017270Y014219D01*
X015381Y016109D01*
X015381Y018393D01*
X015693Y018144D02*
X016305Y018144D01*
X016265Y018240D02*
X016382Y017957D01*
X016599Y017741D01*
X016881Y017624D01*
X017187Y017624D01*
X017470Y017741D01*
X017686Y017957D01*
X017803Y018240D01*
X017803Y018546D01*
X017686Y018828D01*
X017470Y019045D01*
X017187Y019162D01*
X016881Y019162D01*
X016599Y019045D01*
X016382Y018828D01*
X016265Y018546D01*
X016265Y018240D01*
X016265Y018303D02*
X015777Y018303D01*
X015777Y018461D02*
X016265Y018461D01*
X016296Y018620D02*
X015714Y018620D01*
X015556Y018778D02*
X016362Y018778D01*
X016491Y018937D02*
X011147Y018937D01*
X011305Y018778D02*
X011997Y018778D01*
X011853Y018620D02*
X011442Y018620D01*
X011466Y018461D02*
X011787Y018461D01*
X011787Y018303D02*
X011466Y018303D01*
X011207Y018511D02*
X010735Y018983D01*
X009357Y018983D01*
X009298Y018924D01*
X009298Y018389D01*
X009667Y018725D02*
X009929Y018725D01*
X009800Y018595D01*
X009800Y018256D01*
X009796Y018253D01*
X009796Y018595D01*
X009667Y018725D01*
X009772Y018620D02*
X009824Y018620D01*
X009800Y018461D02*
X009796Y018461D01*
X009796Y018303D02*
X009800Y018303D01*
X009790Y017881D02*
X010298Y018389D01*
X010600Y017986D02*
X010949Y017986D01*
X010949Y018144D02*
X010759Y018144D01*
X010796Y018182D02*
X010796Y018556D01*
X010949Y018404D01*
X010949Y017204D01*
X010939Y017214D01*
X010796Y017214D01*
X010796Y017595D01*
X010504Y017887D01*
X010162Y017887D01*
X010165Y017890D01*
X010504Y017890D01*
X010796Y018182D01*
X010796Y018303D02*
X010949Y018303D01*
X010891Y018461D02*
X010796Y018461D01*
X011207Y018511D02*
X011207Y011779D01*
X011168Y011739D01*
X010859Y011487D02*
X010639Y011487D01*
X010639Y011372D02*
X010639Y013213D01*
X010949Y013213D01*
X010949Y012081D01*
X010772Y011903D01*
X010772Y011575D01*
X011004Y011343D01*
X011332Y011343D01*
X011503Y011513D01*
X011673Y011343D01*
X012002Y011343D01*
X012234Y011575D01*
X012234Y011903D01*
X012002Y012136D01*
X011820Y012136D01*
X011820Y012416D01*
X011831Y012406D01*
X012159Y012406D01*
X012391Y012638D01*
X012391Y012828D01*
X012760Y012459D01*
X012760Y011506D01*
X012461Y011506D01*
X012228Y011274D01*
X012228Y010945D01*
X012366Y010807D01*
X012366Y010187D01*
X010659Y010187D01*
X010659Y010211D01*
X010427Y010443D01*
X010098Y010443D01*
X009866Y010211D01*
X009866Y009903D01*
X009135Y010634D01*
X009167Y010634D01*
X009399Y010866D01*
X009399Y011195D01*
X009167Y011427D01*
X008972Y011427D01*
X008434Y011964D01*
X008434Y012219D01*
X008484Y012169D01*
X008813Y012169D01*
X008911Y012268D01*
X009567Y012268D01*
X009705Y012130D01*
X010033Y012130D01*
X010122Y012219D01*
X010122Y011372D01*
X009984Y011234D01*
X009984Y010906D01*
X010216Y010673D01*
X010545Y010673D01*
X010777Y010906D01*
X010777Y011234D01*
X010639Y011372D01*
X010682Y011329D02*
X012284Y011329D01*
X012228Y011170D02*
X010777Y011170D01*
X010777Y011012D02*
X012228Y011012D01*
X012320Y010853D02*
X010725Y010853D01*
X010567Y010695D02*
X012366Y010695D01*
X012366Y010536D02*
X009232Y010536D01*
X009228Y010695D02*
X010195Y010695D01*
X010036Y010853D02*
X009386Y010853D01*
X009399Y011012D02*
X009984Y011012D01*
X009984Y011170D02*
X009399Y011170D01*
X009265Y011329D02*
X010079Y011329D01*
X010122Y011487D02*
X008911Y011487D01*
X008753Y011646D02*
X010122Y011646D01*
X010122Y011804D02*
X008594Y011804D01*
X008436Y011963D02*
X010122Y011963D01*
X010122Y012121D02*
X008434Y012121D01*
X008176Y011857D02*
X009003Y011031D01*
X009391Y010378D02*
X010034Y010378D01*
X009875Y010219D02*
X009549Y010219D01*
X009708Y010061D02*
X009866Y010061D01*
X010263Y010046D02*
X010381Y009928D01*
X012625Y009928D01*
X012625Y009023D01*
X011444Y007842D01*
X004515Y007842D01*
X004121Y008235D01*
X004121Y014259D01*
X002900Y015479D01*
X002900Y017723D01*
X003159Y017421D02*
X003297Y017559D01*
X003297Y017888D01*
X003070Y018114D01*
X003340Y018114D01*
X003573Y018347D01*
X003573Y018675D01*
X003340Y018907D01*
X003012Y018907D01*
X002779Y018675D01*
X002779Y018558D01*
X002248Y018027D01*
X002209Y017932D01*
X002209Y014917D01*
X002183Y014892D01*
X001988Y014892D01*
X001756Y014659D01*
X001756Y014331D01*
X001963Y014124D01*
X001362Y014124D01*
X001362Y014179D01*
X001278Y014381D01*
X001124Y014535D01*
X000922Y014619D01*
X000704Y014619D01*
X000503Y014535D01*
X000480Y014513D01*
X000480Y019199D01*
X009207Y019199D01*
X009138Y019130D01*
X009079Y019071D01*
X009040Y018976D01*
X009040Y018835D01*
X008800Y018595D01*
X008800Y018182D01*
X009092Y017890D01*
X009504Y017890D01*
X009532Y017918D01*
X009532Y017860D01*
X009504Y017887D01*
X009092Y017887D01*
X008800Y017595D01*
X008800Y017182D01*
X009092Y016890D01*
X009504Y016890D01*
X009532Y016918D01*
X009532Y016137D01*
X009571Y016042D01*
X010122Y015490D01*
X010122Y012834D01*
X010033Y012923D01*
X009705Y012923D01*
X009567Y012785D01*
X008990Y012785D01*
X008813Y012962D01*
X008484Y012962D01*
X008434Y012913D01*
X008434Y013563D01*
X008573Y013701D01*
X008573Y014029D01*
X008340Y014262D01*
X008012Y014262D01*
X007779Y014029D01*
X007779Y013701D01*
X007918Y013563D01*
X007918Y013301D01*
X007834Y013336D01*
X007496Y013336D01*
X006466Y014366D01*
X006466Y016238D01*
X006964Y016736D01*
X007159Y016736D01*
X007327Y016904D01*
X007327Y016255D01*
X007366Y016160D01*
X007464Y016062D01*
X007464Y015866D01*
X007603Y015728D01*
X007603Y015167D01*
X007579Y015167D01*
X007346Y014935D01*
X007346Y014606D01*
X007579Y014374D01*
X007907Y014374D01*
X008139Y014606D01*
X008139Y014935D01*
X008119Y014955D01*
X008119Y015728D01*
X008258Y015866D01*
X008258Y016195D01*
X008025Y016427D01*
X007844Y016427D01*
X007844Y017136D01*
X008091Y016889D01*
X008278Y016889D01*
X008278Y017369D01*
X008318Y017369D01*
X008318Y017409D01*
X008278Y017409D01*
X008278Y017889D01*
X008163Y017889D01*
X008165Y017890D01*
X008504Y017890D01*
X008796Y018182D01*
X008796Y018595D01*
X008504Y018887D01*
X008092Y018887D01*
X007800Y018595D01*
X007800Y018256D01*
X007439Y017895D01*
X007366Y017823D01*
X007327Y017728D01*
X007327Y017362D01*
X007159Y017529D01*
X006831Y017529D01*
X006598Y017297D01*
X006598Y017102D01*
X005988Y016492D01*
X005949Y016397D01*
X005949Y014336D01*
X005327Y014958D01*
X005327Y014959D01*
X005327Y015141D01*
X005258Y015310D01*
X005188Y015379D01*
X005223Y015379D01*
X005327Y015484D01*
X005327Y016192D01*
X005294Y016225D01*
X005348Y016225D01*
X005580Y016457D01*
X005580Y016785D01*
X005348Y017018D01*
X005020Y017018D01*
X004881Y016879D01*
X004424Y016879D01*
X004329Y016840D01*
X004256Y016767D01*
X003902Y016413D01*
X003862Y016318D01*
X003862Y015388D01*
X003724Y015250D01*
X003724Y015021D01*
X003159Y015586D01*
X003159Y017421D01*
X003159Y017352D02*
X006653Y017352D01*
X006598Y017193D02*
X003159Y017193D01*
X003159Y017035D02*
X006531Y017035D01*
X006373Y016876D02*
X005489Y016876D01*
X005580Y016718D02*
X006214Y016718D01*
X006056Y016559D02*
X005580Y016559D01*
X005525Y016401D02*
X005951Y016401D01*
X005949Y016242D02*
X005366Y016242D01*
X005327Y016084D02*
X005949Y016084D01*
X005949Y015925D02*
X005327Y015925D01*
X005327Y015767D02*
X005949Y015767D01*
X005949Y015608D02*
X005327Y015608D01*
X005294Y015450D02*
X005949Y015450D01*
X005949Y015291D02*
X005265Y015291D01*
X005327Y015133D02*
X005949Y015133D01*
X005949Y014974D02*
X005327Y014974D01*
X005469Y014816D02*
X005949Y014816D01*
X005949Y014657D02*
X005627Y014657D01*
X005786Y014499D02*
X005949Y014499D01*
X005944Y014340D02*
X005949Y014340D01*
X006207Y014259D02*
X006207Y016345D01*
X006995Y017133D01*
X007178Y017510D02*
X007327Y017510D01*
X007327Y017669D02*
X003297Y017669D01*
X003297Y017827D02*
X007371Y017827D01*
X007530Y017986D02*
X003199Y017986D01*
X003370Y018144D02*
X007688Y018144D01*
X007800Y018303D02*
X003529Y018303D01*
X003573Y018461D02*
X007800Y018461D01*
X007824Y018620D02*
X003573Y018620D01*
X003469Y018778D02*
X007983Y018778D01*
X008298Y018389D02*
X007585Y017676D01*
X007585Y016306D01*
X007861Y016031D01*
X007861Y014889D01*
X007743Y014771D01*
X008032Y014499D02*
X010122Y014499D01*
X010122Y014657D02*
X008139Y014657D01*
X008139Y014816D02*
X010122Y014816D01*
X010122Y014974D02*
X008119Y014974D01*
X008119Y015133D02*
X010122Y015133D01*
X010122Y015291D02*
X008119Y015291D01*
X008119Y015450D02*
X010122Y015450D01*
X010004Y015608D02*
X008119Y015608D01*
X008158Y015767D02*
X009846Y015767D01*
X009687Y015925D02*
X008258Y015925D01*
X008258Y016084D02*
X009554Y016084D01*
X009532Y016242D02*
X008210Y016242D01*
X008051Y016401D02*
X009532Y016401D01*
X009532Y016559D02*
X007844Y016559D01*
X007844Y016718D02*
X009532Y016718D01*
X009532Y016876D02*
X007844Y016876D01*
X007844Y017035D02*
X007945Y017035D01*
X008278Y017035D02*
X008318Y017035D01*
X008318Y016889D02*
X008505Y016889D01*
X008798Y017182D01*
X008798Y017369D01*
X008318Y017369D01*
X008318Y016889D01*
X008318Y017193D02*
X008278Y017193D01*
X008278Y017352D02*
X008318Y017352D01*
X008298Y017389D02*
X008298Y014924D01*
X008570Y014653D01*
X008420Y014182D02*
X010122Y014182D01*
X010122Y014340D02*
X006491Y014340D01*
X006466Y014499D02*
X007454Y014499D01*
X007346Y014657D02*
X006466Y014657D01*
X006466Y014816D02*
X007346Y014816D01*
X007386Y014974D02*
X006466Y014974D01*
X006466Y015133D02*
X007544Y015133D01*
X007603Y015291D02*
X006466Y015291D01*
X006466Y015450D02*
X007603Y015450D01*
X007603Y015608D02*
X006466Y015608D01*
X006466Y015767D02*
X007564Y015767D01*
X007464Y015925D02*
X006466Y015925D01*
X006466Y016084D02*
X007442Y016084D01*
X007332Y016242D02*
X006470Y016242D01*
X006628Y016401D02*
X007327Y016401D01*
X007327Y016559D02*
X006787Y016559D01*
X006945Y016718D02*
X007327Y016718D01*
X007327Y016876D02*
X007299Y016876D01*
X006812Y017510D02*
X003248Y017510D01*
X003159Y016876D02*
X004416Y016876D01*
X004475Y016621D02*
X005184Y016621D01*
X004881Y016363D02*
X004948Y016296D01*
X004516Y016296D01*
X004582Y016363D01*
X004881Y016363D01*
X004475Y016621D02*
X004121Y016267D01*
X004121Y015086D01*
X004412Y014816D02*
X004470Y014816D01*
X004480Y014791D02*
X004609Y014662D01*
X004621Y014656D01*
X004609Y014651D01*
X004480Y014522D01*
X004410Y014354D01*
X004410Y014172D01*
X004480Y014003D01*
X004609Y013874D01*
X004621Y013869D01*
X004609Y013864D01*
X004480Y013735D01*
X004410Y013567D01*
X004410Y013384D01*
X004480Y013216D01*
X004609Y013087D01*
X004621Y013082D01*
X004609Y013077D01*
X004480Y012948D01*
X004410Y012779D01*
X004410Y012597D01*
X004379Y012597D01*
X004410Y012597D02*
X004480Y012428D01*
X004609Y012299D01*
X004621Y012294D01*
X004609Y012289D01*
X004480Y012160D01*
X004410Y011992D01*
X004410Y011809D01*
X004480Y011641D01*
X004609Y011512D01*
X004621Y011507D01*
X004609Y011502D01*
X004480Y011373D01*
X004410Y011204D01*
X004410Y011022D01*
X004480Y010854D01*
X004609Y010725D01*
X004621Y010719D01*
X004609Y010714D01*
X004480Y010585D01*
X004410Y010417D01*
X004410Y010235D01*
X004480Y010066D01*
X004609Y009937D01*
X004621Y009932D01*
X004609Y009927D01*
X004480Y009798D01*
X004410Y009630D01*
X004410Y009447D01*
X004480Y009279D01*
X004609Y009150D01*
X004626Y009143D01*
X004569Y009102D01*
X004518Y009051D01*
X004475Y008992D01*
X004443Y008928D01*
X004420Y008859D01*
X004409Y008787D01*
X004409Y008751D01*
X004869Y008751D01*
X005329Y008751D01*
X005329Y008787D01*
X005318Y008859D01*
X005295Y008928D01*
X005262Y008992D01*
X005220Y009051D01*
X005169Y009102D01*
X005112Y009143D01*
X005129Y009150D01*
X005258Y009279D01*
X005327Y009447D01*
X005327Y009630D01*
X005258Y009798D01*
X005129Y009927D01*
X005116Y009932D01*
X005129Y009937D01*
X005258Y010066D01*
X005273Y010103D01*
X005274Y010103D01*
X006992Y008384D01*
X006992Y008347D01*
X007224Y008114D01*
X007290Y008114D01*
X007325Y008100D01*
X004622Y008100D01*
X004379Y008342D01*
X004379Y014310D01*
X004340Y014405D01*
X004056Y014689D01*
X004285Y014689D01*
X004453Y014857D01*
X004480Y014791D01*
X004619Y014657D02*
X004088Y014657D01*
X004246Y014499D02*
X004471Y014499D01*
X004410Y014340D02*
X004367Y014340D01*
X004379Y014182D02*
X004410Y014182D01*
X004379Y014023D02*
X004472Y014023D01*
X004379Y013865D02*
X004611Y013865D01*
X004468Y013706D02*
X004379Y013706D01*
X004379Y013548D02*
X004410Y013548D01*
X004410Y013389D02*
X004379Y013389D01*
X004379Y013231D02*
X004474Y013231D01*
X004379Y013072D02*
X004605Y013072D01*
X004466Y012914D02*
X004379Y012914D01*
X004379Y012755D02*
X004410Y012755D01*
X004379Y012438D02*
X004476Y012438D01*
X004379Y012280D02*
X004600Y012280D01*
X004464Y012121D02*
X004379Y012121D01*
X004379Y011963D02*
X004410Y011963D01*
X004413Y011804D02*
X004379Y011804D01*
X004379Y011646D02*
X004478Y011646D01*
X004379Y011487D02*
X004595Y011487D01*
X004462Y011329D02*
X004379Y011329D01*
X004379Y011170D02*
X004410Y011170D01*
X004415Y011012D02*
X004379Y011012D01*
X004379Y010853D02*
X004480Y010853D01*
X004379Y010695D02*
X004590Y010695D01*
X004460Y010536D02*
X004379Y010536D01*
X004379Y010378D02*
X004410Y010378D01*
X004417Y010219D02*
X004379Y010219D01*
X004379Y010061D02*
X004485Y010061D01*
X004585Y009902D02*
X004379Y009902D01*
X004379Y009744D02*
X004458Y009744D01*
X004410Y009585D02*
X004379Y009585D01*
X004379Y009427D02*
X004419Y009427D01*
X004379Y009268D02*
X004491Y009268D01*
X004580Y009110D02*
X004379Y009110D01*
X004379Y008951D02*
X004455Y008951D01*
X004410Y008793D02*
X004379Y008793D01*
X004409Y008751D02*
X004409Y008715D01*
X004420Y008643D01*
X004443Y008574D01*
X004475Y008510D01*
X004518Y008451D01*
X004569Y008400D01*
X004628Y008358D01*
X004692Y008325D01*
X004761Y008302D01*
X004833Y008291D01*
X004869Y008291D01*
X004905Y008291D01*
X004977Y008302D01*
X005045Y008325D01*
X005110Y008358D01*
X005169Y008400D01*
X005220Y008451D01*
X005262Y008510D01*
X005295Y008574D01*
X005318Y008643D01*
X005329Y008715D01*
X005329Y008751D01*
X004869Y008751D01*
X004869Y008751D01*
X004869Y008291D01*
X004869Y008751D01*
X004869Y008751D01*
X004869Y008751D01*
X004409Y008751D01*
X004423Y008634D02*
X004379Y008634D01*
X004379Y008476D02*
X004500Y008476D01*
X004404Y008317D02*
X004715Y008317D01*
X004869Y008317D02*
X004869Y008317D01*
X005023Y008317D02*
X007021Y008317D01*
X006901Y008476D02*
X005238Y008476D01*
X005315Y008634D02*
X006742Y008634D01*
X006584Y008793D02*
X005328Y008793D01*
X005283Y008951D02*
X006425Y008951D01*
X006267Y009110D02*
X005157Y009110D01*
X005247Y009268D02*
X006108Y009268D01*
X005950Y009427D02*
X005319Y009427D01*
X005327Y009585D02*
X005791Y009585D01*
X005633Y009744D02*
X005280Y009744D01*
X005153Y009902D02*
X005474Y009902D01*
X005316Y010061D02*
X005252Y010061D01*
X005274Y010103D02*
X005274Y010103D01*
X005420Y010322D02*
X005420Y013712D01*
X004869Y014263D01*
X005327Y014226D02*
X005555Y013998D01*
X005555Y013942D01*
X005327Y014170D01*
X005327Y014172D01*
X005327Y014226D01*
X005327Y014182D02*
X005372Y014182D01*
X005474Y014023D02*
X005530Y014023D01*
X005814Y014105D02*
X004869Y015050D01*
X004550Y015379D02*
X004480Y015310D01*
X004474Y015294D01*
X004379Y015388D01*
X004379Y016160D01*
X004410Y016191D01*
X004410Y015484D01*
X004515Y015379D01*
X004550Y015379D01*
X004444Y015450D02*
X004379Y015450D01*
X004379Y015608D02*
X004410Y015608D01*
X004410Y015767D02*
X004379Y015767D01*
X004379Y015925D02*
X004410Y015925D01*
X004410Y016084D02*
X004379Y016084D01*
X003897Y016401D02*
X003159Y016401D01*
X003159Y016559D02*
X004048Y016559D01*
X004207Y016718D02*
X003159Y016718D01*
X003159Y016242D02*
X003862Y016242D01*
X003862Y016084D02*
X003159Y016084D01*
X003159Y015925D02*
X003862Y015925D01*
X003862Y015767D02*
X003159Y015767D01*
X003159Y015608D02*
X003862Y015608D01*
X003862Y015450D02*
X003295Y015450D01*
X003454Y015291D02*
X003766Y015291D01*
X003724Y015133D02*
X003612Y015133D01*
X003198Y014816D02*
X002726Y014816D01*
X002726Y014759D02*
X002726Y015289D01*
X002754Y015260D01*
X003396Y014619D01*
X003264Y014619D01*
X003063Y014535D01*
X002908Y014381D01*
X002825Y014179D01*
X002825Y014124D01*
X002342Y014124D01*
X002549Y014331D01*
X002549Y014526D01*
X002614Y014591D01*
X002686Y014664D01*
X002726Y014759D01*
X002680Y014657D02*
X003357Y014657D01*
X003027Y014499D02*
X002549Y014499D01*
X002549Y014340D02*
X002892Y014340D01*
X002826Y014182D02*
X002400Y014182D01*
X002152Y014495D02*
X002467Y014810D01*
X002467Y017881D01*
X003097Y018511D01*
X003176Y018511D01*
X002883Y018778D02*
X001959Y018778D01*
X001938Y018828D02*
X001722Y019045D01*
X001439Y019162D01*
X001133Y019162D01*
X000851Y019045D01*
X000634Y018828D01*
X000517Y018546D01*
X000517Y018240D01*
X000634Y017957D01*
X000851Y017741D01*
X001133Y017624D01*
X001439Y017624D01*
X001722Y017741D01*
X001938Y017957D01*
X002055Y018240D01*
X002055Y018546D01*
X001938Y018828D01*
X001829Y018937D02*
X009040Y018937D01*
X008983Y018778D02*
X008613Y018778D01*
X008772Y018620D02*
X008824Y018620D01*
X008800Y018461D02*
X008796Y018461D01*
X008796Y018303D02*
X008800Y018303D01*
X008837Y018144D02*
X008759Y018144D01*
X008600Y017986D02*
X008996Y017986D01*
X009032Y017827D02*
X008566Y017827D01*
X008505Y017889D02*
X008318Y017889D01*
X008318Y017409D01*
X008798Y017409D01*
X008798Y017596D01*
X008505Y017889D01*
X008318Y017827D02*
X008278Y017827D01*
X008278Y017669D02*
X008318Y017669D01*
X008318Y017510D02*
X008278Y017510D01*
X008725Y017669D02*
X008873Y017669D01*
X008800Y017510D02*
X008798Y017510D01*
X008798Y017352D02*
X008800Y017352D01*
X008798Y017193D02*
X008800Y017193D01*
X008947Y017035D02*
X008651Y017035D01*
X009790Y017881D02*
X009790Y016188D01*
X010381Y015597D01*
X010381Y011070D01*
X010639Y011646D02*
X010772Y011646D01*
X010772Y011804D02*
X010639Y011804D01*
X010639Y011963D02*
X010831Y011963D01*
X010949Y012121D02*
X010639Y012121D01*
X010639Y012280D02*
X010949Y012280D01*
X010949Y012438D02*
X010639Y012438D01*
X010639Y012597D02*
X010949Y012597D01*
X010949Y012755D02*
X010639Y012755D01*
X010639Y012914D02*
X010949Y012914D01*
X010949Y013072D02*
X010639Y013072D01*
X010122Y013072D02*
X008434Y013072D01*
X008434Y012914D02*
X008436Y012914D01*
X008434Y013231D02*
X010122Y013231D01*
X010122Y013389D02*
X008434Y013389D01*
X008434Y013548D02*
X010122Y013548D01*
X010122Y013706D02*
X008573Y013706D01*
X008573Y013865D02*
X010122Y013865D01*
X010122Y014023D02*
X008573Y014023D01*
X008176Y013865D02*
X008176Y011857D01*
X007782Y011621D02*
X010026Y009377D01*
X010381Y009377D01*
X010649Y009670D02*
X012366Y009670D01*
X012366Y009130D01*
X011722Y008485D01*
X011722Y008675D01*
X011490Y008907D01*
X011161Y008907D01*
X011023Y008769D01*
X010370Y008769D01*
X010020Y009119D01*
X010078Y009119D01*
X010216Y008980D01*
X010545Y008980D01*
X010777Y009213D01*
X010777Y009541D01*
X010649Y009670D01*
X010733Y009585D02*
X012366Y009585D01*
X012366Y009427D02*
X010777Y009427D01*
X010777Y009268D02*
X012366Y009268D01*
X012347Y009110D02*
X010674Y009110D01*
X010346Y008793D02*
X011047Y008793D01*
X011326Y008511D02*
X010263Y008511D01*
X009003Y009771D01*
X007664Y011109D01*
X006995Y011109D01*
X007297Y011368D02*
X007159Y011506D01*
X006831Y011506D01*
X006598Y011274D01*
X006598Y011084D01*
X006466Y011216D01*
X006466Y012144D01*
X006846Y012524D01*
X007041Y012524D01*
X007273Y012756D01*
X007273Y012846D01*
X007337Y012819D01*
X007524Y012819D01*
X007524Y011570D01*
X007563Y011475D01*
X007670Y011368D01*
X007613Y011368D01*
X007297Y011368D01*
X007177Y011487D02*
X007558Y011487D01*
X007524Y011646D02*
X006466Y011646D01*
X006466Y011804D02*
X007524Y011804D01*
X007524Y011963D02*
X006466Y011963D01*
X006466Y012121D02*
X007524Y012121D01*
X007524Y012280D02*
X006602Y012280D01*
X006760Y012438D02*
X007524Y012438D01*
X007524Y012597D02*
X007114Y012597D01*
X007273Y012755D02*
X007524Y012755D01*
X007389Y013078D02*
X006207Y014259D01*
X006072Y014029D02*
X006784Y013317D01*
X006713Y013317D01*
X006480Y013085D01*
X006480Y012889D01*
X006072Y012481D01*
X006072Y014029D01*
X006072Y014023D02*
X006077Y014023D01*
X006072Y013865D02*
X006236Y013865D01*
X006394Y013706D02*
X006072Y013706D01*
X006072Y013548D02*
X006553Y013548D01*
X006711Y013389D02*
X006072Y013389D01*
X006072Y013231D02*
X006627Y013231D01*
X006480Y013072D02*
X006072Y013072D01*
X006072Y012914D02*
X006480Y012914D01*
X006346Y012755D02*
X006072Y012755D01*
X006072Y012597D02*
X006188Y012597D01*
X006207Y012251D02*
X006877Y012920D01*
X007389Y013078D02*
X007782Y013078D01*
X007782Y011621D01*
X007557Y010851D02*
X007297Y010851D01*
X007162Y010716D01*
X007391Y010486D01*
X007391Y010158D01*
X007162Y009928D01*
X007391Y009699D01*
X007391Y009370D01*
X007159Y009138D01*
X006969Y009138D01*
X007212Y008895D01*
X007224Y008907D01*
X007553Y008907D01*
X007664Y008796D01*
X007776Y008907D01*
X008050Y008907D01*
X008370Y009228D01*
X008370Y009423D01*
X008602Y009655D01*
X008606Y009655D01*
X008606Y009802D01*
X007557Y010851D01*
X007713Y010695D02*
X007183Y010695D01*
X007341Y010536D02*
X007872Y010536D01*
X008030Y010378D02*
X007391Y010378D01*
X007391Y010219D02*
X008189Y010219D01*
X008347Y010061D02*
X007295Y010061D01*
X007188Y009902D02*
X008506Y009902D01*
X008606Y009744D02*
X007346Y009744D01*
X007391Y009585D02*
X008532Y009585D01*
X008374Y009427D02*
X007391Y009427D01*
X007290Y009268D02*
X008370Y009268D01*
X008252Y009110D02*
X006997Y009110D01*
X007156Y008951D02*
X008094Y008951D01*
X008019Y008511D02*
X008767Y009259D01*
X009163Y009245D02*
X010116Y008292D01*
X010211Y008252D01*
X011023Y008252D01*
X011161Y008114D01*
X011351Y008114D01*
X011337Y008100D01*
X007452Y008100D01*
X007487Y008114D01*
X007553Y008114D01*
X007664Y008226D01*
X007776Y008114D01*
X008104Y008114D01*
X008336Y008347D01*
X008336Y008463D01*
X008735Y008862D01*
X008931Y008862D01*
X009163Y009095D01*
X009163Y009245D01*
X009163Y009110D02*
X009298Y009110D01*
X009457Y008951D02*
X009020Y008951D01*
X008666Y008793D02*
X009615Y008793D01*
X009774Y008634D02*
X008508Y008634D01*
X008349Y008476D02*
X009932Y008476D01*
X010091Y008317D02*
X008307Y008317D01*
X008149Y008159D02*
X011117Y008159D01*
X011722Y008634D02*
X011871Y008634D01*
X012030Y008793D02*
X011604Y008793D01*
X012188Y008951D02*
X010187Y008951D01*
X010087Y009110D02*
X010029Y009110D01*
X010650Y010219D02*
X012366Y010219D01*
X012366Y010378D02*
X010492Y010378D01*
X009790Y010637D02*
X011956Y010637D01*
X012152Y010834D01*
X012625Y011109D02*
X012625Y009928D01*
X013277Y009930D02*
X013277Y009935D01*
X013283Y009932D01*
X013277Y009930D01*
X013530Y009538D02*
X014081Y010090D01*
X014081Y016031D01*
X013727Y016385D01*
X012841Y016385D01*
X012684Y016227D01*
X012330Y016227D02*
X011995Y015893D01*
X011995Y014653D01*
X012353Y014653D01*
X013530Y013475D01*
X013823Y013120D02*
X013790Y013087D01*
X013778Y013082D01*
X013790Y013077D01*
X013823Y013044D01*
X013823Y013120D01*
X013823Y013072D02*
X013794Y013072D01*
X013283Y013082D02*
X013271Y013077D01*
X013142Y012948D01*
X013101Y012849D01*
X012891Y013059D01*
X012903Y013071D01*
X012903Y013399D01*
X012671Y013632D01*
X012342Y013632D01*
X012253Y013543D01*
X012253Y014387D01*
X013072Y013568D01*
X013072Y013567D01*
X013072Y013384D01*
X013142Y013216D01*
X013271Y013087D01*
X013283Y013082D01*
X013266Y013072D02*
X012903Y013072D01*
X012903Y013231D02*
X013135Y013231D01*
X013072Y013389D02*
X012903Y013389D01*
X012755Y013548D02*
X013072Y013548D01*
X012934Y013706D02*
X012253Y013706D01*
X012253Y013548D02*
X012259Y013548D01*
X012253Y013865D02*
X012775Y013865D01*
X012617Y014023D02*
X012253Y014023D01*
X012253Y014182D02*
X012458Y014182D01*
X012300Y014340D02*
X012253Y014340D01*
X011995Y014653D02*
X011995Y012802D01*
X012391Y012755D02*
X012464Y012755D01*
X012350Y012597D02*
X012622Y012597D01*
X012760Y012438D02*
X012192Y012438D01*
X012016Y012121D02*
X012760Y012121D01*
X012760Y011963D02*
X012174Y011963D01*
X012234Y011804D02*
X012760Y011804D01*
X012760Y011646D02*
X012234Y011646D01*
X012146Y011487D02*
X012442Y011487D01*
X011837Y011739D02*
X011562Y012015D01*
X011562Y017723D01*
X011719Y017881D01*
X012116Y017892D02*
X012186Y017863D01*
X013024Y017863D01*
X013081Y017886D01*
X013166Y017801D01*
X013024Y017860D01*
X012186Y017860D01*
X012116Y017831D01*
X012116Y017892D01*
X012605Y018361D02*
X012971Y018361D01*
X014042Y017290D01*
X014042Y016700D01*
X013646Y016718D02*
X011820Y016718D01*
X011820Y016876D02*
X012153Y016876D01*
X012186Y016863D02*
X013024Y016863D01*
X013207Y016939D01*
X013348Y017079D01*
X013424Y017262D01*
X013424Y017460D01*
X013365Y017602D01*
X013784Y017183D01*
X013784Y017002D01*
X013646Y016864D01*
X013646Y016643D01*
X012895Y016643D01*
X012883Y016656D01*
X012131Y016656D01*
X012026Y016551D01*
X012026Y016289D01*
X011820Y016084D01*
X011821Y016084D01*
X011820Y016084D02*
X011820Y017181D01*
X011863Y017079D01*
X012003Y016939D01*
X012186Y016863D01*
X012034Y016559D02*
X011820Y016559D01*
X011820Y016401D02*
X012026Y016401D01*
X011979Y016242D02*
X011820Y016242D01*
X012267Y015799D02*
X012883Y015799D01*
X012987Y015903D01*
X012987Y016126D01*
X013171Y016126D01*
X013142Y016097D01*
X013072Y015929D01*
X013072Y015746D01*
X013142Y015578D01*
X013271Y015449D01*
X013283Y015444D01*
X013271Y015439D01*
X013142Y015310D01*
X013072Y015141D01*
X013072Y014959D01*
X013142Y014791D01*
X013271Y014662D01*
X013283Y014656D01*
X013271Y014651D01*
X013142Y014522D01*
X013072Y014354D01*
X013072Y014299D01*
X012572Y014799D01*
X012500Y014872D01*
X012405Y014911D01*
X012253Y014911D01*
X012253Y015786D01*
X012267Y015799D01*
X012253Y015767D02*
X013072Y015767D01*
X013072Y015925D02*
X012987Y015925D01*
X012987Y016084D02*
X013136Y016084D01*
X013129Y015608D02*
X012253Y015608D01*
X012253Y015450D02*
X013270Y015450D01*
X013134Y015291D02*
X012253Y015291D01*
X012253Y015133D02*
X013072Y015133D01*
X013072Y014974D02*
X012253Y014974D01*
X012555Y014816D02*
X013131Y014816D01*
X013281Y014657D02*
X012714Y014657D01*
X012872Y014499D02*
X013132Y014499D01*
X013072Y014340D02*
X013031Y014340D01*
X013778Y014656D02*
X013790Y014662D01*
X013823Y014695D01*
X013823Y014618D01*
X013790Y014651D01*
X013778Y014656D01*
X013780Y014657D02*
X013823Y014657D01*
X013823Y013907D02*
X013823Y013831D01*
X013790Y013864D01*
X013778Y013869D01*
X013790Y013874D01*
X013823Y013907D01*
X013823Y013865D02*
X013788Y013865D01*
X013128Y012914D02*
X013036Y012914D01*
X013019Y012566D02*
X012507Y013078D01*
X012507Y013235D01*
X013019Y012566D02*
X013019Y008078D01*
X013294Y007802D01*
X013011Y007525D02*
X012116Y007525D01*
X012116Y007431D02*
X012116Y007730D01*
X011907Y007939D01*
X012760Y008792D01*
X012760Y008026D01*
X012799Y007931D01*
X012872Y007859D01*
X012898Y007833D01*
X012898Y007638D01*
X013105Y007431D01*
X012116Y007431D01*
X012116Y007683D02*
X012898Y007683D01*
X012889Y007842D02*
X012004Y007842D01*
X011968Y008000D02*
X012771Y008000D01*
X012760Y008159D02*
X012127Y008159D01*
X012285Y008317D02*
X012760Y008317D01*
X012760Y008476D02*
X012444Y008476D01*
X012602Y008634D02*
X012760Y008634D01*
X013277Y008360D02*
X013277Y008199D01*
X013458Y008199D01*
X013691Y007966D01*
X013691Y007766D01*
X013837Y007766D01*
X014217Y008145D01*
X014217Y009859D01*
X013988Y009631D01*
X013989Y009630D01*
X013989Y009447D01*
X013919Y009279D01*
X013790Y009150D01*
X013778Y009145D01*
X013790Y009140D01*
X013919Y009011D01*
X013989Y008842D01*
X013989Y008660D01*
X013919Y008491D01*
X013790Y008362D01*
X013622Y008293D01*
X013439Y008293D01*
X013277Y008360D01*
X013277Y008317D02*
X013379Y008317D01*
X013498Y008159D02*
X014217Y008159D01*
X014217Y008317D02*
X013682Y008317D01*
X013904Y008476D02*
X014217Y008476D01*
X014217Y008634D02*
X013978Y008634D01*
X013989Y008793D02*
X014217Y008793D01*
X014217Y008951D02*
X013943Y008951D01*
X013820Y009110D02*
X014217Y009110D01*
X014217Y009268D02*
X013909Y009268D01*
X013980Y009427D02*
X014217Y009427D01*
X014217Y009585D02*
X013989Y009585D01*
X014101Y009744D02*
X014217Y009744D01*
X013823Y010681D02*
X013790Y010714D01*
X013778Y010719D01*
X013790Y010725D01*
X013823Y010758D01*
X013823Y010681D01*
X013823Y010695D02*
X013809Y010695D01*
X013283Y010719D02*
X013277Y010722D01*
X013277Y010717D01*
X013283Y010719D01*
X013823Y011469D02*
X013790Y011502D01*
X013778Y011507D01*
X013790Y011512D01*
X013823Y011545D01*
X013823Y011469D01*
X013823Y011487D02*
X013804Y011487D01*
X013283Y011507D02*
X013277Y011509D01*
X013277Y011504D01*
X013283Y011507D01*
X013277Y012292D02*
X013277Y012297D01*
X013283Y012294D01*
X013277Y012292D01*
X013778Y012294D02*
X013790Y012289D01*
X013823Y012256D01*
X013823Y012332D01*
X013790Y012299D01*
X013778Y012294D01*
X013799Y012280D02*
X013823Y012280D01*
X012760Y012280D02*
X011820Y012280D01*
X011528Y011487D02*
X011477Y011487D01*
X010122Y012914D02*
X010042Y012914D01*
X009695Y012914D02*
X008861Y012914D01*
X008648Y012566D02*
X008648Y012527D01*
X009869Y012527D01*
X010794Y013609D02*
X010774Y013629D01*
X010774Y016818D01*
X010472Y016559D02*
X010049Y016559D01*
X010049Y016401D02*
X010516Y016401D01*
X010516Y016516D02*
X010516Y015828D01*
X010049Y016295D01*
X010049Y016933D01*
X010092Y016890D01*
X010378Y016890D01*
X010378Y016654D01*
X010516Y016516D01*
X010378Y016718D02*
X010049Y016718D01*
X010049Y016876D02*
X010378Y016876D01*
X010796Y017352D02*
X010949Y017352D01*
X010949Y017510D02*
X010796Y017510D01*
X010723Y017669D02*
X010949Y017669D01*
X010949Y017827D02*
X010564Y017827D01*
X010988Y019095D02*
X016721Y019095D01*
X017347Y019095D02*
X017840Y019095D01*
X017840Y018937D02*
X017578Y018937D01*
X017707Y018778D02*
X017840Y018778D01*
X017840Y018620D02*
X017772Y018620D01*
X017803Y018461D02*
X017840Y018461D01*
X017840Y018303D02*
X017803Y018303D01*
X017764Y018144D02*
X017840Y018144D01*
X017840Y017986D02*
X017698Y017986D01*
X017556Y017827D02*
X017840Y017827D01*
X017840Y017669D02*
X017296Y017669D01*
X017840Y017510D02*
X015639Y017510D01*
X015639Y017352D02*
X017840Y017352D01*
X017840Y017193D02*
X015639Y017193D01*
X015639Y017035D02*
X017840Y017035D01*
X017840Y016876D02*
X015639Y016876D01*
X015639Y016718D02*
X017840Y016718D01*
X017840Y016559D02*
X015639Y016559D01*
X015639Y016401D02*
X017840Y016401D01*
X017840Y016242D02*
X015639Y016242D01*
X015771Y016084D02*
X017840Y016084D01*
X017840Y015925D02*
X015930Y015925D01*
X016088Y015767D02*
X017840Y015767D01*
X017840Y015608D02*
X016247Y015608D01*
X016405Y015450D02*
X017840Y015450D01*
X017840Y015291D02*
X016564Y015291D01*
X016722Y015133D02*
X017840Y015133D01*
X017840Y014974D02*
X016881Y014974D01*
X017039Y014816D02*
X017840Y014816D01*
X017840Y014657D02*
X017198Y014657D01*
X017356Y014499D02*
X017840Y014499D01*
X017840Y014340D02*
X017500Y014340D01*
X017529Y014182D02*
X017840Y014182D01*
X017840Y014023D02*
X017529Y014023D01*
X017529Y013865D02*
X017840Y013865D01*
X017840Y013706D02*
X017529Y013706D01*
X017529Y013548D02*
X017840Y013548D01*
X017840Y013389D02*
X017529Y013389D01*
X017529Y013231D02*
X017840Y013231D01*
X017840Y013072D02*
X017529Y013072D01*
X017529Y012914D02*
X017840Y012914D01*
X017840Y012755D02*
X017529Y012755D01*
X017529Y012597D02*
X017840Y012597D01*
X017840Y012438D02*
X017529Y012438D01*
X017529Y012280D02*
X017840Y012280D01*
X017840Y012121D02*
X017529Y012121D01*
X017529Y011963D02*
X017840Y011963D01*
X017840Y011804D02*
X017529Y011804D01*
X017529Y011646D02*
X017840Y011646D01*
X017840Y011487D02*
X017529Y011487D01*
X017529Y011329D02*
X017840Y011329D01*
X017840Y011170D02*
X017529Y011170D01*
X017529Y011012D02*
X017840Y011012D01*
X017840Y010853D02*
X017529Y010853D01*
X017529Y010695D02*
X017840Y010695D01*
X017840Y010536D02*
X017529Y010536D01*
X017529Y010378D02*
X017840Y010378D01*
X017840Y010219D02*
X017529Y010219D01*
X017529Y010061D02*
X017840Y010061D01*
X017840Y009902D02*
X017529Y009902D01*
X017529Y009744D02*
X017840Y009744D01*
X017840Y009585D02*
X017529Y009585D01*
X017529Y009427D02*
X017840Y009427D01*
X017840Y009268D02*
X017529Y009268D01*
X017529Y009110D02*
X017840Y009110D01*
X017840Y008951D02*
X017529Y008951D01*
X017529Y008793D02*
X017840Y008793D01*
X017840Y008634D02*
X017529Y008634D01*
X017529Y008476D02*
X017840Y008476D01*
X017840Y008317D02*
X017529Y008317D01*
X017529Y008159D02*
X017840Y008159D01*
X017840Y008000D02*
X017529Y008000D01*
X017529Y007842D02*
X017840Y007842D01*
X017840Y007683D02*
X017529Y007683D01*
X017529Y007525D02*
X017840Y007525D01*
X017840Y007366D02*
X017529Y007366D01*
X017529Y007208D02*
X017840Y007208D01*
X017840Y007049D02*
X017529Y007049D01*
X017529Y006891D02*
X017840Y006891D01*
X017840Y006732D02*
X017529Y006732D01*
X017529Y006574D02*
X017840Y006574D01*
X017840Y006415D02*
X017529Y006415D01*
X017529Y006257D02*
X017840Y006257D01*
X017840Y006098D02*
X017529Y006098D01*
X017529Y005940D02*
X017840Y005940D01*
X017840Y005781D02*
X017529Y005781D01*
X017529Y005623D02*
X017840Y005623D01*
X017840Y005464D02*
X017529Y005464D01*
X017529Y005306D02*
X017840Y005306D01*
X017840Y005147D02*
X017529Y005147D01*
X017529Y004989D02*
X017840Y004989D01*
X017840Y004830D02*
X017529Y004830D01*
X017529Y004672D02*
X017840Y004672D01*
X017840Y004513D02*
X017529Y004513D01*
X017529Y004355D02*
X017840Y004355D01*
X017840Y004196D02*
X017529Y004196D01*
X017529Y004038D02*
X017840Y004038D01*
X017840Y003879D02*
X017491Y003879D01*
X017334Y003721D02*
X017840Y003721D01*
X017840Y003562D02*
X017176Y003562D01*
X017211Y003404D02*
X017840Y003404D01*
X017840Y003245D02*
X017521Y003245D01*
X017679Y003087D02*
X017840Y003087D01*
X017840Y002928D02*
X017749Y002928D01*
X017803Y002770D02*
X017840Y002770D01*
X017840Y002611D02*
X017803Y002611D01*
X017787Y002453D02*
X017840Y002453D01*
X017840Y002294D02*
X017722Y002294D01*
X017613Y002136D02*
X017840Y002136D01*
X017840Y001977D02*
X017433Y001977D01*
X016636Y001977D02*
X010395Y001977D01*
X010553Y002136D02*
X016456Y002136D01*
X016347Y002294D02*
X010659Y002294D01*
X010659Y002453D02*
X016281Y002453D01*
X016265Y002611D02*
X010659Y002611D01*
X010543Y002770D02*
X016265Y002770D01*
X016286Y003038D02*
X004711Y003038D01*
X003491Y004259D01*
X003491Y005479D01*
X002546Y006424D01*
X002034Y006424D01*
X001522Y006936D01*
X001522Y011660D01*
X001621Y011759D01*
X001264Y011963D02*
X001255Y011963D01*
X001337Y012121D02*
X001423Y012121D01*
X001343Y012438D02*
X002094Y012438D01*
X002310Y012094D02*
X002310Y008511D01*
X002428Y008393D01*
X003058Y007763D01*
X003058Y006897D01*
X003688Y006267D01*
X004790Y006267D01*
X005696Y007172D01*
X013609Y007172D01*
X014047Y007049D02*
X014905Y007049D01*
X014905Y006891D02*
X014374Y006891D01*
X014532Y006732D02*
X014905Y006732D01*
X014991Y006574D02*
X015064Y006574D01*
X015028Y006415D02*
X015794Y006415D01*
X015635Y006257D02*
X015028Y006257D01*
X015028Y006098D02*
X015477Y006098D01*
X015318Y005940D02*
X015028Y005940D01*
X015028Y005781D02*
X015160Y005781D01*
X015049Y005623D02*
X015028Y005623D01*
X015028Y005464D02*
X015044Y005464D01*
X015302Y005558D02*
X015302Y005282D01*
X014987Y004968D01*
X014200Y004968D01*
X012546Y003314D01*
X005381Y003314D01*
X004475Y004219D01*
X004254Y003879D02*
X004236Y003879D01*
X004096Y004038D02*
X004077Y004038D01*
X004079Y004196D02*
X003919Y004196D01*
X003760Y004355D02*
X004079Y004355D01*
X004208Y004513D02*
X003749Y004513D01*
X003749Y004672D02*
X006690Y004672D01*
X006598Y004513D02*
X004742Y004513D01*
X004872Y004355D02*
X006598Y004355D01*
X006654Y004196D02*
X004872Y004196D01*
X005022Y004038D02*
X006812Y004038D01*
X007391Y004389D02*
X007391Y004447D01*
X007574Y004630D01*
X007828Y004630D01*
X007616Y004419D01*
X007421Y004419D01*
X007391Y004389D01*
X007457Y004513D02*
X007711Y004513D01*
X007982Y004038D02*
X009716Y004038D01*
X009698Y003879D02*
X007982Y003879D01*
X007845Y003721D02*
X009737Y003721D01*
X009802Y004196D02*
X008125Y004196D01*
X007202Y004989D02*
X003749Y004989D01*
X003749Y005147D02*
X009336Y005147D01*
X009276Y005306D02*
X003749Y005306D01*
X003749Y005464D02*
X009276Y005464D01*
X009276Y005623D02*
X006400Y005623D01*
X006559Y005781D02*
X009276Y005781D01*
X009276Y005940D02*
X006604Y005940D01*
X006680Y006098D02*
X009276Y006098D01*
X009276Y006257D02*
X006839Y006257D01*
X006997Y006415D02*
X009276Y006415D01*
X010029Y006415D02*
X010276Y006415D01*
X010276Y006257D02*
X010029Y006257D01*
X010029Y006098D02*
X010276Y006098D01*
X010276Y005940D02*
X010029Y005940D01*
X010029Y005781D02*
X010276Y005781D01*
X010276Y005623D02*
X010029Y005623D01*
X010029Y005464D02*
X010276Y005464D01*
X010276Y005306D02*
X010029Y005306D01*
X009969Y005147D02*
X010336Y005147D01*
X010971Y004889D02*
X011444Y004416D01*
X012054Y004416D01*
X012652Y005015D01*
X012652Y005873D01*
X012277Y005940D02*
X012028Y005940D01*
X012028Y006098D02*
X012277Y006098D01*
X012277Y006257D02*
X012028Y006257D01*
X012028Y006415D02*
X012277Y006415D01*
X012277Y006520D02*
X012028Y006520D01*
X012028Y005209D01*
X011974Y005155D01*
X012037Y005092D01*
X012037Y004765D01*
X012379Y005107D01*
X012277Y005209D01*
X012277Y006520D01*
X011652Y005873D02*
X011652Y004940D01*
X011641Y004928D01*
X012037Y004989D02*
X012261Y004989D01*
X012338Y005147D02*
X011982Y005147D01*
X012028Y005306D02*
X012277Y005306D01*
X012277Y005464D02*
X012028Y005464D01*
X012028Y005623D02*
X012277Y005623D01*
X012277Y005781D02*
X012028Y005781D01*
X011277Y005940D02*
X011029Y005940D01*
X011029Y006098D02*
X011277Y006098D01*
X011277Y006257D02*
X011029Y006257D01*
X011029Y006415D02*
X011277Y006415D01*
X011719Y007566D02*
X005026Y007566D01*
X004160Y006700D01*
X003963Y006700D01*
X003752Y007049D02*
X003316Y007049D01*
X003316Y007208D02*
X003839Y007208D01*
X003744Y007366D02*
X003316Y007366D01*
X003316Y007525D02*
X003744Y007525D01*
X003796Y007683D02*
X003316Y007683D01*
X003305Y007842D02*
X003954Y007842D01*
X003990Y008000D02*
X003186Y008000D01*
X003027Y008159D02*
X003873Y008159D01*
X003862Y008317D02*
X002869Y008317D01*
X002824Y008476D02*
X003862Y008476D01*
X003862Y008634D02*
X002747Y008634D01*
X002568Y008793D02*
X003862Y008793D01*
X003862Y008951D02*
X002568Y008951D01*
X002568Y009110D02*
X003862Y009110D01*
X003862Y009268D02*
X002568Y009268D01*
X002568Y009427D02*
X003862Y009427D01*
X003862Y009585D02*
X002568Y009585D01*
X002568Y009744D02*
X003862Y009744D01*
X003862Y009902D02*
X002568Y009902D01*
X002568Y010061D02*
X003862Y010061D01*
X003862Y010219D02*
X002568Y010219D01*
X002568Y010378D02*
X003862Y010378D01*
X003862Y010536D02*
X002568Y010536D01*
X002568Y010695D02*
X003862Y010695D01*
X003862Y010853D02*
X002568Y010853D01*
X002568Y011012D02*
X003862Y011012D01*
X003862Y011170D02*
X002568Y011170D01*
X002568Y011329D02*
X003862Y011329D01*
X003862Y011487D02*
X002568Y011487D01*
X002568Y011646D02*
X003862Y011646D01*
X003862Y011804D02*
X003632Y011804D01*
X003393Y011804D02*
X003353Y011804D01*
X003353Y011963D02*
X003393Y011963D01*
X003393Y012121D02*
X003353Y012121D01*
X003353Y012280D02*
X002684Y012280D01*
X002706Y012121D02*
X002850Y012121D01*
X002931Y011963D02*
X002706Y011963D01*
X002582Y011804D02*
X003115Y011804D01*
X003373Y012290D02*
X002979Y012684D01*
X001207Y012684D01*
X000813Y012290D01*
X000793Y012438D02*
X000833Y012438D01*
X000833Y012597D02*
X000793Y012597D01*
X000793Y012755D02*
X000833Y012755D01*
X001109Y012755D02*
X003078Y012755D01*
X002916Y012597D02*
X001270Y012597D01*
X000518Y012755D02*
X000480Y012755D01*
X000480Y012914D02*
X003862Y012914D01*
X003862Y013072D02*
X000480Y013072D01*
X000480Y013231D02*
X003862Y013231D01*
X003862Y013389D02*
X000480Y013389D01*
X000480Y013548D02*
X000641Y013548D01*
X000986Y013548D02*
X003201Y013548D01*
X003168Y013865D02*
X003373Y014070D01*
X003168Y013865D02*
X001018Y013865D01*
X000813Y014070D01*
X001160Y014499D02*
X001756Y014499D01*
X001756Y014657D02*
X000480Y014657D01*
X000480Y014816D02*
X001912Y014816D01*
X002209Y014974D02*
X000480Y014974D01*
X000480Y015133D02*
X002209Y015133D01*
X002209Y015291D02*
X000480Y015291D01*
X000480Y015450D02*
X002209Y015450D01*
X002209Y015608D02*
X000480Y015608D01*
X000480Y015767D02*
X002209Y015767D01*
X002209Y015925D02*
X000480Y015925D01*
X000480Y016084D02*
X002209Y016084D01*
X002209Y016242D02*
X000480Y016242D01*
X000480Y016401D02*
X002209Y016401D01*
X002209Y016559D02*
X000480Y016559D01*
X000480Y016718D02*
X002209Y016718D01*
X002209Y016876D02*
X000480Y016876D01*
X000480Y017035D02*
X002209Y017035D01*
X002209Y017193D02*
X000480Y017193D01*
X000480Y017352D02*
X002209Y017352D01*
X002209Y017510D02*
X000480Y017510D01*
X000480Y017669D02*
X001024Y017669D01*
X000764Y017827D02*
X000480Y017827D01*
X000480Y017986D02*
X000622Y017986D01*
X000557Y018144D02*
X000480Y018144D01*
X000480Y018303D02*
X000517Y018303D01*
X000517Y018461D02*
X000480Y018461D01*
X000480Y018620D02*
X000548Y018620D01*
X000614Y018778D02*
X000480Y018778D01*
X000480Y018937D02*
X000743Y018937D01*
X000973Y019095D02*
X000480Y019095D01*
X001599Y019095D02*
X009104Y019095D01*
X010101Y016242D02*
X010516Y016242D01*
X010516Y016084D02*
X010260Y016084D01*
X010418Y015925D02*
X010516Y015925D01*
X011820Y017035D02*
X011907Y017035D01*
X013057Y016876D02*
X013658Y016876D01*
X013784Y017035D02*
X013304Y017035D01*
X013395Y017193D02*
X013774Y017193D01*
X013615Y017352D02*
X013424Y017352D01*
X013403Y017510D02*
X013457Y017510D01*
X013140Y017827D02*
X013102Y017827D01*
X013553Y018144D02*
X015068Y018144D01*
X015122Y017986D02*
X013712Y017986D01*
X013870Y017827D02*
X015122Y017827D01*
X015122Y017669D02*
X014029Y017669D01*
X014187Y017510D02*
X015122Y017510D01*
X015122Y017352D02*
X014296Y017352D01*
X014301Y017193D02*
X015122Y017193D01*
X015122Y017035D02*
X014301Y017035D01*
X014426Y016876D02*
X015122Y016876D01*
X015122Y016718D02*
X014439Y016718D01*
X014704Y016559D02*
X015122Y016559D01*
X015122Y016401D02*
X014862Y016401D01*
X013823Y015482D02*
X013823Y015406D01*
X013790Y015439D01*
X013778Y015444D01*
X013790Y015449D01*
X013823Y015482D01*
X013823Y015450D02*
X013791Y015450D01*
X015639Y017669D02*
X016772Y017669D01*
X016512Y017827D02*
X015639Y017827D01*
X015639Y017986D02*
X016370Y017986D01*
X015206Y018778D02*
X013213Y018778D01*
X013357Y018620D02*
X015047Y018620D01*
X014984Y018461D02*
X013423Y018461D01*
X013424Y018303D02*
X014984Y018303D01*
X007932Y014182D02*
X006650Y014182D01*
X006808Y014023D02*
X007779Y014023D01*
X007779Y013865D02*
X006967Y013865D01*
X007125Y013706D02*
X007779Y013706D01*
X007918Y013548D02*
X007284Y013548D01*
X007442Y013389D02*
X007918Y013389D01*
X006812Y011487D02*
X006466Y011487D01*
X006466Y011329D02*
X006654Y011329D01*
X006598Y011170D02*
X006512Y011170D01*
X006207Y011109D02*
X006207Y012251D01*
X005162Y012256D02*
X005129Y012289D01*
X005116Y012294D01*
X005129Y012299D01*
X005162Y012332D01*
X005162Y012256D01*
X005162Y012280D02*
X005138Y012280D01*
X005162Y011545D02*
X005129Y011512D01*
X005116Y011507D01*
X005129Y011502D01*
X005162Y011469D01*
X005162Y011545D01*
X005162Y011487D02*
X005143Y011487D01*
X005162Y010758D02*
X005129Y010725D01*
X005116Y010719D01*
X005129Y010714D01*
X005162Y010681D01*
X005162Y010758D01*
X005162Y010695D02*
X005148Y010695D01*
X005420Y010322D02*
X007231Y008511D01*
X007389Y008511D01*
X007389Y008353D01*
X007389Y008511D02*
X007428Y008511D01*
X007597Y008159D02*
X007731Y008159D01*
X007940Y008511D02*
X008019Y008511D01*
X007180Y008159D02*
X004563Y008159D01*
X004515Y007842D02*
X004141Y007468D01*
X004396Y007723D01*
X004563Y007525D02*
X004620Y007525D01*
X004622Y007583D02*
X004678Y007583D01*
X004537Y007442D01*
X004537Y007499D01*
X004622Y007583D01*
X005034Y007208D02*
X005366Y007208D01*
X005465Y007308D02*
X004683Y006525D01*
X004351Y006525D01*
X004379Y006553D01*
X005133Y007308D01*
X005465Y007308D01*
X005207Y007049D02*
X004875Y007049D01*
X004717Y006891D02*
X005049Y006891D01*
X004890Y006732D02*
X004558Y006732D01*
X004400Y006574D02*
X004732Y006574D01*
X005146Y006257D02*
X005912Y006257D01*
X005811Y006098D02*
X004987Y006098D01*
X005304Y006415D02*
X006266Y006415D01*
X006425Y006574D02*
X005463Y006574D01*
X005621Y006732D02*
X006583Y006732D01*
X006742Y006891D02*
X005780Y006891D01*
X005811Y005940D02*
X003396Y005940D01*
X003491Y006098D02*
X003237Y006098D01*
X003332Y006257D02*
X003079Y006257D01*
X003174Y006415D02*
X002920Y006415D01*
X003015Y006574D02*
X002762Y006574D01*
X002857Y006732D02*
X002302Y006732D01*
X002453Y006891D02*
X002799Y006891D01*
X002799Y007049D02*
X002513Y007049D01*
X002522Y007208D02*
X002799Y007208D01*
X002799Y007366D02*
X002522Y007366D01*
X002522Y007525D02*
X002799Y007525D01*
X002772Y007683D02*
X002522Y007683D01*
X002520Y007842D02*
X002613Y007842D01*
X003429Y006891D02*
X003594Y006891D01*
X004153Y007071D02*
X004166Y007071D01*
X004159Y007065D01*
X004153Y007071D01*
X003554Y005781D02*
X005856Y005781D01*
X006015Y005623D02*
X003711Y005623D01*
X003233Y005306D02*
X002628Y005306D01*
X002685Y005168D02*
X002562Y005465D01*
X002335Y005692D01*
X002038Y005815D01*
X001716Y005815D01*
X001419Y005692D01*
X001191Y005465D01*
X001068Y005168D01*
X001068Y004846D01*
X001191Y004549D01*
X001419Y004322D01*
X001716Y004199D01*
X002038Y004199D01*
X002335Y004322D01*
X002562Y004549D01*
X002685Y004846D01*
X002685Y005168D01*
X002685Y005147D02*
X003233Y005147D01*
X003233Y004989D02*
X002685Y004989D01*
X002679Y004830D02*
X003233Y004830D01*
X003233Y004672D02*
X002613Y004672D01*
X002526Y004513D02*
X003233Y004513D01*
X003233Y004355D02*
X002368Y004355D01*
X003237Y004196D02*
X000480Y004196D01*
X000480Y004038D02*
X003346Y004038D01*
X003505Y003879D02*
X000480Y003879D01*
X000480Y003721D02*
X003663Y003721D01*
X003822Y003562D02*
X000480Y003562D01*
X000480Y003404D02*
X001110Y003404D01*
X001133Y003414D02*
X000851Y003297D01*
X000634Y003080D01*
X000517Y002798D01*
X000517Y002492D01*
X000634Y002209D01*
X000851Y001993D01*
X001133Y001876D01*
X001439Y001876D01*
X001722Y001993D01*
X001938Y002209D01*
X002055Y002492D01*
X002055Y002798D01*
X001938Y003080D01*
X001722Y003297D01*
X001439Y003414D01*
X001133Y003414D01*
X001463Y003404D02*
X003980Y003404D01*
X004139Y003245D02*
X001773Y003245D01*
X001931Y003087D02*
X004297Y003087D01*
X004456Y002928D02*
X002001Y002928D01*
X002055Y002770D02*
X007777Y002770D01*
X007662Y002611D02*
X002055Y002611D01*
X002039Y002453D02*
X007662Y002453D01*
X007662Y002294D02*
X001973Y002294D01*
X001865Y002136D02*
X007767Y002136D01*
X007926Y001977D02*
X001685Y001977D01*
X000888Y001977D02*
X000480Y001977D01*
X000480Y002136D02*
X000707Y002136D01*
X000599Y002294D02*
X000480Y002294D01*
X000480Y002453D02*
X000533Y002453D01*
X000517Y002611D02*
X000480Y002611D01*
X000480Y002770D02*
X000517Y002770D01*
X000480Y002928D02*
X000571Y002928D01*
X000641Y003087D02*
X000480Y003087D01*
X000480Y003245D02*
X000799Y003245D01*
X000480Y004355D02*
X001386Y004355D01*
X001227Y004513D02*
X000480Y004513D01*
X000480Y004672D02*
X001141Y004672D01*
X001075Y004830D02*
X000480Y004830D01*
X000480Y004989D02*
X001068Y004989D01*
X001068Y005147D02*
X000480Y005147D01*
X000480Y005306D02*
X001126Y005306D01*
X001191Y005464D02*
X000480Y005464D01*
X000480Y005623D02*
X001350Y005623D01*
X001634Y005781D02*
X000480Y005781D01*
X000480Y005940D02*
X002665Y005940D01*
X002823Y005781D02*
X002119Y005781D01*
X002404Y005623D02*
X002982Y005623D01*
X003140Y005464D02*
X002562Y005464D01*
X002506Y006098D02*
X000480Y006098D01*
X000480Y006257D02*
X001836Y006257D01*
X001678Y006415D02*
X000480Y006415D01*
X000480Y006574D02*
X001519Y006574D01*
X001361Y006732D02*
X001312Y006732D01*
X000733Y006732D02*
X000480Y006732D01*
X000480Y006891D02*
X000589Y006891D01*
X000524Y007049D02*
X000480Y007049D01*
X000480Y007208D02*
X000524Y007208D01*
X000524Y007366D02*
X000480Y007366D01*
X000480Y007525D02*
X000524Y007525D01*
X000524Y007683D02*
X000480Y007683D01*
X000480Y007842D02*
X000524Y007842D01*
X000480Y008000D02*
X000571Y008000D01*
X000480Y008159D02*
X000689Y008159D01*
X000480Y008317D02*
X001264Y008317D01*
X001264Y008476D02*
X000480Y008476D01*
X000480Y008634D02*
X001264Y008634D01*
X001264Y008793D02*
X000480Y008793D01*
X000480Y008951D02*
X001264Y008951D01*
X001264Y009110D02*
X000480Y009110D01*
X000480Y009268D02*
X001264Y009268D01*
X001264Y009427D02*
X000480Y009427D01*
X000480Y009585D02*
X001264Y009585D01*
X001264Y009744D02*
X000480Y009744D01*
X000480Y009902D02*
X001264Y009902D01*
X001264Y010061D02*
X000480Y010061D01*
X000480Y010219D02*
X001264Y010219D01*
X001264Y010378D02*
X000480Y010378D01*
X000480Y010536D02*
X001264Y010536D01*
X001264Y010695D02*
X000480Y010695D01*
X000480Y010853D02*
X001264Y010853D01*
X001264Y011012D02*
X000480Y011012D01*
X000480Y011170D02*
X001264Y011170D01*
X001264Y011329D02*
X000480Y011329D01*
X000480Y011487D02*
X001264Y011487D01*
X002526Y012438D02*
X002843Y012438D01*
X003353Y012438D02*
X003393Y012438D01*
X003393Y012597D02*
X003353Y012597D01*
X003353Y012755D02*
X003393Y012755D01*
X003669Y012755D02*
X003862Y012755D01*
X003862Y012597D02*
X003830Y012597D01*
X003815Y011963D02*
X003862Y011963D01*
X005116Y013082D02*
X005129Y013087D01*
X005162Y013120D01*
X005162Y013044D01*
X005129Y013077D01*
X005116Y013082D01*
X005133Y013072D02*
X005162Y013072D01*
X005814Y014105D02*
X005814Y010716D01*
X006995Y009534D01*
X006598Y009509D02*
X005679Y010429D01*
X005679Y010485D01*
X006598Y009566D01*
X006598Y009509D01*
X006578Y009585D02*
X006522Y009585D01*
X006420Y009744D02*
X006363Y009744D01*
X006261Y009902D02*
X006205Y009902D01*
X006103Y010061D02*
X006046Y010061D01*
X005944Y010219D02*
X005888Y010219D01*
X005786Y010378D02*
X005729Y010378D01*
X006072Y010823D02*
X006072Y010879D01*
X006598Y010353D01*
X006598Y010296D01*
X006072Y010823D01*
X006072Y010853D02*
X006098Y010853D01*
X006200Y010695D02*
X006256Y010695D01*
X006358Y010536D02*
X006415Y010536D01*
X006517Y010378D02*
X006573Y010378D01*
X006995Y010322D02*
X006207Y011109D01*
X004869Y008634D02*
X004869Y008634D01*
X004869Y008476D02*
X004869Y008476D01*
X006995Y006779D02*
X014121Y006779D01*
X014652Y006247D01*
X014652Y005873D01*
X014277Y005940D02*
X014028Y005940D01*
X014028Y006098D02*
X014277Y006098D01*
X014277Y006257D02*
X014277Y005226D01*
X014148Y005226D01*
X014053Y005187D01*
X013981Y005114D01*
X012439Y003572D01*
X010462Y003572D01*
X010537Y003647D01*
X010606Y003814D01*
X010606Y003995D01*
X010537Y004162D01*
X010410Y004289D01*
X010347Y004315D01*
X010628Y004315D01*
X011067Y003876D01*
X011140Y003804D01*
X011235Y003764D01*
X012440Y003764D01*
X012535Y003804D01*
X012608Y003876D01*
X013835Y005104D01*
X013923Y005104D01*
X014028Y005209D01*
X014028Y006506D01*
X014277Y006257D01*
X014028Y006257D01*
X014028Y006415D02*
X014119Y006415D01*
X014028Y005781D02*
X014277Y005781D01*
X014277Y005623D02*
X014028Y005623D01*
X014028Y005464D02*
X014277Y005464D01*
X014277Y005306D02*
X014028Y005306D01*
X014014Y005147D02*
X013967Y005147D01*
X013856Y004989D02*
X013720Y004989D01*
X013697Y004830D02*
X013562Y004830D01*
X013539Y004672D02*
X013403Y004672D01*
X013380Y004513D02*
X013245Y004513D01*
X013222Y004355D02*
X013086Y004355D01*
X013063Y004196D02*
X012928Y004196D01*
X012905Y004038D02*
X012769Y004038D01*
X012746Y003879D02*
X012611Y003879D01*
X012588Y003721D02*
X010568Y003721D01*
X010606Y003879D02*
X011064Y003879D01*
X010905Y004038D02*
X010589Y004038D01*
X010503Y004196D02*
X010747Y004196D01*
X012037Y004830D02*
X012103Y004830D01*
X012911Y004989D02*
X012989Y004989D01*
X012967Y005147D02*
X013148Y005147D01*
X013028Y005306D02*
X013277Y005306D01*
X013277Y005464D02*
X013028Y005464D01*
X013028Y005623D02*
X013277Y005623D01*
X013277Y005781D02*
X013028Y005781D01*
X014111Y004513D02*
X015794Y004513D01*
X015707Y004672D02*
X014269Y004672D01*
X014243Y004359D02*
X014062Y004359D01*
X013895Y004289D01*
X013767Y004162D01*
X013698Y003995D01*
X013698Y003814D01*
X013767Y003647D01*
X013895Y003520D01*
X014062Y003451D01*
X014243Y003451D01*
X014410Y003520D01*
X014537Y003647D01*
X014606Y003814D01*
X014606Y003995D01*
X014537Y004162D01*
X014410Y004289D01*
X014243Y004359D01*
X014251Y004355D02*
X015952Y004355D01*
X015642Y004830D02*
X015215Y004830D01*
X015374Y004989D02*
X015635Y004989D01*
X015635Y005147D02*
X015526Y005147D01*
X015560Y005306D02*
X015693Y005306D01*
X015758Y005464D02*
X015574Y005464D01*
X015732Y005623D02*
X015917Y005623D01*
X015891Y005781D02*
X016201Y005781D01*
X016049Y005940D02*
X017012Y005940D01*
X017012Y006098D02*
X016208Y006098D01*
X016366Y006257D02*
X017012Y006257D01*
X017012Y006415D02*
X016525Y006415D01*
X016879Y006574D02*
X017012Y006574D01*
X016998Y006732D02*
X017012Y006732D01*
X016998Y006891D02*
X017012Y006891D01*
X017012Y007049D02*
X016970Y007049D01*
X017012Y007208D02*
X016811Y007208D01*
X017012Y007366D02*
X016137Y007366D01*
X015979Y007208D02*
X016391Y007208D01*
X016233Y007049D02*
X015820Y007049D01*
X015699Y006891D02*
X016205Y006891D01*
X016111Y006732D02*
X015699Y006732D01*
X015540Y006574D02*
X015952Y006574D01*
X015302Y006897D02*
X016365Y007960D01*
X017270Y007960D01*
X017270Y004023D01*
X016286Y003038D01*
X016286Y003404D02*
X013001Y003404D01*
X013160Y003562D02*
X013852Y003562D01*
X013737Y003721D02*
X013318Y003721D01*
X013477Y003879D02*
X013698Y003879D01*
X013716Y004038D02*
X013635Y004038D01*
X013794Y004196D02*
X013802Y004196D01*
X013952Y004355D02*
X014053Y004355D01*
X014503Y004196D02*
X017012Y004196D01*
X017012Y004355D02*
X016935Y004355D01*
X016920Y004038D02*
X014589Y004038D01*
X014606Y003879D02*
X016762Y003879D01*
X016603Y003721D02*
X014568Y003721D01*
X014452Y003562D02*
X016445Y003562D01*
X016971Y005623D02*
X017012Y005623D01*
X017012Y005781D02*
X016686Y005781D01*
X016601Y006857D02*
X015302Y005558D01*
X015052Y007208D02*
X014202Y007208D01*
X014202Y007366D02*
X015406Y007366D01*
X015565Y007525D02*
X014327Y007525D01*
X014486Y007683D02*
X015723Y007683D01*
X015882Y007842D02*
X014644Y007842D01*
X014734Y008000D02*
X016040Y008000D01*
X016199Y008159D02*
X014734Y008159D01*
X014072Y008000D02*
X013657Y008000D01*
X013691Y007842D02*
X013913Y007842D01*
X013283Y009145D02*
X013277Y009147D01*
X013277Y009142D01*
X013283Y009145D01*
X016296Y007525D02*
X017012Y007525D01*
X017012Y007683D02*
X016454Y007683D01*
X009777Y002770D02*
X009545Y002770D01*
X009660Y002611D02*
X009662Y002611D01*
X009662Y002453D02*
X009180Y002453D01*
X009140Y002453D02*
X008659Y002453D01*
X008659Y002611D02*
X008660Y002611D01*
X008775Y002770D02*
X008543Y002770D01*
X008659Y002294D02*
X008660Y002294D01*
X008765Y002136D02*
X008553Y002136D01*
X008395Y001977D02*
X008924Y001977D01*
X009140Y001977D02*
X009180Y001977D01*
X009180Y002136D02*
X009140Y002136D01*
X009140Y002294D02*
X009180Y002294D01*
X009397Y001977D02*
X009926Y001977D01*
X009767Y002136D02*
X009555Y002136D01*
X009660Y002294D02*
X009662Y002294D01*
X007044Y004830D02*
X003749Y004830D01*
X004394Y003721D02*
X004608Y003721D01*
X004553Y003562D02*
X004767Y003562D01*
X004711Y003404D02*
X004925Y003404D01*
X006207Y005991D02*
X006995Y006779D01*
X003862Y013548D02*
X003546Y013548D01*
X003785Y013706D02*
X003862Y013706D01*
X003040Y014974D02*
X002726Y014974D01*
X002726Y015133D02*
X002881Y015133D01*
X002754Y015260D02*
X002754Y015260D01*
X001756Y014340D02*
X001295Y014340D01*
X001361Y014182D02*
X001905Y014182D01*
X002209Y017669D02*
X001548Y017669D01*
X001808Y017827D02*
X002209Y017827D01*
X002231Y017986D02*
X001950Y017986D01*
X002016Y018144D02*
X002365Y018144D01*
X002524Y018303D02*
X002055Y018303D01*
X002055Y018461D02*
X002682Y018461D01*
X002779Y018620D02*
X002024Y018620D01*
X005617Y017094D02*
X005617Y015716D01*
M02*
