%
M48
M72
T01C0.0236
T02C0.0276
T03C0.0400
T04C0.0551
T05C0.1181
T06C0.1260
%
T01
X4475Y4219
X5263Y5440
X6207Y5991
X6995Y4416
X7585Y4023
X9081Y5558
X11641Y4928
X13806Y7369
X13294Y7802
X11719Y7566
X11326Y8511
X10381Y9377
X10263Y10046
X9790Y10637
X10381Y11070
X11168Y11739
X11837Y11739
X12625Y11109
X12152Y10834
X11995Y12802
X12507Y13235
X10794Y13609
X9869Y12527
X8648Y12566
X8176Y13865
X8570Y14653
X7743Y14771
X7861Y16031
X6995Y17133
X5617Y17094
X5184Y16621
X5617Y15716
X4121Y15086
X2152Y14495
X2310Y12094
X1621Y11759
X2428Y8393
X3963Y6700
X4141Y7468
X6995Y9534
X6995Y10322
X6995Y11109
X6877Y12920
X9003Y11031
X9003Y9771
X8767Y9259
X7940Y8511
X7389Y8511
X14475Y16227
X14042Y16700
X15381Y18393
X11719Y17881
X10774Y16818
X3176Y18511
X2900Y17723
X15302Y6897
X16601Y6857
T02
X13530Y8751
X13530Y9538
X13530Y10326
X13530Y11113
X13530Y11901
X13530Y12688
X13530Y13475
X13530Y14263
X13530Y15050
X13530Y15838
X4869Y15838
X4869Y15050
X4869Y14263
X4869Y13475
X4869Y12688
X4869Y11901
X4869Y11113
X4869Y10326
X4869Y9538
X4869Y8751
T03
X2022Y7468
X1022Y7468
X813Y12290
X813Y14070
X3373Y14070
X3373Y12290
X8298Y17389
X8298Y18389
X9298Y18389
X10298Y18389
X10298Y17389
X9298Y17389
X12605Y17361
X12605Y18361
X10160Y2448
X9160Y2448
X8160Y2448
T04
X10152Y3905
X14152Y3905
T05
X1286Y2645
X1286Y18393
X17034Y18393
X17034Y2645
T06
X16444Y5007
X1877Y5007
M30
