G75*
G70*
%OFA0B0*%
%FSLAX24Y24*%
%IPPOS*%
%LPD*%
%AMOC8*
5,1,8,0,0,1.08239X$1,22.5*
%
%ADD10C,0.0000*%
%ADD11C,0.0560*%
%ADD12R,0.0560X0.0560*%
%ADD13R,0.0787X0.0433*%
%ADD14R,0.0472X0.0472*%
%ADD15R,0.0197X0.0984*%
%ADD16R,0.0787X0.0984*%
%ADD17C,0.0740*%
%ADD18R,0.1000X0.0500*%
%ADD19OC8,0.0397*%
%ADD20C,0.0120*%
D10*
X000160Y000420D02*
X000160Y011838D01*
X022601Y011838D01*
X022601Y000420D01*
X000160Y000420D01*
X000396Y001995D02*
X000398Y002045D01*
X000404Y002095D01*
X000414Y002144D01*
X000428Y002192D01*
X000445Y002239D01*
X000466Y002284D01*
X000491Y002328D01*
X000519Y002369D01*
X000551Y002408D01*
X000585Y002445D01*
X000622Y002479D01*
X000662Y002509D01*
X000704Y002536D01*
X000748Y002560D01*
X000794Y002581D01*
X000841Y002597D01*
X000889Y002610D01*
X000939Y002619D01*
X000988Y002624D01*
X001039Y002625D01*
X001089Y002622D01*
X001138Y002615D01*
X001187Y002604D01*
X001235Y002589D01*
X001281Y002571D01*
X001326Y002549D01*
X001369Y002523D01*
X001410Y002494D01*
X001449Y002462D01*
X001485Y002427D01*
X001517Y002389D01*
X001547Y002349D01*
X001574Y002306D01*
X001597Y002262D01*
X001616Y002216D01*
X001632Y002168D01*
X001644Y002119D01*
X001652Y002070D01*
X001656Y002020D01*
X001656Y001970D01*
X001652Y001920D01*
X001644Y001871D01*
X001632Y001822D01*
X001616Y001774D01*
X001597Y001728D01*
X001574Y001684D01*
X001547Y001641D01*
X001517Y001601D01*
X001485Y001563D01*
X001449Y001528D01*
X001410Y001496D01*
X001369Y001467D01*
X001326Y001441D01*
X001281Y001419D01*
X001235Y001401D01*
X001187Y001386D01*
X001138Y001375D01*
X001089Y001368D01*
X001039Y001365D01*
X000988Y001366D01*
X000939Y001371D01*
X000889Y001380D01*
X000841Y001393D01*
X000794Y001409D01*
X000748Y001430D01*
X000704Y001454D01*
X000662Y001481D01*
X000622Y001511D01*
X000585Y001545D01*
X000551Y001582D01*
X000519Y001621D01*
X000491Y001662D01*
X000466Y001706D01*
X000445Y001751D01*
X000428Y001798D01*
X000414Y001846D01*
X000404Y001895D01*
X000398Y001945D01*
X000396Y001995D01*
X003467Y005007D02*
X003469Y005057D01*
X003475Y005107D01*
X003485Y005156D01*
X003499Y005204D01*
X003516Y005251D01*
X003537Y005296D01*
X003562Y005340D01*
X003590Y005381D01*
X003622Y005420D01*
X003656Y005457D01*
X003693Y005491D01*
X003733Y005521D01*
X003775Y005548D01*
X003819Y005572D01*
X003865Y005593D01*
X003912Y005609D01*
X003960Y005622D01*
X004010Y005631D01*
X004059Y005636D01*
X004110Y005637D01*
X004160Y005634D01*
X004209Y005627D01*
X004258Y005616D01*
X004306Y005601D01*
X004352Y005583D01*
X004397Y005561D01*
X004440Y005535D01*
X004481Y005506D01*
X004520Y005474D01*
X004556Y005439D01*
X004588Y005401D01*
X004618Y005361D01*
X004645Y005318D01*
X004668Y005274D01*
X004687Y005228D01*
X004703Y005180D01*
X004715Y005131D01*
X004723Y005082D01*
X004727Y005032D01*
X004727Y004982D01*
X004723Y004932D01*
X004715Y004883D01*
X004703Y004834D01*
X004687Y004786D01*
X004668Y004740D01*
X004645Y004696D01*
X004618Y004653D01*
X004588Y004613D01*
X004556Y004575D01*
X004520Y004540D01*
X004481Y004508D01*
X004440Y004479D01*
X004397Y004453D01*
X004352Y004431D01*
X004306Y004413D01*
X004258Y004398D01*
X004209Y004387D01*
X004160Y004380D01*
X004110Y004377D01*
X004059Y004378D01*
X004010Y004383D01*
X003960Y004392D01*
X003912Y004405D01*
X003865Y004421D01*
X003819Y004442D01*
X003775Y004466D01*
X003733Y004493D01*
X003693Y004523D01*
X003656Y004557D01*
X003622Y004594D01*
X003590Y004633D01*
X003562Y004674D01*
X003537Y004718D01*
X003516Y004763D01*
X003499Y004810D01*
X003485Y004858D01*
X003475Y004907D01*
X003469Y004957D01*
X003467Y005007D01*
X005967Y009475D02*
X005969Y009501D01*
X005975Y009527D01*
X005985Y009552D01*
X005998Y009575D01*
X006014Y009595D01*
X006034Y009613D01*
X006056Y009628D01*
X006079Y009640D01*
X006105Y009648D01*
X006131Y009652D01*
X006157Y009652D01*
X006183Y009648D01*
X006209Y009640D01*
X006233Y009628D01*
X006254Y009613D01*
X006274Y009595D01*
X006290Y009575D01*
X006303Y009552D01*
X006313Y009527D01*
X006319Y009501D01*
X006321Y009475D01*
X006319Y009449D01*
X006313Y009423D01*
X006303Y009398D01*
X006290Y009375D01*
X006274Y009355D01*
X006254Y009337D01*
X006232Y009322D01*
X006209Y009310D01*
X006183Y009302D01*
X006157Y009298D01*
X006131Y009298D01*
X006105Y009302D01*
X006079Y009310D01*
X006055Y009322D01*
X006034Y009337D01*
X006014Y009355D01*
X005998Y009375D01*
X005985Y009398D01*
X005975Y009423D01*
X005969Y009449D01*
X005967Y009475D01*
X007700Y009475D02*
X007702Y009501D01*
X007708Y009527D01*
X007718Y009552D01*
X007731Y009575D01*
X007747Y009595D01*
X007767Y009613D01*
X007789Y009628D01*
X007812Y009640D01*
X007838Y009648D01*
X007864Y009652D01*
X007890Y009652D01*
X007916Y009648D01*
X007942Y009640D01*
X007966Y009628D01*
X007987Y009613D01*
X008007Y009595D01*
X008023Y009575D01*
X008036Y009552D01*
X008046Y009527D01*
X008052Y009501D01*
X008054Y009475D01*
X008052Y009449D01*
X008046Y009423D01*
X008036Y009398D01*
X008023Y009375D01*
X008007Y009355D01*
X007987Y009337D01*
X007965Y009322D01*
X007942Y009310D01*
X007916Y009302D01*
X007890Y009298D01*
X007864Y009298D01*
X007838Y009302D01*
X007812Y009310D01*
X007788Y009322D01*
X007767Y009337D01*
X007747Y009355D01*
X007731Y009375D01*
X007718Y009398D01*
X007708Y009423D01*
X007702Y009449D01*
X007700Y009475D01*
X000396Y010263D02*
X000398Y010313D01*
X000404Y010363D01*
X000414Y010412D01*
X000428Y010460D01*
X000445Y010507D01*
X000466Y010552D01*
X000491Y010596D01*
X000519Y010637D01*
X000551Y010676D01*
X000585Y010713D01*
X000622Y010747D01*
X000662Y010777D01*
X000704Y010804D01*
X000748Y010828D01*
X000794Y010849D01*
X000841Y010865D01*
X000889Y010878D01*
X000939Y010887D01*
X000988Y010892D01*
X001039Y010893D01*
X001089Y010890D01*
X001138Y010883D01*
X001187Y010872D01*
X001235Y010857D01*
X001281Y010839D01*
X001326Y010817D01*
X001369Y010791D01*
X001410Y010762D01*
X001449Y010730D01*
X001485Y010695D01*
X001517Y010657D01*
X001547Y010617D01*
X001574Y010574D01*
X001597Y010530D01*
X001616Y010484D01*
X001632Y010436D01*
X001644Y010387D01*
X001652Y010338D01*
X001656Y010288D01*
X001656Y010238D01*
X001652Y010188D01*
X001644Y010139D01*
X001632Y010090D01*
X001616Y010042D01*
X001597Y009996D01*
X001574Y009952D01*
X001547Y009909D01*
X001517Y009869D01*
X001485Y009831D01*
X001449Y009796D01*
X001410Y009764D01*
X001369Y009735D01*
X001326Y009709D01*
X001281Y009687D01*
X001235Y009669D01*
X001187Y009654D01*
X001138Y009643D01*
X001089Y009636D01*
X001039Y009633D01*
X000988Y009634D01*
X000939Y009639D01*
X000889Y009648D01*
X000841Y009661D01*
X000794Y009677D01*
X000748Y009698D01*
X000704Y009722D01*
X000662Y009749D01*
X000622Y009779D01*
X000585Y009813D01*
X000551Y009850D01*
X000519Y009889D01*
X000491Y009930D01*
X000466Y009974D01*
X000445Y010019D01*
X000428Y010066D01*
X000414Y010114D01*
X000404Y010163D01*
X000398Y010213D01*
X000396Y010263D01*
X018034Y005007D02*
X018036Y005057D01*
X018042Y005107D01*
X018052Y005156D01*
X018066Y005204D01*
X018083Y005251D01*
X018104Y005296D01*
X018129Y005340D01*
X018157Y005381D01*
X018189Y005420D01*
X018223Y005457D01*
X018260Y005491D01*
X018300Y005521D01*
X018342Y005548D01*
X018386Y005572D01*
X018432Y005593D01*
X018479Y005609D01*
X018527Y005622D01*
X018577Y005631D01*
X018626Y005636D01*
X018677Y005637D01*
X018727Y005634D01*
X018776Y005627D01*
X018825Y005616D01*
X018873Y005601D01*
X018919Y005583D01*
X018964Y005561D01*
X019007Y005535D01*
X019048Y005506D01*
X019087Y005474D01*
X019123Y005439D01*
X019155Y005401D01*
X019185Y005361D01*
X019212Y005318D01*
X019235Y005274D01*
X019254Y005228D01*
X019270Y005180D01*
X019282Y005131D01*
X019290Y005082D01*
X019294Y005032D01*
X019294Y004982D01*
X019290Y004932D01*
X019282Y004883D01*
X019270Y004834D01*
X019254Y004786D01*
X019235Y004740D01*
X019212Y004696D01*
X019185Y004653D01*
X019155Y004613D01*
X019123Y004575D01*
X019087Y004540D01*
X019048Y004508D01*
X019007Y004479D01*
X018964Y004453D01*
X018919Y004431D01*
X018873Y004413D01*
X018825Y004398D01*
X018776Y004387D01*
X018727Y004380D01*
X018677Y004377D01*
X018626Y004378D01*
X018577Y004383D01*
X018527Y004392D01*
X018479Y004405D01*
X018432Y004421D01*
X018386Y004442D01*
X018342Y004466D01*
X018300Y004493D01*
X018260Y004523D01*
X018223Y004557D01*
X018189Y004594D01*
X018157Y004633D01*
X018129Y004674D01*
X018104Y004718D01*
X018083Y004763D01*
X018066Y004810D01*
X018052Y004858D01*
X018042Y004907D01*
X018036Y004957D01*
X018034Y005007D01*
X021105Y001995D02*
X021107Y002045D01*
X021113Y002095D01*
X021123Y002144D01*
X021137Y002192D01*
X021154Y002239D01*
X021175Y002284D01*
X021200Y002328D01*
X021228Y002369D01*
X021260Y002408D01*
X021294Y002445D01*
X021331Y002479D01*
X021371Y002509D01*
X021413Y002536D01*
X021457Y002560D01*
X021503Y002581D01*
X021550Y002597D01*
X021598Y002610D01*
X021648Y002619D01*
X021697Y002624D01*
X021748Y002625D01*
X021798Y002622D01*
X021847Y002615D01*
X021896Y002604D01*
X021944Y002589D01*
X021990Y002571D01*
X022035Y002549D01*
X022078Y002523D01*
X022119Y002494D01*
X022158Y002462D01*
X022194Y002427D01*
X022226Y002389D01*
X022256Y002349D01*
X022283Y002306D01*
X022306Y002262D01*
X022325Y002216D01*
X022341Y002168D01*
X022353Y002119D01*
X022361Y002070D01*
X022365Y002020D01*
X022365Y001970D01*
X022361Y001920D01*
X022353Y001871D01*
X022341Y001822D01*
X022325Y001774D01*
X022306Y001728D01*
X022283Y001684D01*
X022256Y001641D01*
X022226Y001601D01*
X022194Y001563D01*
X022158Y001528D01*
X022119Y001496D01*
X022078Y001467D01*
X022035Y001441D01*
X021990Y001419D01*
X021944Y001401D01*
X021896Y001386D01*
X021847Y001375D01*
X021798Y001368D01*
X021748Y001365D01*
X021697Y001366D01*
X021648Y001371D01*
X021598Y001380D01*
X021550Y001393D01*
X021503Y001409D01*
X021457Y001430D01*
X021413Y001454D01*
X021371Y001481D01*
X021331Y001511D01*
X021294Y001545D01*
X021260Y001582D01*
X021228Y001621D01*
X021200Y001662D01*
X021175Y001706D01*
X021154Y001751D01*
X021137Y001798D01*
X021123Y001846D01*
X021113Y001895D01*
X021107Y001945D01*
X021105Y001995D01*
X021105Y010263D02*
X021107Y010313D01*
X021113Y010363D01*
X021123Y010412D01*
X021137Y010460D01*
X021154Y010507D01*
X021175Y010552D01*
X021200Y010596D01*
X021228Y010637D01*
X021260Y010676D01*
X021294Y010713D01*
X021331Y010747D01*
X021371Y010777D01*
X021413Y010804D01*
X021457Y010828D01*
X021503Y010849D01*
X021550Y010865D01*
X021598Y010878D01*
X021648Y010887D01*
X021697Y010892D01*
X021748Y010893D01*
X021798Y010890D01*
X021847Y010883D01*
X021896Y010872D01*
X021944Y010857D01*
X021990Y010839D01*
X022035Y010817D01*
X022078Y010791D01*
X022119Y010762D01*
X022158Y010730D01*
X022194Y010695D01*
X022226Y010657D01*
X022256Y010617D01*
X022283Y010574D01*
X022306Y010530D01*
X022325Y010484D01*
X022341Y010436D01*
X022353Y010387D01*
X022361Y010338D01*
X022365Y010288D01*
X022365Y010238D01*
X022361Y010188D01*
X022353Y010139D01*
X022341Y010090D01*
X022325Y010042D01*
X022306Y009996D01*
X022283Y009952D01*
X022256Y009909D01*
X022226Y009869D01*
X022194Y009831D01*
X022158Y009796D01*
X022119Y009764D01*
X022078Y009735D01*
X022035Y009709D01*
X021990Y009687D01*
X021944Y009669D01*
X021896Y009654D01*
X021847Y009643D01*
X021798Y009636D01*
X021748Y009633D01*
X021697Y009634D01*
X021648Y009639D01*
X021598Y009648D01*
X021550Y009661D01*
X021503Y009677D01*
X021457Y009698D01*
X021413Y009722D01*
X021371Y009749D01*
X021331Y009779D01*
X021294Y009813D01*
X021260Y009850D01*
X021228Y009889D01*
X021200Y009930D01*
X021175Y009974D01*
X021154Y010019D01*
X021137Y010066D01*
X021123Y010114D01*
X021113Y010163D01*
X021107Y010213D01*
X021105Y010263D01*
D11*
X016892Y010460D03*
X016105Y010460D03*
X015317Y010460D03*
X014530Y010460D03*
X013743Y010460D03*
X012955Y010460D03*
X012168Y010460D03*
X011380Y010460D03*
X010593Y010460D03*
X010593Y001798D03*
X011380Y001798D03*
X012168Y001798D03*
X012955Y001798D03*
X013743Y001798D03*
X014530Y001798D03*
X015317Y001798D03*
X016105Y001798D03*
X016892Y001798D03*
X009806Y001798D03*
D12*
X009806Y010460D03*
D13*
X003900Y010263D03*
X003900Y010932D03*
X002325Y010932D03*
X002325Y010263D03*
X002325Y009594D03*
X003900Y009594D03*
X003900Y002664D03*
X003900Y001995D03*
X003900Y001326D03*
X002325Y001326D03*
X002325Y001995D03*
X002325Y002664D03*
X018861Y002664D03*
X018861Y001995D03*
X018861Y001326D03*
X020436Y001326D03*
X020436Y001995D03*
X020436Y002664D03*
X020436Y009594D03*
X020436Y010263D03*
X020436Y010932D03*
X018861Y010932D03*
X018861Y010263D03*
X018861Y009594D03*
D14*
X003821Y008117D03*
X002443Y008117D03*
X002443Y007290D03*
X003821Y007290D03*
D15*
X006380Y008491D03*
X006695Y008491D03*
X007010Y008491D03*
X007325Y008491D03*
X007640Y008491D03*
D16*
X008782Y008491D03*
X005239Y008491D03*
X005239Y010656D03*
X008782Y010656D03*
D17*
X010380Y009082D03*
X011380Y009082D03*
X012483Y009082D03*
X013483Y009082D03*
X014483Y009082D03*
X015483Y009082D03*
X016483Y009082D03*
X017483Y009082D03*
X021814Y005452D03*
X021814Y004452D03*
X021814Y003452D03*
X007443Y001247D03*
X006443Y001247D03*
X005443Y001247D03*
X000947Y005538D03*
X000947Y006538D03*
X000947Y007538D03*
D18*
X021853Y007901D03*
X021853Y006901D03*
X021853Y008901D03*
D19*
X020869Y008845D03*
X020278Y009003D03*
X020278Y008452D03*
X020436Y007664D03*
X018979Y007664D03*
X020908Y006719D03*
X020514Y005814D03*
X017680Y006365D03*
X015239Y007507D03*
X014333Y006129D03*
X013113Y006168D03*
X013270Y005460D03*
X013900Y005342D03*
X013467Y004987D03*
X013113Y004594D03*
X014451Y004633D03*
X015947Y003688D03*
X015396Y003570D03*
X016026Y002468D03*
X017837Y001601D03*
X019648Y001798D03*
X019648Y001208D03*
X019648Y002546D03*
X019963Y003412D03*
X019058Y003412D03*
X018506Y003412D03*
X017837Y003412D03*
X012837Y002822D03*
X012286Y002822D03*
X011499Y002861D03*
X012129Y003531D03*
X011105Y003649D03*
X010396Y003570D03*
X011144Y004239D03*
X008940Y004318D03*
X007601Y004613D03*
X007601Y005342D03*
X008467Y006090D03*
X010396Y007310D03*
X011105Y007034D03*
X011892Y007271D03*
X011341Y007940D03*
X009766Y008452D03*
X009530Y009633D03*
X009845Y011090D03*
X005199Y009475D03*
X004648Y009200D03*
X005081Y007428D03*
X004451Y007271D03*
X004648Y006286D03*
X005317Y005578D03*
X005317Y004948D03*
X005317Y004239D03*
X004254Y003727D03*
X001814Y003688D03*
X001380Y004003D03*
X001066Y004554D03*
X002325Y005656D03*
X002837Y005656D03*
X002010Y006090D03*
X001971Y007310D03*
X001814Y003176D03*
X007640Y002782D03*
X010947Y006247D03*
X018467Y009042D03*
X018034Y010932D03*
X021066Y011405D03*
D20*
X020593Y010932D01*
X020436Y010932D01*
X020436Y010263D01*
X020436Y009594D01*
X020436Y009160D01*
X020278Y009003D01*
X020711Y008688D02*
X020869Y008845D01*
X020711Y008688D02*
X020711Y008294D01*
X020475Y008058D01*
X018664Y008058D01*
X018073Y008649D01*
X018073Y009475D01*
X018073Y010105D01*
X017247Y010932D01*
X010278Y010932D01*
X009806Y010460D01*
X009161Y009908D02*
X009075Y009821D01*
X009075Y009556D01*
X008365Y009556D01*
X008314Y009535D01*
X008314Y009562D01*
X008247Y009723D01*
X008124Y009846D01*
X007963Y009913D01*
X007790Y009913D01*
X007629Y009846D01*
X007506Y009723D01*
X007439Y009562D01*
X007439Y009388D01*
X007501Y009240D01*
X007491Y009240D01*
X007483Y009237D01*
X007475Y009240D01*
X007176Y009240D01*
X007168Y009237D01*
X007160Y009240D01*
X006861Y009240D01*
X006853Y009237D01*
X006845Y009240D01*
X006546Y009240D01*
X006514Y009227D01*
X006515Y009228D01*
X006581Y009388D01*
X006581Y009562D01*
X006515Y009723D01*
X006392Y009846D01*
X006350Y009863D01*
X007496Y011009D01*
X008131Y011009D01*
X008131Y010113D01*
X008171Y010019D01*
X006506Y010019D01*
X006624Y010137D02*
X008131Y010137D01*
X008131Y010256D02*
X006743Y010256D01*
X006861Y010374D02*
X008131Y010374D01*
X008131Y010493D02*
X006980Y010493D01*
X007098Y010611D02*
X008131Y010611D01*
X008131Y010730D02*
X007217Y010730D01*
X007335Y010848D02*
X008131Y010848D01*
X008131Y010967D02*
X007454Y010967D01*
X007365Y011326D02*
X009609Y011326D01*
X009845Y011090D01*
X010239Y011208D02*
X017758Y011208D01*
X018034Y010932D01*
X018861Y010932D01*
X018861Y010263D02*
X019215Y010263D01*
X019727Y009751D01*
X019727Y008727D01*
X020003Y008452D01*
X020278Y008452D01*
X021026Y008412D02*
X021514Y008901D01*
X021853Y008901D01*
X021026Y008412D02*
X021026Y007743D01*
X020475Y007192D01*
X017010Y007192D01*
X014451Y004633D01*
X014907Y004640D02*
X014907Y004444D01*
X014640Y004178D01*
X014263Y004178D01*
X013996Y004444D01*
X013996Y004821D01*
X014061Y004886D01*
X013922Y004886D01*
X013922Y004799D01*
X013656Y004532D01*
X013279Y004532D01*
X013022Y004788D01*
X012693Y004788D01*
X011560Y003656D01*
X011560Y003460D01*
X011417Y003316D01*
X011575Y003316D01*
X011575Y003357D01*
X011624Y003474D01*
X011673Y003523D01*
X011673Y003719D01*
X011940Y003986D01*
X012317Y003986D01*
X012584Y003719D01*
X012584Y003519D01*
X012617Y003532D01*
X014941Y003532D01*
X014941Y003758D01*
X015079Y003897D01*
X015079Y004813D01*
X014907Y004640D01*
X014953Y004686D02*
X015079Y004686D01*
X015079Y004568D02*
X014907Y004568D01*
X014907Y004449D02*
X015079Y004449D01*
X015079Y004331D02*
X014793Y004331D01*
X014675Y004212D02*
X015079Y004212D01*
X015079Y004094D02*
X011998Y004094D01*
X011929Y003975D02*
X011880Y003975D01*
X011811Y003857D02*
X011761Y003857D01*
X011692Y003738D02*
X011643Y003738D01*
X011673Y003620D02*
X011560Y003620D01*
X011560Y003501D02*
X011651Y003501D01*
X011586Y003383D02*
X011483Y003383D01*
X011187Y003193D02*
X011043Y003050D01*
X011043Y002902D01*
X010800Y002902D01*
X010812Y002908D01*
X010901Y002997D01*
X011098Y003193D01*
X011187Y003193D01*
X011139Y003146D02*
X011050Y003146D01*
X011043Y003027D02*
X010932Y003027D01*
X010947Y002940D02*
X012601Y004594D01*
X013113Y004594D01*
X013124Y004686D02*
X012591Y004686D01*
X012472Y004568D02*
X013243Y004568D01*
X013692Y004568D02*
X013996Y004568D01*
X013996Y004686D02*
X013810Y004686D01*
X013922Y004805D02*
X013996Y004805D01*
X013467Y004987D02*
X013349Y005105D01*
X012562Y005105D01*
X011105Y003649D01*
X010632Y003176D01*
X010239Y003176D01*
X009097Y004318D01*
X008940Y004318D01*
X008484Y004331D02*
X005773Y004331D01*
X005773Y004428D02*
X005506Y004694D01*
X005129Y004694D01*
X004862Y004428D01*
X004862Y004232D01*
X004674Y004044D01*
X004581Y004044D01*
X004443Y004183D01*
X004433Y004183D01*
X004601Y004252D01*
X004851Y004503D01*
X004987Y004830D01*
X004987Y005184D01*
X004930Y005321D01*
X005129Y005122D01*
X005506Y005122D01*
X005773Y005389D01*
X005773Y005766D01*
X005766Y005773D01*
X007388Y005773D01*
X007146Y005530D01*
X007146Y005153D01*
X007412Y004886D01*
X007790Y004886D01*
X007928Y005025D01*
X009003Y005025D01*
X009119Y005073D01*
X010764Y006718D01*
X010778Y006718D01*
X010916Y006579D01*
X011293Y006579D01*
X011560Y006846D01*
X011560Y006959D01*
X011575Y006944D01*
X011575Y006693D01*
X010128Y005245D01*
X010079Y005129D01*
X010079Y003897D01*
X010023Y003840D01*
X009395Y004468D01*
X009395Y004506D01*
X009128Y004773D01*
X008751Y004773D01*
X008484Y004506D01*
X008484Y004129D01*
X008751Y003863D01*
X009104Y003863D01*
X010059Y002908D01*
X010072Y002902D01*
X008995Y002902D01*
X008878Y002854D01*
X008572Y002548D01*
X005842Y002548D01*
X004947Y003443D01*
X004985Y003459D01*
X005310Y003784D01*
X005506Y003784D01*
X005773Y004051D01*
X005773Y004428D01*
X005751Y004449D02*
X008484Y004449D01*
X008546Y004568D02*
X005633Y004568D01*
X005514Y004686D02*
X008664Y004686D01*
X008566Y004613D02*
X008251Y004298D01*
X009609Y002940D01*
X010947Y002940D01*
X011043Y002909D02*
X010813Y002909D01*
X011223Y002586D02*
X009058Y002586D01*
X008703Y002231D01*
X005711Y002231D01*
X004609Y003334D01*
X004136Y003334D01*
X002247Y005223D01*
X001853Y005223D01*
X001617Y005460D01*
X001617Y005869D01*
X000947Y006538D01*
X001574Y006582D02*
X002055Y006582D01*
X002018Y006545D02*
X001822Y006545D01*
X001605Y006328D01*
X001558Y006375D01*
X001574Y006414D01*
X001574Y006663D01*
X001479Y006893D01*
X001302Y007070D01*
X001240Y007096D01*
X001293Y007134D01*
X001352Y007193D01*
X001401Y007261D01*
X001439Y007335D01*
X001464Y007414D01*
X001477Y007497D01*
X001477Y007498D01*
X000987Y007498D01*
X000987Y007578D01*
X000907Y007578D01*
X000907Y008068D01*
X000906Y008068D01*
X000823Y008055D01*
X000744Y008030D01*
X000670Y007992D01*
X000602Y007943D01*
X000543Y007884D01*
X000494Y007816D01*
X000456Y007742D01*
X000430Y007662D01*
X000420Y007596D01*
X000420Y009610D01*
X000522Y009508D01*
X000849Y009373D01*
X001203Y009373D01*
X001530Y009508D01*
X001675Y009653D01*
X001675Y009326D01*
X001714Y009231D01*
X001786Y009159D01*
X001881Y009120D01*
X002560Y009120D01*
X002560Y008513D01*
X002502Y008513D01*
X002502Y008175D01*
X002385Y008175D01*
X002385Y008059D01*
X002047Y008059D01*
X002047Y007860D01*
X002058Y007819D01*
X002079Y007783D01*
X002097Y007765D01*
X001782Y007765D01*
X001516Y007499D01*
X001516Y007121D01*
X001782Y006855D01*
X002043Y006855D01*
X002062Y006836D01*
X002156Y006797D01*
X002270Y006797D01*
X002018Y006545D01*
X001741Y006464D02*
X001574Y006464D01*
X001589Y006345D02*
X001622Y006345D01*
X002010Y006090D02*
X002877Y006956D01*
X002877Y009436D01*
X002719Y009594D01*
X002325Y009594D01*
X001675Y009545D02*
X001567Y009545D01*
X001675Y009426D02*
X001332Y009426D01*
X001682Y009308D02*
X000420Y009308D01*
X000420Y009426D02*
X000720Y009426D01*
X000486Y009545D02*
X000420Y009545D01*
X000420Y009189D02*
X001756Y009189D01*
X002560Y009071D02*
X000420Y009071D01*
X000420Y008952D02*
X002560Y008952D01*
X002560Y008834D02*
X000420Y008834D01*
X000420Y008715D02*
X002560Y008715D01*
X002560Y008597D02*
X000420Y008597D01*
X000420Y008478D02*
X002106Y008478D01*
X002109Y008481D02*
X002079Y008452D01*
X002058Y008415D01*
X002047Y008374D01*
X002047Y008175D01*
X002385Y008175D01*
X002385Y008513D01*
X002186Y008513D01*
X002145Y008502D01*
X002109Y008481D01*
X002047Y008360D02*
X000420Y008360D01*
X000420Y008241D02*
X002047Y008241D01*
X002047Y008004D02*
X001200Y008004D01*
X001225Y007992D02*
X001151Y008030D01*
X001072Y008055D01*
X000989Y008068D01*
X000987Y008068D01*
X000987Y007578D01*
X001477Y007578D01*
X001477Y007580D01*
X001464Y007662D01*
X001439Y007742D01*
X001401Y007816D01*
X001352Y007884D01*
X001293Y007943D01*
X001225Y007992D01*
X001350Y007886D02*
X002047Y007886D01*
X002095Y007767D02*
X001426Y007767D01*
X001467Y007649D02*
X001666Y007649D01*
X001547Y007530D02*
X000987Y007530D01*
X000947Y007538D02*
X001526Y008117D01*
X002443Y008117D01*
X002522Y008196D01*
X002502Y008241D02*
X002385Y008241D01*
X002385Y008123D02*
X000420Y008123D01*
X000420Y008004D02*
X000694Y008004D01*
X000545Y007886D02*
X000420Y007886D01*
X000420Y007767D02*
X000469Y007767D01*
X000428Y007649D02*
X000420Y007649D01*
X000907Y007649D02*
X000987Y007649D01*
X000987Y007767D02*
X000907Y007767D01*
X000907Y007886D02*
X000987Y007886D01*
X000987Y008004D02*
X000907Y008004D01*
X001464Y007412D02*
X001516Y007412D01*
X001516Y007293D02*
X001417Y007293D01*
X001333Y007175D02*
X001516Y007175D01*
X001581Y007056D02*
X001316Y007056D01*
X001434Y006938D02*
X001699Y006938D01*
X001510Y006819D02*
X002103Y006819D01*
X002174Y006701D02*
X001559Y006701D01*
X001991Y007290D02*
X002443Y007290D01*
X001991Y007290D02*
X001971Y007310D01*
X002385Y008360D02*
X002502Y008360D01*
X002502Y008478D02*
X002385Y008478D01*
X003821Y008117D02*
X004392Y008117D01*
X005081Y007428D01*
X005593Y006916D01*
X007325Y006916D01*
X007640Y007231D01*
X007640Y008491D01*
X007680Y008491D01*
X008428Y009239D01*
X009451Y009239D01*
X009648Y009042D01*
X009648Y008570D01*
X009766Y008452D01*
X010830Y007886D02*
X012128Y007886D01*
X012081Y007726D02*
X011704Y007726D01*
X011437Y007459D01*
X011437Y007346D01*
X011293Y007490D01*
X010916Y007490D01*
X010778Y007351D01*
X010569Y007351D01*
X010453Y007303D01*
X008808Y005658D01*
X008680Y005658D01*
X008922Y005901D01*
X008922Y005979D01*
X011399Y008455D01*
X011505Y008455D01*
X011615Y008500D01*
X011615Y008467D01*
X011663Y008351D01*
X011752Y008262D01*
X013878Y006136D01*
X013878Y006052D01*
X013568Y006052D01*
X013568Y006357D01*
X013301Y006624D01*
X012924Y006624D01*
X012786Y006485D01*
X012459Y006485D01*
X012343Y006437D01*
X012254Y006348D01*
X010876Y004970D01*
X010827Y004853D01*
X010827Y004566D01*
X010713Y004452D01*
X010713Y004935D01*
X012072Y006293D01*
X012161Y006383D01*
X012209Y006499D01*
X012209Y006944D01*
X012348Y007082D01*
X012348Y007459D01*
X012081Y007726D01*
X012158Y007649D02*
X012365Y007649D01*
X012277Y007530D02*
X012484Y007530D01*
X012602Y007412D02*
X012348Y007412D01*
X012348Y007293D02*
X012721Y007293D01*
X012839Y007175D02*
X012348Y007175D01*
X012322Y007056D02*
X012958Y007056D01*
X013076Y006938D02*
X012209Y006938D01*
X012209Y006819D02*
X013195Y006819D01*
X013313Y006701D02*
X012209Y006701D01*
X012209Y006582D02*
X012883Y006582D01*
X013343Y006582D02*
X013432Y006582D01*
X013461Y006464D02*
X013550Y006464D01*
X013568Y006345D02*
X013669Y006345D01*
X013568Y006227D02*
X013787Y006227D01*
X013878Y006108D02*
X013568Y006108D01*
X013113Y006168D02*
X012522Y006168D01*
X011144Y004790D01*
X011144Y004239D01*
X010827Y004568D02*
X010713Y004568D01*
X010713Y004686D02*
X010827Y004686D01*
X010827Y004805D02*
X010713Y004805D01*
X010713Y004923D02*
X010856Y004923D01*
X010820Y005042D02*
X010948Y005042D01*
X010939Y005160D02*
X011066Y005160D01*
X011057Y005279D02*
X011185Y005279D01*
X011176Y005397D02*
X011303Y005397D01*
X011294Y005516D02*
X011422Y005516D01*
X011413Y005634D02*
X011540Y005634D01*
X011531Y005753D02*
X011659Y005753D01*
X011650Y005871D02*
X011777Y005871D01*
X011768Y005990D02*
X011896Y005990D01*
X011887Y006108D02*
X012014Y006108D01*
X012005Y006227D02*
X012133Y006227D01*
X012124Y006345D02*
X012251Y006345D01*
X012195Y006464D02*
X012408Y006464D01*
X011892Y006562D02*
X011892Y007271D01*
X011508Y007530D02*
X010474Y007530D01*
X010356Y007412D02*
X010838Y007412D01*
X010593Y007649D02*
X011627Y007649D01*
X011437Y007412D02*
X011371Y007412D01*
X011105Y007034D02*
X010632Y007034D01*
X008940Y005342D01*
X007601Y005342D01*
X007247Y005538D02*
X007247Y004968D01*
X007601Y004613D01*
X008566Y004613D01*
X010199Y006247D01*
X010947Y006247D01*
X010990Y006108D02*
X010154Y006108D01*
X010036Y005990D02*
X010872Y005990D01*
X010753Y005871D02*
X009917Y005871D01*
X009799Y005753D02*
X010635Y005753D01*
X010516Y005634D02*
X009680Y005634D01*
X009562Y005516D02*
X010398Y005516D01*
X010279Y005397D02*
X009443Y005397D01*
X009325Y005279D02*
X010161Y005279D01*
X010092Y005160D02*
X009206Y005160D01*
X009044Y005042D02*
X010079Y005042D01*
X010079Y004923D02*
X007827Y004923D01*
X007375Y004923D02*
X004987Y004923D01*
X004977Y004805D02*
X010079Y004805D01*
X010079Y004686D02*
X009215Y004686D01*
X009334Y004568D02*
X010079Y004568D01*
X010079Y004449D02*
X009414Y004449D01*
X009532Y004331D02*
X010079Y004331D01*
X010079Y004212D02*
X009651Y004212D01*
X009769Y004094D02*
X010079Y004094D01*
X010079Y003975D02*
X009888Y003975D01*
X010006Y003857D02*
X010039Y003857D01*
X010396Y003570D02*
X010396Y005066D01*
X011892Y006562D01*
X011575Y006701D02*
X011415Y006701D01*
X011464Y006582D02*
X011297Y006582D01*
X011346Y006464D02*
X010510Y006464D01*
X010628Y006582D02*
X010913Y006582D01*
X010795Y006701D02*
X010747Y006701D01*
X010206Y007056D02*
X010000Y007056D01*
X010088Y006938D02*
X009882Y006938D01*
X009969Y006819D02*
X009763Y006819D01*
X009851Y006701D02*
X009645Y006701D01*
X009732Y006582D02*
X009526Y006582D01*
X009614Y006464D02*
X009408Y006464D01*
X009495Y006345D02*
X009289Y006345D01*
X009377Y006227D02*
X009171Y006227D01*
X009258Y006108D02*
X009052Y006108D01*
X009140Y005990D02*
X008934Y005990D01*
X008893Y005871D02*
X009021Y005871D01*
X008903Y005753D02*
X008774Y005753D01*
X008821Y005735D02*
X007443Y005735D01*
X007247Y005538D01*
X007250Y005634D02*
X005773Y005634D01*
X005773Y005516D02*
X007146Y005516D01*
X007146Y005397D02*
X005773Y005397D01*
X005662Y005279D02*
X007146Y005279D01*
X007146Y005160D02*
X005544Y005160D01*
X005091Y005160D02*
X004987Y005160D01*
X004987Y005042D02*
X007257Y005042D01*
X007368Y005753D02*
X005773Y005753D01*
X005317Y005578D02*
X005317Y006405D01*
X004451Y007271D01*
X003821Y007290D02*
X003821Y007113D01*
X004648Y006286D01*
X005317Y006405D02*
X005495Y006227D01*
X005495Y006208D01*
X005495Y006227D02*
X005632Y006090D01*
X008467Y006090D01*
X008585Y006090D01*
X011380Y008885D01*
X011380Y009082D01*
X011932Y009436D02*
X011735Y009633D01*
X009530Y009633D01*
X009075Y009663D02*
X008272Y009663D01*
X008314Y009545D02*
X008338Y009545D01*
X008188Y009782D02*
X009075Y009782D01*
X009154Y009900D02*
X007993Y009900D01*
X008171Y010019D02*
X008243Y009947D01*
X008337Y009908D01*
X009161Y009908D01*
X007760Y009900D02*
X006387Y009900D01*
X006456Y009782D02*
X007565Y009782D01*
X007481Y009663D02*
X006540Y009663D01*
X006581Y009545D02*
X007439Y009545D01*
X007439Y009426D02*
X006581Y009426D01*
X006548Y009308D02*
X007473Y009308D01*
X006814Y009200D02*
X006499Y009200D01*
X006380Y009082D01*
X006380Y008885D01*
X005987Y008885D01*
X005396Y009475D01*
X005199Y009475D01*
X005103Y009388D02*
X004965Y009527D01*
X004965Y009580D01*
X004976Y009592D01*
X005719Y009592D01*
X005707Y009562D01*
X005707Y009388D01*
X005774Y009228D01*
X005897Y009105D01*
X006057Y009038D01*
X006131Y009038D01*
X006122Y009004D01*
X006122Y008491D01*
X006122Y007978D01*
X006133Y007937D01*
X006154Y007901D01*
X006184Y007871D01*
X006220Y007850D01*
X006261Y007839D01*
X006380Y007839D01*
X006380Y007852D01*
X006380Y007852D01*
X006380Y007839D01*
X006394Y007839D01*
X006452Y007781D01*
X006546Y007742D01*
X006845Y007742D01*
X006853Y007745D01*
X006861Y007742D01*
X007160Y007742D01*
X007168Y007745D01*
X007176Y007742D01*
X007323Y007742D01*
X007323Y007363D01*
X007194Y007233D01*
X005724Y007233D01*
X005537Y007421D01*
X005537Y007617D01*
X005411Y007742D01*
X005684Y007742D01*
X005778Y007781D01*
X005850Y007854D01*
X005889Y007948D01*
X005889Y009034D01*
X005850Y009129D01*
X005778Y009201D01*
X005684Y009240D01*
X005103Y009240D01*
X005103Y009388D01*
X005066Y009426D02*
X005707Y009426D01*
X005707Y009545D02*
X004965Y009545D01*
X004648Y009515D02*
X004648Y009712D01*
X004845Y009908D01*
X005947Y009908D01*
X007365Y011326D01*
X007601Y009987D02*
X006814Y009200D01*
X006380Y008885D02*
X006380Y008491D01*
X006380Y008688D01*
X006122Y008715D02*
X005889Y008715D01*
X005889Y008597D02*
X006122Y008597D01*
X006122Y008491D02*
X006340Y008491D01*
X006122Y008491D01*
X006122Y008478D02*
X005889Y008478D01*
X005889Y008360D02*
X006122Y008360D01*
X006122Y008241D02*
X005889Y008241D01*
X005889Y008123D02*
X006122Y008123D01*
X006122Y008004D02*
X005889Y008004D01*
X005864Y007886D02*
X006169Y007886D01*
X006485Y007767D02*
X005744Y007767D01*
X005504Y007649D02*
X007323Y007649D01*
X007323Y007530D02*
X005537Y007530D01*
X005546Y007412D02*
X007323Y007412D01*
X007254Y007293D02*
X005664Y007293D01*
X006340Y008491D02*
X006340Y008491D01*
X006122Y008834D02*
X005889Y008834D01*
X005889Y008952D02*
X006122Y008952D01*
X005979Y009071D02*
X005874Y009071D01*
X005812Y009189D02*
X005790Y009189D01*
X005740Y009308D02*
X005103Y009308D01*
X004648Y009200D02*
X004648Y009515D01*
X004569Y009594D01*
X003900Y009594D01*
X003900Y010263D01*
X003900Y010932D01*
X003349Y010223D02*
X002719Y010853D01*
X002404Y010853D01*
X002325Y010932D01*
X002955Y011562D01*
X009884Y011562D01*
X010239Y011208D01*
X011552Y009950D02*
X011685Y010005D01*
X011774Y010094D01*
X011864Y010005D01*
X012061Y009923D01*
X012275Y009923D01*
X012472Y010005D01*
X012562Y010094D01*
X012651Y010005D01*
X012848Y009923D01*
X013062Y009923D01*
X013259Y010005D01*
X013349Y010094D01*
X013439Y010005D01*
X013636Y009923D01*
X013849Y009923D01*
X014047Y010005D01*
X014136Y010094D01*
X014226Y010005D01*
X014423Y009923D01*
X014637Y009923D01*
X014834Y010005D01*
X014924Y010094D01*
X014991Y010027D01*
X014973Y010020D01*
X014884Y009930D01*
X014646Y009693D01*
X014608Y009709D01*
X014358Y009709D01*
X014128Y009613D01*
X013951Y009437D01*
X013925Y009374D01*
X013887Y009427D01*
X013828Y009486D01*
X013761Y009535D01*
X013686Y009573D01*
X013607Y009599D01*
X013525Y009612D01*
X013523Y009612D01*
X013523Y009122D01*
X013443Y009122D01*
X013443Y009612D01*
X013441Y009612D01*
X013359Y009599D01*
X013279Y009573D01*
X013205Y009535D01*
X013138Y009486D01*
X013079Y009427D01*
X013030Y009359D01*
X012992Y009285D01*
X012983Y009258D01*
X012974Y009285D01*
X012936Y009359D01*
X012887Y009427D01*
X012828Y009486D01*
X012761Y009535D01*
X012686Y009573D01*
X012607Y009599D01*
X012525Y009612D01*
X012523Y009612D01*
X012523Y009122D01*
X012443Y009122D01*
X012443Y009612D01*
X012441Y009612D01*
X012359Y009599D01*
X012279Y009573D01*
X012229Y009547D01*
X012200Y009616D01*
X012111Y009705D01*
X012003Y009812D01*
X011914Y009901D01*
X011798Y009950D01*
X011552Y009950D01*
X011699Y010019D02*
X011850Y010019D01*
X011915Y009900D02*
X014853Y009900D01*
X014848Y010019D02*
X014972Y010019D01*
X015152Y009751D02*
X017798Y009751D01*
X018073Y009475D01*
X018467Y009042D02*
X018861Y009436D01*
X018861Y009594D01*
X020436Y009594D02*
X020514Y009672D01*
X018395Y007879D02*
X017894Y008380D01*
X017805Y008469D01*
X017781Y008527D01*
X017608Y008455D01*
X017358Y008455D01*
X017128Y008550D01*
X016983Y008695D01*
X016838Y008550D01*
X016800Y008534D01*
X016800Y007429D01*
X016831Y007461D01*
X016947Y007509D01*
X020344Y007509D01*
X020603Y007768D01*
X020538Y007741D01*
X018601Y007741D01*
X018484Y007789D01*
X018395Y007879D01*
X018395Y007879D01*
X018388Y007886D02*
X016800Y007886D01*
X016800Y008004D02*
X018270Y008004D01*
X018151Y008123D02*
X016800Y008123D01*
X016800Y008241D02*
X018033Y008241D01*
X017914Y008360D02*
X016800Y008360D01*
X016800Y008478D02*
X017302Y008478D01*
X017081Y008597D02*
X016884Y008597D01*
X016166Y008534D02*
X016166Y007347D01*
X015556Y006736D01*
X015556Y007180D01*
X015694Y007318D01*
X015694Y007695D01*
X015427Y007962D01*
X015050Y007962D01*
X014783Y007695D01*
X014783Y007318D01*
X014922Y007180D01*
X014922Y006575D01*
X014726Y006380D01*
X014522Y006584D01*
X014326Y006584D01*
X012339Y008571D01*
X012359Y008565D01*
X012441Y008552D01*
X012443Y008552D01*
X012443Y009042D01*
X012523Y009042D01*
X012523Y009122D01*
X013013Y009122D01*
X013443Y009122D01*
X013443Y009042D01*
X012523Y009042D01*
X012523Y008552D01*
X012525Y008552D01*
X012607Y008565D01*
X012686Y008591D01*
X012761Y008628D01*
X012828Y008677D01*
X012887Y008736D01*
X012936Y008804D01*
X012974Y008878D01*
X012983Y008905D01*
X012992Y008878D01*
X013030Y008804D01*
X013079Y008736D01*
X013138Y008677D01*
X013205Y008628D01*
X013279Y008591D01*
X013359Y008565D01*
X013441Y008552D01*
X013443Y008552D01*
X013443Y009042D01*
X013523Y009042D01*
X013523Y008552D01*
X013525Y008552D01*
X013607Y008565D01*
X013686Y008591D01*
X013761Y008628D01*
X013828Y008677D01*
X013887Y008736D01*
X013925Y008789D01*
X013951Y008727D01*
X014128Y008550D01*
X014358Y008455D01*
X014608Y008455D01*
X014838Y008550D01*
X014983Y008695D01*
X015128Y008550D01*
X015358Y008455D01*
X015608Y008455D01*
X015838Y008550D01*
X015983Y008695D01*
X016128Y008550D01*
X016166Y008534D01*
X016166Y008478D02*
X015664Y008478D01*
X015884Y008597D02*
X016081Y008597D01*
X016166Y008360D02*
X012550Y008360D01*
X012432Y008478D02*
X014302Y008478D01*
X014081Y008597D02*
X013699Y008597D01*
X013523Y008597D02*
X013443Y008597D01*
X013443Y008715D02*
X013523Y008715D01*
X013523Y008834D02*
X013443Y008834D01*
X013443Y008952D02*
X013523Y008952D01*
X013483Y009082D02*
X013483Y009609D01*
X013821Y009948D01*
X014061Y010019D02*
X014212Y010019D01*
X014249Y009663D02*
X012152Y009663D01*
X012034Y009782D02*
X014735Y009782D01*
X015152Y009751D02*
X014483Y009082D01*
X013963Y008715D02*
X013866Y008715D01*
X013443Y009071D02*
X012523Y009071D01*
X012523Y009189D02*
X012443Y009189D01*
X012443Y009308D02*
X012523Y009308D01*
X012523Y009426D02*
X012443Y009426D01*
X012443Y009545D02*
X012523Y009545D01*
X012741Y009545D02*
X013224Y009545D01*
X013078Y009426D02*
X012888Y009426D01*
X012962Y009308D02*
X013003Y009308D01*
X013443Y009308D02*
X013523Y009308D01*
X013523Y009426D02*
X013443Y009426D01*
X013443Y009545D02*
X013523Y009545D01*
X013741Y009545D02*
X014059Y009545D01*
X013947Y009426D02*
X013888Y009426D01*
X013523Y009189D02*
X013443Y009189D01*
X013014Y008834D02*
X012951Y008834D01*
X012866Y008715D02*
X013100Y008715D01*
X013267Y008597D02*
X012699Y008597D01*
X012523Y008597D02*
X012443Y008597D01*
X012443Y008715D02*
X012523Y008715D01*
X012523Y008834D02*
X012443Y008834D01*
X012443Y008952D02*
X012523Y008952D01*
X011932Y008531D02*
X011932Y009436D01*
X012486Y010019D02*
X012637Y010019D01*
X013274Y010019D02*
X013424Y010019D01*
X014884Y008597D02*
X015081Y008597D01*
X015302Y008478D02*
X014664Y008478D01*
X014974Y007886D02*
X013024Y007886D01*
X012906Y008004D02*
X016166Y008004D01*
X016166Y007886D02*
X015504Y007886D01*
X015622Y007767D02*
X016166Y007767D01*
X016166Y007649D02*
X015694Y007649D01*
X015694Y007530D02*
X016166Y007530D01*
X016166Y007412D02*
X015694Y007412D01*
X015669Y007293D02*
X016112Y007293D01*
X015994Y007175D02*
X015556Y007175D01*
X015556Y007056D02*
X015875Y007056D01*
X015757Y006938D02*
X015556Y006938D01*
X015556Y006819D02*
X015638Y006819D01*
X015239Y006444D02*
X014530Y005735D01*
X013546Y005735D01*
X013270Y005460D01*
X013900Y005342D02*
X014609Y005342D01*
X016483Y007216D01*
X016483Y009082D01*
X017664Y008478D02*
X017801Y008478D01*
X018538Y007767D02*
X016800Y007767D01*
X016800Y007649D02*
X020484Y007649D01*
X020436Y007664D02*
X018979Y007664D01*
X020365Y007530D02*
X016800Y007530D01*
X017089Y006956D02*
X020593Y006956D01*
X021538Y007901D01*
X021853Y007901D01*
X021538Y007901D02*
X021459Y007901D01*
X020602Y007767D02*
X020601Y007767D01*
X021853Y006901D02*
X021853Y006680D01*
X020967Y005794D01*
X020534Y005794D01*
X020514Y005814D01*
X019963Y006365D01*
X017680Y006365D01*
X017955Y006050D02*
X019688Y006050D01*
X020475Y005263D01*
X021625Y005263D01*
X021814Y005452D01*
X021814Y004452D02*
X020727Y004452D01*
X020357Y004082D01*
X017365Y004082D01*
X016105Y002822D01*
X012837Y002822D01*
X012680Y003216D02*
X012286Y002822D01*
X012562Y002454D02*
X012649Y002367D01*
X013026Y002367D01*
X013164Y002505D01*
X016168Y002505D01*
X016284Y002553D01*
X017496Y003765D01*
X018215Y003765D01*
X018051Y003601D01*
X018051Y003405D01*
X017962Y003316D01*
X017914Y003200D01*
X017914Y001420D01*
X017962Y001304D01*
X018120Y001146D01*
X018176Y001090D01*
X018100Y001013D01*
X008025Y001013D01*
X008070Y001122D01*
X008070Y001372D01*
X007975Y001602D01*
X007899Y001678D01*
X009003Y001678D01*
X009119Y001726D01*
X009208Y001816D01*
X009269Y001876D01*
X009269Y001691D01*
X009351Y001494D01*
X009502Y001343D01*
X009699Y001261D01*
X009912Y001261D01*
X010110Y001343D01*
X010199Y001433D01*
X010289Y001343D01*
X010486Y001261D01*
X010700Y001261D01*
X010897Y001343D01*
X010987Y001433D01*
X011076Y001343D01*
X011274Y001261D01*
X011487Y001261D01*
X011685Y001343D01*
X011774Y001433D01*
X011864Y001343D01*
X012061Y001261D01*
X012275Y001261D01*
X012472Y001343D01*
X012562Y001433D01*
X012651Y001343D01*
X012848Y001261D01*
X013062Y001261D01*
X013259Y001343D01*
X013349Y001433D01*
X013439Y001343D01*
X013636Y001261D01*
X013849Y001261D01*
X014047Y001343D01*
X014136Y001433D01*
X014226Y001343D01*
X014423Y001261D01*
X014637Y001261D01*
X014834Y001343D01*
X014924Y001433D01*
X015013Y001343D01*
X015211Y001261D01*
X015424Y001261D01*
X015622Y001343D01*
X015711Y001433D01*
X015801Y001343D01*
X015998Y001261D01*
X016212Y001261D01*
X016409Y001343D01*
X016499Y001433D01*
X016588Y001343D01*
X016785Y001261D01*
X016999Y001261D01*
X017196Y001343D01*
X017347Y001494D01*
X017429Y001691D01*
X017429Y001905D01*
X017347Y002102D01*
X017196Y002253D01*
X016999Y002335D01*
X016785Y002335D01*
X016588Y002253D01*
X016499Y002164D01*
X016409Y002253D01*
X016212Y002335D01*
X015998Y002335D01*
X015801Y002253D01*
X015711Y002164D01*
X015622Y002253D01*
X015424Y002335D01*
X015211Y002335D01*
X015013Y002253D01*
X014924Y002164D01*
X014834Y002253D01*
X014637Y002335D01*
X014423Y002335D01*
X014226Y002253D01*
X014136Y002164D01*
X014047Y002253D01*
X013849Y002335D01*
X013636Y002335D01*
X013439Y002253D01*
X013349Y002164D01*
X013259Y002253D01*
X013062Y002335D01*
X012848Y002335D01*
X012651Y002253D01*
X012562Y002164D01*
X012472Y002253D01*
X012275Y002335D01*
X012164Y002335D01*
X012177Y002367D01*
X012475Y002367D01*
X012562Y002454D01*
X012543Y002435D02*
X012580Y002435D01*
X012596Y002198D02*
X012528Y002198D01*
X012320Y002316D02*
X012803Y002316D01*
X013107Y002316D02*
X013591Y002316D01*
X013383Y002198D02*
X013315Y002198D01*
X013094Y002435D02*
X017914Y002435D01*
X017837Y002468D02*
X016026Y002468D01*
X015953Y002316D02*
X015470Y002316D01*
X015677Y002198D02*
X015745Y002198D01*
X016257Y002316D02*
X016740Y002316D01*
X016533Y002198D02*
X016465Y002198D01*
X016284Y002553D02*
X017914Y002553D01*
X017837Y002468D02*
X017837Y001601D01*
X017914Y001605D02*
X017393Y001605D01*
X017429Y001724D02*
X017914Y001724D01*
X017914Y001842D02*
X017429Y001842D01*
X017406Y001961D02*
X017914Y001961D01*
X017914Y002079D02*
X017357Y002079D01*
X017252Y002198D02*
X017914Y002198D01*
X017914Y002316D02*
X017044Y002316D01*
X016521Y002790D02*
X017914Y002790D01*
X017914Y002672D02*
X016403Y002672D01*
X016640Y002909D02*
X017914Y002909D01*
X017914Y003027D02*
X016758Y003027D01*
X016877Y003146D02*
X017914Y003146D01*
X017941Y003264D02*
X016995Y003264D01*
X017114Y003383D02*
X018029Y003383D01*
X018051Y003501D02*
X017232Y003501D01*
X017351Y003620D02*
X018070Y003620D01*
X018188Y003738D02*
X017469Y003738D01*
X017837Y003412D02*
X017837Y002468D01*
X018861Y002664D02*
X018861Y003216D01*
X019058Y003412D01*
X018506Y003412D02*
X018231Y003137D01*
X018231Y001483D01*
X018388Y001326D01*
X018861Y001326D01*
X018231Y000696D01*
X002955Y000696D01*
X002325Y001326D01*
X002916Y001326D01*
X003270Y001680D01*
X003270Y003216D01*
X002916Y003570D01*
X002522Y003570D01*
X001971Y004121D01*
X001499Y004121D01*
X001380Y004003D01*
X001814Y003688D02*
X002168Y003334D01*
X002837Y003334D01*
X002995Y003176D01*
X002995Y002192D01*
X002798Y001995D01*
X002325Y001995D01*
X002325Y002664D02*
X001814Y003176D01*
X002286Y002704D02*
X002325Y002664D01*
X003900Y002664D02*
X003900Y001995D01*
X003900Y001326D01*
X005436Y001995D02*
X004333Y003097D01*
X004018Y003097D01*
X002168Y004948D01*
X001538Y004948D01*
X000947Y005538D01*
X002325Y005656D02*
X003113Y006444D01*
X003113Y010027D01*
X002877Y010263D01*
X002325Y010263D01*
X003349Y010223D02*
X003349Y006168D01*
X002837Y005656D01*
X002247Y004554D02*
X001066Y004554D01*
X002247Y004554D02*
X003900Y002901D01*
X003900Y002664D01*
X005008Y003383D02*
X009584Y003383D01*
X009466Y003501D02*
X005028Y003501D01*
X005146Y003620D02*
X009347Y003620D01*
X009229Y003738D02*
X005265Y003738D01*
X005579Y003857D02*
X009110Y003857D01*
X008638Y003975D02*
X005697Y003975D01*
X005773Y004094D02*
X008520Y004094D01*
X008484Y004212D02*
X005773Y004212D01*
X005317Y004239D02*
X004806Y003727D01*
X004254Y003727D01*
X004532Y004094D02*
X004724Y004094D01*
X004842Y004212D02*
X004504Y004212D01*
X004679Y004331D02*
X004862Y004331D01*
X004884Y004449D02*
X004798Y004449D01*
X004878Y004568D02*
X005002Y004568D01*
X004927Y004686D02*
X005121Y004686D01*
X004973Y005279D02*
X004948Y005279D01*
X007640Y003688D02*
X007640Y002782D01*
X008577Y002553D02*
X005837Y002553D01*
X005719Y002672D02*
X008696Y002672D01*
X008814Y002790D02*
X005600Y002790D01*
X005482Y002909D02*
X010058Y002909D01*
X009940Y003027D02*
X005363Y003027D01*
X005245Y003146D02*
X009821Y003146D01*
X009703Y003264D02*
X005126Y003264D01*
X005436Y001995D02*
X008940Y001995D01*
X009215Y002271D01*
X011656Y002271D01*
X011892Y002507D01*
X011892Y003294D01*
X012129Y003531D01*
X012584Y003620D02*
X014941Y003620D01*
X014941Y003738D02*
X012565Y003738D01*
X012446Y003857D02*
X015039Y003857D01*
X015079Y003975D02*
X012328Y003975D01*
X012117Y004212D02*
X014228Y004212D01*
X014110Y004331D02*
X012235Y004331D01*
X012354Y004449D02*
X013996Y004449D01*
X015071Y004805D02*
X015079Y004805D01*
X015396Y005263D02*
X017089Y006956D01*
X017207Y006719D02*
X015947Y005460D01*
X015947Y003688D01*
X016105Y003216D02*
X016695Y003806D01*
X016695Y004790D01*
X017955Y006050D01*
X017207Y006719D02*
X020908Y006719D01*
X016166Y008123D02*
X012787Y008123D01*
X012669Y008241D02*
X016166Y008241D01*
X015239Y007507D02*
X015239Y006444D01*
X014922Y006582D02*
X014524Y006582D01*
X014642Y006464D02*
X014811Y006464D01*
X014922Y006701D02*
X014209Y006701D01*
X014091Y006819D02*
X014922Y006819D01*
X014922Y006938D02*
X013972Y006938D01*
X013854Y007056D02*
X014922Y007056D01*
X014922Y007175D02*
X013735Y007175D01*
X013617Y007293D02*
X014808Y007293D01*
X014783Y007412D02*
X013498Y007412D01*
X013380Y007530D02*
X014783Y007530D01*
X014783Y007649D02*
X013261Y007649D01*
X013143Y007767D02*
X014855Y007767D01*
X012247Y007767D02*
X010711Y007767D01*
X010948Y008004D02*
X012010Y008004D01*
X011891Y008123D02*
X011067Y008123D01*
X011185Y008241D02*
X011773Y008241D01*
X011659Y008360D02*
X011304Y008360D01*
X011562Y008478D02*
X011615Y008478D01*
X011932Y008531D02*
X014333Y006129D01*
X015396Y005263D02*
X015396Y003570D01*
X016105Y003216D02*
X012680Y003216D01*
X011499Y002861D02*
X011223Y002586D01*
X009269Y001842D02*
X009235Y001842D01*
X009269Y001724D02*
X009113Y001724D01*
X009305Y001605D02*
X007972Y001605D01*
X008023Y001487D02*
X009358Y001487D01*
X009476Y001368D02*
X008070Y001368D01*
X008070Y001250D02*
X018016Y001250D01*
X017936Y001368D02*
X017222Y001368D01*
X017340Y001487D02*
X017914Y001487D01*
X018135Y001131D02*
X008070Y001131D01*
X008025Y001013D02*
X018100Y001013D01*
X018861Y001326D02*
X019176Y001326D01*
X019648Y001798D01*
X019136Y001995D02*
X019648Y002507D01*
X019648Y002546D01*
X020436Y002664D02*
X020436Y001326D01*
X020436Y001995D01*
X020436Y002005D01*
X020436Y002664D02*
X020436Y002940D01*
X019963Y003412D01*
X020418Y003405D02*
X020418Y003601D01*
X020255Y003765D01*
X020420Y003765D01*
X020536Y003813D01*
X020858Y004135D01*
X021266Y004135D01*
X021282Y004097D01*
X021458Y003920D01*
X021521Y003894D01*
X021468Y003856D01*
X021409Y003797D01*
X021360Y003730D01*
X021322Y003655D01*
X021297Y003576D01*
X021284Y003493D01*
X021284Y003492D01*
X021774Y003492D01*
X021774Y003412D01*
X021854Y003412D01*
X021854Y002922D01*
X021855Y002922D01*
X021938Y002935D01*
X022017Y002961D01*
X022091Y002998D01*
X022159Y003048D01*
X022218Y003106D01*
X022267Y003174D01*
X022305Y003248D01*
X022330Y003328D01*
X022341Y003394D01*
X022341Y002647D01*
X022239Y002750D01*
X021912Y002885D01*
X021558Y002885D01*
X021231Y002750D01*
X021086Y002605D01*
X021086Y002932D01*
X021047Y003026D01*
X020975Y003099D01*
X020880Y003138D01*
X020686Y003138D01*
X020418Y003405D01*
X020441Y003383D02*
X021288Y003383D01*
X021284Y003410D02*
X021297Y003328D01*
X021322Y003248D01*
X021360Y003174D01*
X021409Y003106D01*
X021468Y003048D01*
X021536Y002998D01*
X021610Y002961D01*
X021689Y002935D01*
X021772Y002922D01*
X021774Y002922D01*
X021774Y003412D01*
X021284Y003412D01*
X021284Y003410D01*
X021285Y003501D02*
X020418Y003501D01*
X020400Y003620D02*
X021311Y003620D01*
X021367Y003738D02*
X020281Y003738D01*
X020580Y003857D02*
X021469Y003857D01*
X021420Y003845D02*
X021814Y003452D01*
X021774Y003383D02*
X021854Y003383D01*
X021854Y003264D02*
X021774Y003264D01*
X021774Y003146D02*
X021854Y003146D01*
X021854Y003027D02*
X021774Y003027D01*
X021496Y003027D02*
X021046Y003027D01*
X021086Y002909D02*
X022341Y002909D01*
X022341Y003027D02*
X022131Y003027D01*
X022246Y003146D02*
X022341Y003146D01*
X022341Y003264D02*
X022310Y003264D01*
X022339Y003383D02*
X022341Y003383D01*
X021420Y003845D02*
X018270Y003845D01*
X017837Y003412D01*
X018861Y001995D02*
X019136Y001995D01*
X018940Y001405D02*
X018861Y001326D01*
X019648Y001208D02*
X019766Y001326D01*
X020436Y001326D01*
X021086Y002672D02*
X021153Y002672D01*
X021086Y002790D02*
X021329Y002790D01*
X021381Y003146D02*
X020678Y003146D01*
X020559Y003264D02*
X021317Y003264D01*
X022140Y002790D02*
X022341Y002790D01*
X022341Y002672D02*
X022317Y002672D01*
X021404Y003975D02*
X020699Y003975D01*
X020817Y004094D02*
X021285Y004094D01*
X016563Y001368D02*
X016434Y001368D01*
X015776Y001368D02*
X015647Y001368D01*
X014988Y001368D02*
X014859Y001368D01*
X014201Y001368D02*
X014072Y001368D01*
X013413Y001368D02*
X013285Y001368D01*
X012626Y001368D02*
X012497Y001368D01*
X011839Y001368D02*
X011710Y001368D01*
X011051Y001368D02*
X010922Y001368D01*
X010264Y001368D02*
X010135Y001368D01*
X013895Y002316D02*
X014378Y002316D01*
X014170Y002198D02*
X014102Y002198D01*
X014682Y002316D02*
X015165Y002316D01*
X014958Y002198D02*
X014890Y002198D01*
X010396Y007310D02*
X008821Y005735D01*
X010273Y006227D02*
X011109Y006227D01*
X011227Y006345D02*
X010391Y006345D01*
X011534Y006819D02*
X011575Y006819D01*
X011560Y006938D02*
X011575Y006938D01*
X011026Y007940D02*
X010396Y007310D01*
X010443Y007293D02*
X010237Y007293D01*
X010325Y007175D02*
X010119Y007175D01*
X011026Y007940D02*
X011341Y007940D01*
X007601Y009987D02*
X016420Y009987D01*
X016892Y010460D01*
X008251Y004298D02*
X007640Y003688D01*
M02*
