%
M48
M72
T01C0.0197
T02C0.0276
T03C0.0354
T04C0.0400
T05C0.1260
%
T01
X1814Y3176
X1814Y3688
X1380Y4003
X1066Y4554
X2325Y5656
X2837Y5656
X2010Y6090
X1971Y7310
X4451Y7271
X5081Y7428
X4648Y6286
X5317Y5578
X5317Y4948
X5317Y4239
X4254Y3727
X7601Y4613
X8940Y4318
X10396Y3570
X11105Y3649
X12129Y3531
X12286Y2822
X12837Y2822
X11499Y2861
X11144Y4239
X13113Y4594
X13467Y4987
X13900Y5342
X13270Y5460
X13113Y6168
X14333Y6129
X15239Y7507
X17680Y6365
X18979Y7664
X20436Y7664
X20278Y8452
X20869Y8845
X20278Y9003
X18467Y9042
X18034Y10932
X21066Y11405
X20908Y6719
X20514Y5814
X19963Y3412
X19058Y3412
X18506Y3412
X17837Y3412
X15947Y3688
X15396Y3570
X16026Y2468
X17837Y1601
X19648Y1798
X19648Y1208
X19648Y2546
X14451Y4633
X10947Y6247
X11105Y7034
X10396Y7310
X11341Y7940
X11892Y7271
X9766Y8452
X9530Y9633
X9845Y11090
X5199Y9475
X4648Y9200
X8467Y6090
X7601Y5342
X7640Y2782
T02
X9806Y1798
X10593Y1798
X11380Y1798
X12168Y1798
X12955Y1798
X13743Y1798
X14530Y1798
X15317Y1798
X16105Y1798
X16892Y1798
X16892Y10460
X16105Y10460
X15317Y10460
X14530Y10460
X13743Y10460
X12955Y10460
X12168Y10460
X11380Y10460
X10593Y10460
X9806Y10460
T03
X7877Y9475
X6144Y9475
T04
X10380Y9082
X11380Y9082
X12483Y9082
X13483Y9082
X14483Y9082
X15483Y9082
X16483Y9082
X17483Y9082
X21814Y5452
X21814Y4452
X21814Y3452
X7443Y1247
X6443Y1247
X5443Y1247
X947Y5538
X947Y6538
X947Y7538
T05
X1026Y1995
X4097Y5007
X1026Y10263
X18664Y5007
X21735Y1995
X21735Y10263
M30
