G75*
G70*
%OFA0B0*%
%FSLAX24Y24*%
%IPPOS*%
%LPD*%
%AMOC8*
5,1,8,0,0,1.08239X$1,22.5*
%
%ADD10C,0.1340*%
%ADD11R,0.0297X0.0552*%
%ADD12R,0.0474X0.0513*%
%ADD13R,0.0513X0.0474*%
%ADD14C,0.0640*%
%ADD15R,0.0640X0.0640*%
%ADD16R,0.0300X0.0580*%
%ADD17R,0.0580X0.0300*%
%ADD18R,0.0580X0.0330*%
%ADD19R,0.0474X0.0631*%
%ADD20C,0.0434*%
%ADD21R,0.0474X0.1891*%
%ADD22R,0.0710X0.1419*%
%ADD23R,0.0513X0.0198*%
%ADD24R,0.0198X0.0513*%
%ADD25R,0.0513X0.0237*%
%ADD26R,0.0592X0.0671*%
%ADD27C,0.0820*%
%ADD28R,0.0651X0.0257*%
%ADD29R,0.1080X0.0580*%
%ADD30R,0.0330X0.0580*%
D10*
X001026Y001995D03*
X004097Y005007D03*
X001026Y010263D03*
X018664Y005007D03*
X021735Y001995D03*
X021735Y010263D03*
D11*
X007975Y007231D03*
X007227Y007231D03*
X006243Y007231D03*
X005495Y007231D03*
X005495Y006208D03*
X005869Y006208D03*
X006243Y006208D03*
X007227Y006208D03*
X007601Y006208D03*
X007975Y006208D03*
D12*
X008191Y005282D03*
X007010Y005282D03*
X005947Y005282D03*
X005947Y004613D03*
X007010Y004613D03*
X008191Y004613D03*
X005869Y003708D03*
X005003Y003708D03*
X005003Y003038D03*
X005869Y003038D03*
X003113Y003314D03*
X003113Y002645D03*
X003251Y006641D03*
X003920Y006641D03*
X005928Y008294D03*
X006597Y008294D03*
X016243Y006405D03*
X016912Y006405D03*
X016774Y007172D03*
X016774Y007842D03*
D13*
X015908Y007842D03*
X015908Y007172D03*
X014668Y007901D03*
X013999Y007901D03*
X012896Y007901D03*
X012227Y007901D03*
X009747Y007822D03*
X009077Y007822D03*
X008093Y008294D03*
X007424Y008294D03*
X009077Y006916D03*
X009747Y006916D03*
X009688Y003590D03*
X009688Y002920D03*
X013802Y002782D03*
X014471Y002782D03*
X016774Y002684D03*
X016774Y003353D03*
X016774Y004141D03*
X016774Y004810D03*
X018329Y001286D03*
X018999Y001286D03*
X002483Y006503D03*
X002483Y007172D03*
X006538Y010440D03*
X006538Y011109D03*
D14*
X010593Y010460D03*
X011380Y010460D03*
X012168Y010460D03*
X012955Y010460D03*
X013743Y010460D03*
X014530Y010460D03*
X015317Y010460D03*
X016105Y010460D03*
X016892Y010460D03*
X016892Y001798D03*
X016105Y001798D03*
X015317Y001798D03*
X014530Y001798D03*
X013743Y001798D03*
X012955Y001798D03*
X012168Y001798D03*
X011380Y001798D03*
X010593Y001798D03*
X009806Y001798D03*
D15*
X009806Y010460D03*
D16*
X012640Y007032D03*
X012955Y007032D03*
X013270Y007032D03*
X013585Y007032D03*
X013900Y007032D03*
X014215Y007032D03*
X014530Y007032D03*
X014845Y007032D03*
X014845Y003652D03*
X014530Y003652D03*
X014215Y003652D03*
X013900Y003652D03*
X013585Y003652D03*
X013270Y003652D03*
X012955Y003652D03*
X012640Y003652D03*
D17*
X012053Y004239D03*
X012053Y004554D03*
X012053Y004869D03*
X012053Y005184D03*
X012053Y005499D03*
X012053Y005814D03*
X012053Y006129D03*
X012053Y006444D03*
X015433Y006444D03*
X015433Y006129D03*
X015433Y005814D03*
X015433Y005499D03*
X015433Y005184D03*
X015433Y004869D03*
X015433Y004554D03*
X015433Y004239D03*
D18*
X017877Y010086D03*
X017877Y010440D03*
D19*
X008408Y011090D03*
X007660Y011090D03*
X008034Y010223D03*
D20*
X007877Y009475D03*
X006144Y009475D03*
D21*
X004097Y008609D03*
X003310Y008609D03*
D22*
X002365Y010656D03*
X005042Y010656D03*
D23*
X009560Y005263D03*
X009560Y005066D03*
X009560Y004869D03*
X010682Y004869D03*
X010682Y005066D03*
X010682Y005263D03*
D24*
X010514Y005627D03*
X010317Y005627D03*
X010121Y005627D03*
X009924Y005627D03*
X009727Y005627D03*
X009727Y004505D03*
X009924Y004505D03*
X010121Y004505D03*
X010317Y004505D03*
X010514Y004505D03*
D25*
X008723Y003560D03*
X008723Y003304D03*
X008723Y003048D03*
X008723Y002792D03*
X006951Y002792D03*
X006951Y003048D03*
X006951Y003304D03*
X006951Y003560D03*
D26*
X003132Y001798D03*
X003880Y001798D03*
D27*
X005443Y001247D03*
X006443Y001247D03*
X007443Y001247D03*
X000947Y005538D03*
X000947Y006538D03*
X000947Y007538D03*
X010380Y009082D03*
X011380Y009082D03*
X012483Y009082D03*
X013483Y009082D03*
X014483Y009082D03*
X015483Y009082D03*
X016483Y009082D03*
X017483Y009082D03*
X021814Y005452D03*
X021814Y004452D03*
X021814Y003452D03*
D28*
X020317Y002812D03*
X020317Y002556D03*
X020317Y002300D03*
X020317Y002044D03*
X018585Y002044D03*
X018585Y002300D03*
X018585Y002556D03*
X018585Y002812D03*
D29*
X021853Y006901D03*
X021853Y007901D03*
X021853Y008901D03*
D30*
X020967Y004790D03*
X020613Y004790D03*
M02*
