G75*
G70*
%OFA0B0*%
%FSLAX24Y24*%
%IPPOS*%
%LPD*%
%AMOC8*
5,1,8,0,0,1.08239X$1,22.5*
%
%ADD10C,0.1340*%
%ADD11C,0.0640*%
%ADD12R,0.0640X0.0640*%
%ADD13R,0.0867X0.0513*%
%ADD14R,0.0552X0.0552*%
%ADD15R,0.0277X0.1064*%
%ADD16R,0.0867X0.1064*%
%ADD17C,0.0434*%
%ADD18C,0.0820*%
%ADD19R,0.1080X0.0580*%
D10*
X001026Y001995D03*
X004097Y005007D03*
X001026Y010263D03*
X018664Y005007D03*
X021735Y001995D03*
X021735Y010263D03*
D11*
X016892Y010460D03*
X016105Y010460D03*
X015317Y010460D03*
X014530Y010460D03*
X013743Y010460D03*
X012955Y010460D03*
X012168Y010460D03*
X011380Y010460D03*
X010593Y010460D03*
X010593Y001798D03*
X011380Y001798D03*
X012168Y001798D03*
X012955Y001798D03*
X013743Y001798D03*
X014530Y001798D03*
X015317Y001798D03*
X016105Y001798D03*
X016892Y001798D03*
X009806Y001798D03*
D12*
X009806Y010460D03*
D13*
X002325Y001326D03*
X002325Y001995D03*
X002325Y002664D03*
X003900Y002664D03*
X003900Y001995D03*
X003900Y001326D03*
X018861Y001326D03*
X018861Y001995D03*
X018861Y002664D03*
X020436Y002664D03*
X020436Y001995D03*
X020436Y001326D03*
X020436Y009594D03*
X020436Y010263D03*
X020436Y010932D03*
X018861Y010932D03*
X018861Y010263D03*
X018861Y009594D03*
X003900Y009594D03*
X003900Y010263D03*
X003900Y010932D03*
X002325Y010932D03*
X002325Y010263D03*
X002325Y009594D03*
D14*
X002443Y008117D03*
X003821Y008117D03*
X003821Y007290D03*
X002443Y007290D03*
D15*
X006380Y008491D03*
X006695Y008491D03*
X007010Y008491D03*
X007325Y008491D03*
X007640Y008491D03*
D16*
X008782Y008491D03*
X005239Y008491D03*
X005239Y010656D03*
X008782Y010656D03*
D17*
X007877Y009475D03*
X006144Y009475D03*
D18*
X010380Y009082D03*
X011380Y009082D03*
X012483Y009082D03*
X013483Y009082D03*
X014483Y009082D03*
X015483Y009082D03*
X016483Y009082D03*
X017483Y009082D03*
X021814Y005452D03*
X021814Y004452D03*
X021814Y003452D03*
X007443Y001247D03*
X006443Y001247D03*
X005443Y001247D03*
X000947Y005538D03*
X000947Y006538D03*
X000947Y007538D03*
D19*
X021853Y007901D03*
X021853Y006901D03*
X021853Y008901D03*
M02*
