G75*
G70*
%OFA0B0*%
%FSLAX24Y24*%
%IPPOS*%
%LPD*%
%AMOC8*
5,1,8,0,0,1.08239X$1,22.5*
%
%ADD10C,0.0080*%
%ADD11C,0.0100*%
%ADD12C,0.0050*%
%ADD13R,0.0079X0.0079*%
%ADD14C,0.0060*%
%ADD15C,0.0160*%
D10*
X002428Y000651D02*
X002641Y000651D01*
X002796Y000651D02*
X003009Y000651D01*
X003164Y000651D02*
X003324Y000651D01*
X003378Y000704D01*
X003378Y000918D01*
X003324Y000971D01*
X003164Y000971D01*
X003164Y000651D01*
X002903Y000811D02*
X002796Y000811D01*
X002796Y000971D02*
X002796Y000651D01*
X002796Y000971D02*
X003009Y000971D01*
X003532Y000918D02*
X003586Y000971D01*
X003693Y000971D01*
X003746Y000918D01*
X003746Y000864D01*
X003693Y000811D01*
X003746Y000758D01*
X003746Y000704D01*
X003693Y000651D01*
X003586Y000651D01*
X003532Y000704D01*
X003639Y000811D02*
X003693Y000811D01*
X004943Y000997D02*
X004943Y001497D01*
X005193Y001747D01*
X005693Y001747D01*
X005943Y001497D01*
X006193Y001747D01*
X006693Y001747D01*
X006943Y001497D01*
X007193Y001747D01*
X007693Y001747D01*
X007943Y001497D01*
X007943Y000997D01*
X007693Y000747D01*
X007193Y000747D01*
X006943Y000997D01*
X006693Y000747D01*
X006193Y000747D01*
X005943Y000997D01*
X005693Y000747D01*
X005193Y000747D01*
X004943Y000997D01*
X005110Y001838D02*
X005057Y001892D01*
X005110Y001838D02*
X005217Y001838D01*
X005270Y001892D01*
X005270Y001998D01*
X005217Y002052D01*
X005163Y002052D01*
X005057Y001998D01*
X005057Y002159D01*
X005270Y002159D01*
X005425Y002159D02*
X005425Y001945D01*
X005532Y001838D01*
X005638Y001945D01*
X005638Y002159D01*
X005909Y002105D02*
X005909Y001892D01*
X005962Y001838D01*
X006069Y001838D01*
X006122Y001892D01*
X006122Y001998D01*
X006015Y001998D01*
X005909Y002105D02*
X005962Y002159D01*
X006069Y002159D01*
X006122Y002105D01*
X006277Y002159D02*
X006490Y001838D01*
X006490Y002159D01*
X006645Y002159D02*
X006805Y002159D01*
X006859Y002105D01*
X006859Y001892D01*
X006805Y001838D01*
X006645Y001838D01*
X006645Y002159D01*
X006277Y002159D02*
X006277Y001838D01*
X007090Y001892D02*
X007143Y001838D01*
X007250Y001838D01*
X007303Y001892D01*
X007303Y002105D01*
X007250Y002159D01*
X007143Y002159D01*
X007090Y002105D01*
X007090Y001892D01*
X007458Y001892D02*
X007458Y002159D01*
X007672Y002159D02*
X007672Y001892D01*
X007618Y001838D01*
X007511Y001838D01*
X007458Y001892D01*
X007826Y002159D02*
X008040Y002159D01*
X007933Y002159D02*
X007933Y001838D01*
X008174Y001783D02*
X008494Y001997D01*
X008494Y001783D02*
X008174Y001997D01*
X008228Y001628D02*
X008174Y001575D01*
X008174Y001468D01*
X008228Y001415D01*
X008441Y001415D01*
X008494Y001468D01*
X008494Y001575D01*
X008441Y001628D01*
X008228Y001628D01*
X008228Y001260D02*
X008334Y001260D01*
X008388Y001207D01*
X008388Y001047D01*
X008388Y001153D02*
X008494Y001260D01*
X008228Y001260D02*
X008174Y001207D01*
X008174Y001047D01*
X008494Y001047D01*
X008334Y000892D02*
X008228Y000892D01*
X008174Y000838D01*
X008174Y000678D01*
X008494Y000678D01*
X008388Y000678D02*
X008388Y000838D01*
X008334Y000892D01*
X004902Y001998D02*
X004688Y001998D01*
X004795Y001892D02*
X004795Y002105D01*
X002428Y000971D02*
X002428Y000651D01*
X001859Y004631D02*
X001538Y004631D01*
X001538Y004791D01*
X001592Y004844D01*
X001698Y004844D01*
X001752Y004791D01*
X001752Y004631D01*
X001805Y004999D02*
X001592Y004999D01*
X001538Y005053D01*
X001538Y005159D01*
X001592Y005213D01*
X001447Y005288D02*
X001197Y005038D01*
X000697Y005038D01*
X000447Y005288D01*
X000447Y005788D01*
X000697Y006038D01*
X000447Y006288D01*
X000447Y006788D01*
X000697Y007038D01*
X000447Y007288D01*
X000447Y007788D01*
X000697Y008038D01*
X001197Y008038D01*
X001447Y007788D01*
X001447Y007288D01*
X001197Y007038D01*
X001447Y006788D01*
X001447Y006288D01*
X001197Y006038D01*
X001447Y005788D01*
X001447Y005288D01*
X001538Y005421D02*
X001592Y005368D01*
X001538Y005421D02*
X001538Y005528D01*
X001592Y005581D01*
X001645Y005581D01*
X001859Y005368D01*
X001859Y005581D01*
X001805Y005213D02*
X001859Y005159D01*
X001859Y005053D01*
X001805Y004999D01*
X001752Y006048D02*
X001752Y006208D01*
X001698Y006262D01*
X001592Y006262D01*
X001538Y006208D01*
X001538Y006048D01*
X001859Y006048D01*
X001805Y006417D02*
X001592Y006417D01*
X001538Y006470D01*
X001538Y006577D01*
X001592Y006630D01*
X001592Y006785D02*
X001538Y006838D01*
X001538Y006945D01*
X001592Y006998D01*
X001645Y006998D01*
X001698Y006945D01*
X001752Y006998D01*
X001805Y006998D01*
X001859Y006945D01*
X001859Y006838D01*
X001805Y006785D01*
X001698Y006892D02*
X001698Y006945D01*
X001805Y006630D02*
X001859Y006577D01*
X001859Y006470D01*
X001805Y006417D01*
X001805Y007544D02*
X001592Y007544D01*
X001538Y007598D01*
X001538Y007704D01*
X001592Y007758D01*
X001698Y007758D02*
X001698Y007651D01*
X001698Y007758D02*
X001805Y007758D01*
X001859Y007704D01*
X001859Y007598D01*
X001805Y007544D01*
X001859Y007913D02*
X001538Y007913D01*
X001859Y008126D01*
X001538Y008126D01*
X001245Y008188D02*
X001032Y008188D01*
X001139Y008188D02*
X001139Y008508D01*
X001032Y008402D01*
X000877Y008455D02*
X000877Y008242D01*
X000824Y008188D01*
X000717Y008188D01*
X000664Y008242D01*
X000664Y008455D01*
X000717Y008508D01*
X000824Y008508D01*
X000877Y008455D01*
X000525Y008508D02*
X000418Y008508D01*
X000471Y008508D02*
X000471Y008188D01*
X000418Y008188D02*
X000525Y008188D01*
X001538Y008281D02*
X001538Y008441D01*
X001592Y008494D01*
X001805Y008494D01*
X001859Y008441D01*
X001859Y008281D01*
X001538Y008281D01*
X001997Y008537D02*
X001997Y008857D01*
X002157Y008857D01*
X002210Y008804D01*
X002210Y008697D01*
X002157Y008643D01*
X001997Y008643D01*
X002365Y008537D02*
X002365Y008857D01*
X002578Y008857D02*
X002578Y008537D01*
X002472Y008643D01*
X002365Y008537D01*
X002733Y008537D02*
X002733Y008857D01*
X002893Y008857D01*
X002947Y008804D01*
X002947Y008697D01*
X002893Y008643D01*
X002733Y008643D01*
X002840Y008643D02*
X002947Y008537D01*
X003296Y008590D02*
X003296Y008804D01*
X003349Y008857D01*
X003456Y008857D01*
X003509Y008804D01*
X003664Y008857D02*
X003664Y008537D01*
X003664Y008697D02*
X003878Y008697D01*
X003878Y008857D02*
X003878Y008537D01*
X004032Y008590D02*
X004086Y008537D01*
X004193Y008537D01*
X004246Y008590D01*
X004246Y008697D01*
X004139Y008697D01*
X004032Y008804D02*
X004032Y008590D01*
X004032Y008804D02*
X004086Y008857D01*
X004193Y008857D01*
X004246Y008804D01*
X003509Y008590D02*
X003456Y008537D01*
X003349Y008537D01*
X003296Y008590D01*
X005514Y009160D02*
X005514Y009987D01*
X006692Y010384D02*
X006746Y010330D01*
X006852Y010330D01*
X006906Y010384D01*
X006906Y010651D01*
X007060Y010597D02*
X007060Y010544D01*
X007114Y010490D01*
X007221Y010490D01*
X007274Y010437D01*
X007274Y010384D01*
X007221Y010330D01*
X007114Y010330D01*
X007060Y010384D01*
X006692Y010384D02*
X006692Y010651D01*
X007060Y010597D02*
X007114Y010651D01*
X007221Y010651D01*
X007274Y010597D01*
X007429Y010651D02*
X007589Y010651D01*
X007642Y010597D01*
X007642Y010544D01*
X007589Y010490D01*
X007429Y010490D01*
X007429Y010330D02*
X007429Y010651D01*
X007589Y010490D02*
X007642Y010437D01*
X007642Y010384D01*
X007589Y010330D01*
X007429Y010330D01*
X008506Y009987D02*
X008506Y009160D01*
X009880Y009332D02*
X009880Y008832D01*
X010130Y008582D01*
X010630Y008582D01*
X010880Y008832D01*
X011130Y008582D01*
X011630Y008582D01*
X011880Y008832D01*
X011880Y009332D01*
X011630Y009582D01*
X011130Y009582D01*
X010880Y009332D01*
X010630Y009582D01*
X010130Y009582D01*
X009880Y009332D01*
X010300Y009791D02*
X010407Y009684D01*
X010513Y009791D01*
X010513Y010004D01*
X010668Y010004D02*
X010775Y010004D01*
X010722Y010004D02*
X010722Y009684D01*
X010775Y009684D02*
X010668Y009684D01*
X010914Y009684D02*
X011074Y009684D01*
X011127Y009738D01*
X011127Y009791D01*
X011074Y009844D01*
X010914Y009844D01*
X010914Y009684D02*
X010914Y010004D01*
X011074Y010004D01*
X011127Y009951D01*
X011127Y009898D01*
X011074Y009844D01*
X011282Y009844D02*
X011389Y009844D01*
X011282Y009684D02*
X011496Y009684D01*
X011282Y009684D02*
X011282Y010004D01*
X011496Y010004D01*
X011983Y009332D02*
X012233Y009582D01*
X012733Y009582D01*
X012983Y009332D01*
X013233Y009582D01*
X013733Y009582D01*
X013983Y009332D01*
X014233Y009582D01*
X014733Y009582D01*
X014983Y009332D01*
X015233Y009582D01*
X015733Y009582D01*
X015983Y009332D01*
X016233Y009582D01*
X016733Y009582D01*
X016983Y009332D01*
X017233Y009582D01*
X017733Y009582D01*
X017983Y009332D01*
X017983Y008832D01*
X017733Y008582D01*
X017233Y008582D01*
X016983Y008832D01*
X016733Y008582D01*
X016233Y008582D01*
X015983Y008832D01*
X015733Y008582D01*
X015233Y008582D01*
X014983Y008832D01*
X014733Y008582D01*
X014233Y008582D01*
X013983Y008832D01*
X013733Y008582D01*
X013233Y008582D01*
X012983Y008832D01*
X012733Y008582D01*
X012233Y008582D01*
X011983Y008832D01*
X011983Y009332D01*
X012340Y008451D02*
X012287Y008398D01*
X012287Y008291D01*
X012340Y008238D01*
X012447Y008238D01*
X012447Y008344D01*
X012554Y008238D02*
X012607Y008291D01*
X012607Y008398D01*
X012554Y008451D01*
X012340Y008451D01*
X012287Y008083D02*
X012607Y008083D01*
X012287Y007869D01*
X012607Y007869D01*
X012607Y007715D02*
X012287Y007715D01*
X012287Y007554D01*
X012340Y007501D01*
X012554Y007501D01*
X012607Y007554D01*
X012607Y007715D01*
X013310Y007701D02*
X013310Y007594D01*
X013364Y007540D01*
X013417Y007540D01*
X013470Y007594D01*
X013470Y007701D01*
X013524Y007754D01*
X013577Y007754D01*
X013631Y007701D01*
X013631Y007594D01*
X013577Y007540D01*
X013364Y007754D02*
X013310Y007701D01*
X013310Y008015D02*
X013631Y008015D01*
X013631Y007909D02*
X013631Y008122D01*
X013577Y008277D02*
X013631Y008330D01*
X013631Y008437D01*
X013577Y008491D01*
X013364Y008491D01*
X013310Y008437D01*
X013310Y008330D01*
X013364Y008277D01*
X014294Y008384D02*
X014401Y008277D01*
X014615Y008277D01*
X014561Y008122D02*
X014348Y008122D01*
X014294Y008069D01*
X014294Y007962D01*
X014348Y007909D01*
X014348Y007754D02*
X014294Y007701D01*
X014294Y007594D01*
X014348Y007540D01*
X014561Y007540D02*
X014615Y007594D01*
X014615Y007701D01*
X014561Y007754D01*
X014348Y007754D01*
X014561Y007909D02*
X014615Y007962D01*
X014615Y008069D01*
X014561Y008122D01*
X014294Y008384D02*
X014401Y008491D01*
X014615Y008491D01*
X015357Y008384D02*
X015678Y008384D01*
X015678Y008491D02*
X015678Y008277D01*
X015678Y008122D02*
X015357Y007909D01*
X015411Y007754D02*
X015357Y007701D01*
X015357Y007594D01*
X015411Y007540D01*
X015624Y007540D01*
X015678Y007594D01*
X015678Y007701D01*
X015624Y007754D01*
X015411Y007754D01*
X015678Y007909D02*
X015357Y008122D01*
X016302Y008122D02*
X016623Y007909D01*
X016623Y007754D02*
X016623Y007647D01*
X016623Y007701D02*
X016302Y007701D01*
X016302Y007754D02*
X016302Y007647D01*
X016302Y007909D02*
X016623Y008122D01*
X016569Y008277D02*
X016462Y008277D01*
X016409Y008330D01*
X016409Y008491D01*
X016302Y008491D02*
X016623Y008491D01*
X016623Y008330D01*
X016569Y008277D01*
X016409Y008384D02*
X016302Y008277D01*
X017326Y008330D02*
X017379Y008277D01*
X017593Y008277D01*
X017646Y008330D01*
X017646Y008491D01*
X017326Y008491D01*
X017326Y008330D01*
X017646Y008122D02*
X017646Y007909D01*
X017646Y008015D02*
X017326Y008015D01*
X017326Y007754D02*
X017646Y007754D01*
X017646Y007594D01*
X017593Y007540D01*
X017486Y007540D01*
X017433Y007594D01*
X017433Y007754D01*
X017433Y007647D02*
X017326Y007540D01*
X020899Y007551D02*
X020899Y007444D01*
X020952Y007391D01*
X021165Y007391D01*
X021219Y007444D01*
X021219Y007551D01*
X021165Y007604D01*
X021165Y007759D02*
X021219Y007812D01*
X021219Y007919D01*
X021165Y007973D01*
X021112Y007973D01*
X021059Y007919D01*
X021059Y007812D01*
X021005Y007759D01*
X020952Y007759D01*
X020899Y007812D01*
X020899Y007919D01*
X020952Y007973D01*
X020899Y008127D02*
X020899Y008288D01*
X020952Y008341D01*
X021059Y008341D01*
X021112Y008288D01*
X021112Y008127D01*
X021219Y008127D02*
X020899Y008127D01*
X020952Y007604D02*
X020899Y007551D01*
X020899Y007252D02*
X020899Y007145D01*
X020899Y007199D02*
X021219Y007199D01*
X021219Y007252D02*
X021219Y007145D01*
X021222Y006489D02*
X021222Y006276D01*
X021222Y006382D02*
X020902Y006382D01*
X021009Y006276D01*
X020955Y006121D02*
X020902Y006067D01*
X020902Y005961D01*
X020955Y005907D01*
X021169Y005907D01*
X021222Y005961D01*
X021222Y006067D01*
X021169Y006121D01*
X021442Y006023D02*
X021548Y006023D01*
X021495Y006023D02*
X021495Y006343D01*
X021442Y006343D02*
X021548Y006343D01*
X021687Y006290D02*
X021687Y006076D01*
X021741Y006023D01*
X021847Y006023D01*
X021901Y006076D01*
X021901Y006290D01*
X021847Y006343D01*
X021741Y006343D01*
X021687Y006290D01*
X022056Y006290D02*
X022109Y006343D01*
X022216Y006343D01*
X022269Y006290D01*
X022269Y006236D01*
X022056Y006023D01*
X022269Y006023D01*
X022064Y005952D02*
X021564Y005952D01*
X021314Y005702D01*
X021314Y005202D01*
X021564Y004952D01*
X021314Y004702D01*
X021314Y004202D01*
X021564Y003952D01*
X021314Y003702D01*
X021314Y003202D01*
X021564Y002952D01*
X022064Y002952D01*
X022314Y003202D01*
X022314Y003702D01*
X022064Y003952D01*
X022314Y004202D01*
X022314Y004702D01*
X022064Y004952D01*
X022314Y005202D01*
X022314Y005702D01*
X022064Y005952D01*
X021222Y005539D02*
X020902Y005539D01*
X020902Y005699D01*
X020955Y005753D01*
X021062Y005753D01*
X021116Y005699D01*
X021116Y005539D01*
X021169Y004914D02*
X021222Y004861D01*
X021222Y004754D01*
X021169Y004701D01*
X020955Y004914D01*
X021169Y004914D01*
X020955Y004914D02*
X020902Y004861D01*
X020902Y004754D01*
X020955Y004701D01*
X021169Y004701D01*
X021169Y004546D02*
X021222Y004493D01*
X021222Y004386D01*
X021169Y004333D01*
X020955Y004333D01*
X020902Y004386D01*
X020902Y004493D01*
X020955Y004546D01*
X020955Y004178D02*
X021062Y004178D01*
X021116Y004124D01*
X021116Y003964D01*
X021222Y003964D02*
X020902Y003964D01*
X020902Y004124D01*
X020955Y004178D01*
X020955Y003655D02*
X020902Y003601D01*
X020902Y003441D01*
X021222Y003441D01*
X021222Y003601D01*
X021169Y003655D01*
X020955Y003655D01*
X020902Y003286D02*
X021222Y003286D01*
X020902Y003073D01*
X021222Y003073D01*
X021169Y002918D02*
X021062Y002918D01*
X021062Y002811D01*
X020955Y002704D02*
X020902Y002758D01*
X020902Y002865D01*
X020955Y002918D01*
X020955Y002704D02*
X021169Y002704D01*
X021222Y002758D01*
X021222Y002865D01*
X021169Y002918D01*
X020267Y000971D02*
X020107Y000811D01*
X020321Y000811D01*
X020267Y000651D02*
X020267Y000971D01*
X019952Y000918D02*
X019952Y000704D01*
X019899Y000651D01*
X019739Y000651D01*
X019739Y000971D01*
X019899Y000971D01*
X019952Y000918D01*
X019584Y000971D02*
X019371Y000971D01*
X019371Y000651D01*
X019584Y000651D01*
X019477Y000811D02*
X019371Y000811D01*
X019216Y000651D02*
X019002Y000651D01*
X019002Y000971D01*
X012421Y004850D02*
X012421Y005170D01*
X012581Y005170D01*
X012635Y005117D01*
X012635Y005010D01*
X012581Y004957D01*
X012421Y004957D01*
X012266Y005010D02*
X012213Y004957D01*
X012053Y004957D01*
X012160Y004957D02*
X012266Y004850D01*
X012053Y004850D02*
X012053Y005170D01*
X012213Y005170D01*
X012266Y005117D01*
X012266Y005010D01*
X011898Y005010D02*
X011685Y005010D01*
X011685Y005064D02*
X011791Y005170D01*
X011898Y005064D01*
X011898Y004850D01*
X011685Y004850D02*
X011685Y005064D01*
X011530Y005010D02*
X011316Y005010D01*
X011316Y004850D02*
X011316Y005170D01*
X011162Y005117D02*
X011108Y005170D01*
X011001Y005170D01*
X010948Y005117D01*
X010948Y005064D01*
X011001Y005010D01*
X011108Y005010D01*
X011162Y004957D01*
X011162Y004903D01*
X011108Y004850D01*
X011001Y004850D01*
X010948Y004903D01*
X011530Y004850D02*
X011530Y005170D01*
X011370Y008270D02*
X011370Y008483D01*
X011263Y008376D02*
X011477Y008376D01*
X010414Y008376D02*
X010200Y008376D01*
X008231Y008176D02*
X007877Y008176D01*
X006144Y008176D02*
X005790Y008176D01*
X010300Y009791D02*
X010300Y010004D01*
X014434Y010004D02*
X014434Y009684D01*
X014434Y009844D02*
X014541Y009844D01*
X014909Y009684D02*
X014909Y010004D01*
X014802Y010004D02*
X015016Y010004D01*
X015170Y010004D02*
X015331Y010004D01*
X015384Y009951D01*
X015384Y009738D01*
X015331Y009684D01*
X015170Y009684D01*
X015170Y010004D01*
X015539Y010004D02*
X015645Y010004D01*
X015592Y010004D02*
X015592Y009684D01*
X015539Y009684D02*
X015645Y009684D01*
X014647Y010004D02*
X014434Y010004D01*
X018980Y011287D02*
X019193Y011287D01*
X019348Y011287D02*
X019561Y011287D01*
X019716Y011287D02*
X019876Y011287D01*
X019930Y011340D01*
X019930Y011554D01*
X019876Y011607D01*
X019716Y011607D01*
X019716Y011287D01*
X019348Y011287D02*
X019348Y011607D01*
X019561Y011607D01*
X019455Y011447D02*
X019348Y011447D01*
X018980Y011607D02*
X018980Y011287D01*
X020084Y011340D02*
X020138Y011287D01*
X020245Y011287D01*
X020298Y011340D01*
X020298Y011447D01*
X020245Y011501D01*
X020191Y011501D01*
X020084Y011447D01*
X020084Y011607D01*
X020298Y011607D01*
X003763Y011554D02*
X003709Y011607D01*
X003602Y011607D01*
X003549Y011554D01*
X003394Y011554D02*
X003394Y011340D01*
X003341Y011287D01*
X003181Y011287D01*
X003181Y011607D01*
X003341Y011607D01*
X003394Y011554D01*
X003026Y011607D02*
X002812Y011607D01*
X002812Y011287D01*
X003026Y011287D01*
X002919Y011447D02*
X002812Y011447D01*
X002658Y011287D02*
X002444Y011287D01*
X002444Y011607D01*
X003549Y011287D02*
X003763Y011501D01*
X003763Y011554D01*
X003763Y011287D02*
X003549Y011287D01*
D11*
X009068Y001225D02*
X009268Y001225D01*
X009335Y001158D01*
X009335Y001025D01*
X009268Y000958D01*
X009068Y000958D01*
X009068Y000825D02*
X009068Y001225D01*
X009529Y001092D02*
X009529Y000825D01*
X009529Y000958D02*
X009662Y001092D01*
X009729Y001092D01*
X009912Y001025D02*
X009912Y000891D01*
X009979Y000825D01*
X010112Y000825D01*
X010179Y000891D01*
X010179Y001025D01*
X010112Y001092D01*
X009979Y001092D01*
X009912Y001025D01*
X010373Y001092D02*
X010573Y001092D01*
X010640Y001025D01*
X010640Y000891D01*
X010573Y000825D01*
X010373Y000825D01*
X010373Y000691D02*
X010373Y001092D01*
X010833Y001092D02*
X010900Y001092D01*
X010900Y000825D01*
X010833Y000825D02*
X010967Y000825D01*
X011140Y000825D02*
X011140Y001092D01*
X011340Y001092D01*
X011407Y001025D01*
X011407Y000825D01*
X011600Y000891D02*
X011667Y000825D01*
X011867Y000825D01*
X011867Y000691D02*
X011867Y001092D01*
X011667Y001092D01*
X011600Y001025D01*
X011600Y000891D01*
X012061Y000891D02*
X012128Y000825D01*
X012328Y000825D01*
X012328Y001092D01*
X012521Y001092D02*
X012588Y001092D01*
X012588Y000825D01*
X012521Y000825D02*
X012655Y000825D01*
X012895Y000891D02*
X012962Y000825D01*
X012895Y000891D02*
X012895Y001158D01*
X012828Y001092D02*
X012962Y001092D01*
X013135Y001092D02*
X013135Y000891D01*
X013202Y000825D01*
X013402Y000825D01*
X013402Y000758D02*
X013335Y000691D01*
X013269Y000691D01*
X013402Y000758D02*
X013402Y001092D01*
X014056Y001092D02*
X014189Y000825D01*
X014323Y001092D01*
X014516Y001158D02*
X014583Y001225D01*
X014716Y001225D01*
X014783Y001158D01*
X014783Y001092D01*
X014516Y000825D01*
X014783Y000825D01*
X015437Y000891D02*
X015437Y001158D01*
X015504Y001225D01*
X015637Y001225D01*
X015704Y001158D01*
X015437Y000891D01*
X015504Y000825D01*
X015637Y000825D01*
X015704Y000891D01*
X015704Y001158D01*
X015897Y001092D02*
X016031Y001225D01*
X016031Y000825D01*
X016164Y000825D02*
X015897Y000825D01*
X016358Y000825D02*
X016625Y001225D01*
X016818Y001092D02*
X016952Y001225D01*
X016952Y000825D01*
X017085Y000825D02*
X016818Y000825D01*
X017279Y000891D02*
X017345Y000825D01*
X017479Y000825D01*
X017545Y000891D01*
X017545Y000958D01*
X017479Y001025D01*
X017412Y001025D01*
X017479Y001025D02*
X017545Y001092D01*
X017545Y001158D01*
X017479Y001225D01*
X017345Y001225D01*
X017279Y001158D01*
X012588Y001225D02*
X012588Y001292D01*
X012061Y001092D02*
X012061Y000891D01*
X010900Y001225D02*
X010900Y001292D01*
D12*
X002129Y001011D02*
X002129Y002586D01*
X002522Y002979D01*
X004097Y002979D01*
X004097Y001011D01*
X002129Y001011D01*
X002286Y001995D02*
X002288Y002052D01*
X002294Y002109D01*
X002304Y002165D01*
X002317Y002221D01*
X002335Y002275D01*
X002356Y002328D01*
X002381Y002379D01*
X002409Y002429D01*
X002441Y002476D01*
X002475Y002522D01*
X002513Y002564D01*
X002554Y002604D01*
X002597Y002642D01*
X002643Y002676D01*
X002691Y002706D01*
X002741Y002734D01*
X002793Y002758D01*
X002847Y002778D01*
X002901Y002794D01*
X002957Y002807D01*
X003013Y002816D01*
X003070Y002821D01*
X003127Y002822D01*
X003184Y002819D01*
X003241Y002812D01*
X003297Y002801D01*
X003352Y002787D01*
X003406Y002768D01*
X003459Y002746D01*
X003510Y002721D01*
X003559Y002691D01*
X003606Y002659D01*
X003651Y002623D01*
X003693Y002585D01*
X003732Y002543D01*
X003768Y002499D01*
X003802Y002453D01*
X003832Y002404D01*
X003858Y002354D01*
X003881Y002302D01*
X003900Y002248D01*
X003916Y002193D01*
X003928Y002137D01*
X003936Y002080D01*
X003940Y002024D01*
X003940Y001966D01*
X003936Y001910D01*
X003928Y001853D01*
X003916Y001797D01*
X003900Y001742D01*
X003881Y001688D01*
X003858Y001636D01*
X003832Y001586D01*
X003802Y001537D01*
X003768Y001491D01*
X003732Y001447D01*
X003693Y001405D01*
X003651Y001367D01*
X003606Y001331D01*
X003559Y001299D01*
X003510Y001269D01*
X003459Y001244D01*
X003406Y001222D01*
X003352Y001203D01*
X003297Y001189D01*
X003241Y001178D01*
X003184Y001171D01*
X003127Y001168D01*
X003070Y001169D01*
X003013Y001174D01*
X002957Y001183D01*
X002901Y001196D01*
X002847Y001212D01*
X002793Y001232D01*
X002741Y001256D01*
X002691Y001284D01*
X002643Y001314D01*
X002597Y001348D01*
X002554Y001386D01*
X002513Y001426D01*
X002475Y001468D01*
X002441Y001514D01*
X002409Y001561D01*
X002381Y001611D01*
X002356Y001662D01*
X002335Y001715D01*
X002317Y001769D01*
X002304Y001825D01*
X002294Y001881D01*
X002288Y001938D01*
X002286Y001995D01*
X002129Y002586D02*
X002129Y002979D01*
X002522Y002979D01*
X001902Y003053D02*
X001904Y003067D01*
X001910Y003081D01*
X001918Y003093D01*
X001930Y003101D01*
X001944Y003107D01*
X001958Y003109D01*
X001972Y003107D01*
X001986Y003101D01*
X001998Y003093D01*
X002006Y003081D01*
X002012Y003067D01*
X002014Y003053D01*
X002012Y003039D01*
X002006Y003025D01*
X001998Y003013D01*
X001986Y003005D01*
X001972Y002999D01*
X001958Y002997D01*
X001944Y002999D01*
X001930Y003005D01*
X001918Y003013D01*
X001910Y003025D01*
X001904Y003039D01*
X001902Y003053D01*
X004097Y003531D02*
X005573Y003531D01*
X005573Y002448D01*
X009392Y002448D01*
X009392Y000125D01*
X013369Y000125D01*
X013369Y002448D01*
X017188Y002448D01*
X017188Y003531D01*
X018664Y003531D01*
X018437Y003053D02*
X018439Y003067D01*
X018445Y003081D01*
X018453Y003093D01*
X018465Y003101D01*
X018479Y003107D01*
X018493Y003109D01*
X018507Y003107D01*
X018521Y003101D01*
X018533Y003093D01*
X018541Y003081D01*
X018547Y003067D01*
X018549Y003053D01*
X018547Y003039D01*
X018541Y003025D01*
X018533Y003013D01*
X018521Y003005D01*
X018507Y002999D01*
X018493Y002997D01*
X018479Y002999D01*
X018465Y003005D01*
X018453Y003013D01*
X018445Y003025D01*
X018439Y003039D01*
X018437Y003053D01*
X018664Y002979D02*
X019058Y002979D01*
X018664Y002586D01*
X018664Y002979D01*
X019058Y002979D02*
X020632Y002979D01*
X020632Y001011D01*
X018664Y001011D01*
X018664Y002586D01*
X018821Y001995D02*
X018823Y002052D01*
X018829Y002109D01*
X018839Y002165D01*
X018852Y002221D01*
X018870Y002275D01*
X018891Y002328D01*
X018916Y002379D01*
X018944Y002429D01*
X018976Y002476D01*
X019010Y002522D01*
X019048Y002564D01*
X019089Y002604D01*
X019132Y002642D01*
X019178Y002676D01*
X019226Y002706D01*
X019276Y002734D01*
X019328Y002758D01*
X019382Y002778D01*
X019436Y002794D01*
X019492Y002807D01*
X019548Y002816D01*
X019605Y002821D01*
X019662Y002822D01*
X019719Y002819D01*
X019776Y002812D01*
X019832Y002801D01*
X019887Y002787D01*
X019941Y002768D01*
X019994Y002746D01*
X020045Y002721D01*
X020094Y002691D01*
X020141Y002659D01*
X020186Y002623D01*
X020228Y002585D01*
X020267Y002543D01*
X020303Y002499D01*
X020337Y002453D01*
X020367Y002404D01*
X020393Y002354D01*
X020416Y002302D01*
X020435Y002248D01*
X020451Y002193D01*
X020463Y002137D01*
X020471Y002080D01*
X020475Y002024D01*
X020475Y001966D01*
X020471Y001910D01*
X020463Y001853D01*
X020451Y001797D01*
X020435Y001742D01*
X020416Y001688D01*
X020393Y001636D01*
X020367Y001586D01*
X020337Y001537D01*
X020303Y001491D01*
X020267Y001447D01*
X020228Y001405D01*
X020186Y001367D01*
X020141Y001331D01*
X020094Y001299D01*
X020045Y001269D01*
X019994Y001244D01*
X019941Y001222D01*
X019887Y001203D01*
X019832Y001189D01*
X019776Y001178D01*
X019719Y001171D01*
X019662Y001168D01*
X019605Y001169D01*
X019548Y001174D01*
X019492Y001183D01*
X019436Y001196D01*
X019382Y001212D01*
X019328Y001232D01*
X019276Y001256D01*
X019226Y001284D01*
X019178Y001314D01*
X019132Y001348D01*
X019089Y001386D01*
X019048Y001426D01*
X019010Y001468D01*
X018976Y001514D01*
X018944Y001561D01*
X018916Y001611D01*
X018891Y001662D01*
X018870Y001715D01*
X018852Y001769D01*
X018839Y001825D01*
X018829Y001881D01*
X018823Y001938D01*
X018821Y001995D01*
X017188Y003531D02*
X017188Y006483D01*
X018664Y006483D01*
X017188Y006483D02*
X017188Y007566D01*
X005573Y007566D01*
X005573Y006483D01*
X004097Y006483D01*
X005573Y006483D02*
X005573Y003531D01*
X002621Y005007D02*
X002623Y005084D01*
X002629Y005160D01*
X002639Y005236D01*
X002653Y005311D01*
X002670Y005386D01*
X002692Y005459D01*
X002717Y005532D01*
X002747Y005603D01*
X002779Y005672D01*
X002816Y005739D01*
X002855Y005805D01*
X002898Y005868D01*
X002945Y005929D01*
X002994Y005988D01*
X003047Y006044D01*
X003102Y006097D01*
X003160Y006147D01*
X003220Y006194D01*
X003283Y006238D01*
X003348Y006279D01*
X003415Y006316D01*
X003484Y006350D01*
X003554Y006380D01*
X003626Y006406D01*
X003700Y006428D01*
X003774Y006447D01*
X003849Y006462D01*
X003925Y006473D01*
X004001Y006480D01*
X004078Y006483D01*
X004154Y006482D01*
X004231Y006477D01*
X004307Y006468D01*
X004383Y006455D01*
X004457Y006438D01*
X004531Y006418D01*
X004604Y006393D01*
X004675Y006365D01*
X004745Y006333D01*
X004813Y006298D01*
X004879Y006259D01*
X004943Y006217D01*
X005004Y006171D01*
X005064Y006122D01*
X005120Y006071D01*
X005174Y006016D01*
X005225Y005959D01*
X005273Y005899D01*
X005318Y005837D01*
X005359Y005772D01*
X005397Y005706D01*
X005432Y005638D01*
X005462Y005567D01*
X005490Y005496D01*
X005513Y005423D01*
X005533Y005349D01*
X005549Y005274D01*
X005561Y005198D01*
X005569Y005122D01*
X005573Y005045D01*
X005573Y004969D01*
X005569Y004892D01*
X005561Y004816D01*
X005549Y004740D01*
X005533Y004665D01*
X005513Y004591D01*
X005490Y004518D01*
X005462Y004447D01*
X005432Y004376D01*
X005397Y004308D01*
X005359Y004242D01*
X005318Y004177D01*
X005273Y004115D01*
X005225Y004055D01*
X005174Y003998D01*
X005120Y003943D01*
X005064Y003892D01*
X005004Y003843D01*
X004943Y003797D01*
X004879Y003755D01*
X004813Y003716D01*
X004745Y003681D01*
X004675Y003649D01*
X004604Y003621D01*
X004531Y003596D01*
X004457Y003576D01*
X004383Y003559D01*
X004307Y003546D01*
X004231Y003537D01*
X004154Y003532D01*
X004078Y003531D01*
X004001Y003534D01*
X003925Y003541D01*
X003849Y003552D01*
X003774Y003567D01*
X003700Y003586D01*
X003626Y003608D01*
X003554Y003634D01*
X003484Y003664D01*
X003415Y003698D01*
X003348Y003735D01*
X003283Y003776D01*
X003220Y003820D01*
X003160Y003867D01*
X003102Y003917D01*
X003047Y003970D01*
X002994Y004026D01*
X002945Y004085D01*
X002898Y004146D01*
X002855Y004209D01*
X002816Y004275D01*
X002779Y004342D01*
X002747Y004411D01*
X002717Y004482D01*
X002692Y004555D01*
X002670Y004628D01*
X002653Y004703D01*
X002639Y004778D01*
X002629Y004854D01*
X002623Y004930D01*
X002621Y005007D01*
X009392Y002448D02*
X013369Y002448D01*
X017188Y005007D02*
X017190Y005084D01*
X017196Y005160D01*
X017206Y005236D01*
X017220Y005311D01*
X017237Y005386D01*
X017259Y005459D01*
X017284Y005532D01*
X017314Y005603D01*
X017346Y005672D01*
X017383Y005739D01*
X017422Y005805D01*
X017465Y005868D01*
X017512Y005929D01*
X017561Y005988D01*
X017614Y006044D01*
X017669Y006097D01*
X017727Y006147D01*
X017787Y006194D01*
X017850Y006238D01*
X017915Y006279D01*
X017982Y006316D01*
X018051Y006350D01*
X018121Y006380D01*
X018193Y006406D01*
X018267Y006428D01*
X018341Y006447D01*
X018416Y006462D01*
X018492Y006473D01*
X018568Y006480D01*
X018645Y006483D01*
X018721Y006482D01*
X018798Y006477D01*
X018874Y006468D01*
X018950Y006455D01*
X019024Y006438D01*
X019098Y006418D01*
X019171Y006393D01*
X019242Y006365D01*
X019312Y006333D01*
X019380Y006298D01*
X019446Y006259D01*
X019510Y006217D01*
X019571Y006171D01*
X019631Y006122D01*
X019687Y006071D01*
X019741Y006016D01*
X019792Y005959D01*
X019840Y005899D01*
X019885Y005837D01*
X019926Y005772D01*
X019964Y005706D01*
X019999Y005638D01*
X020029Y005567D01*
X020057Y005496D01*
X020080Y005423D01*
X020100Y005349D01*
X020116Y005274D01*
X020128Y005198D01*
X020136Y005122D01*
X020140Y005045D01*
X020140Y004969D01*
X020136Y004892D01*
X020128Y004816D01*
X020116Y004740D01*
X020100Y004665D01*
X020080Y004591D01*
X020057Y004518D01*
X020029Y004447D01*
X019999Y004376D01*
X019964Y004308D01*
X019926Y004242D01*
X019885Y004177D01*
X019840Y004115D01*
X019792Y004055D01*
X019741Y003998D01*
X019687Y003943D01*
X019631Y003892D01*
X019571Y003843D01*
X019510Y003797D01*
X019446Y003755D01*
X019380Y003716D01*
X019312Y003681D01*
X019242Y003649D01*
X019171Y003621D01*
X019098Y003596D01*
X019024Y003576D01*
X018950Y003559D01*
X018874Y003546D01*
X018798Y003537D01*
X018721Y003532D01*
X018645Y003531D01*
X018568Y003534D01*
X018492Y003541D01*
X018416Y003552D01*
X018341Y003567D01*
X018267Y003586D01*
X018193Y003608D01*
X018121Y003634D01*
X018051Y003664D01*
X017982Y003698D01*
X017915Y003735D01*
X017850Y003776D01*
X017787Y003820D01*
X017727Y003867D01*
X017669Y003917D01*
X017614Y003970D01*
X017561Y004026D01*
X017512Y004085D01*
X017465Y004146D01*
X017422Y004209D01*
X017383Y004275D01*
X017346Y004342D01*
X017314Y004411D01*
X017284Y004482D01*
X017259Y004555D01*
X017237Y004628D01*
X017220Y004703D01*
X017206Y004778D01*
X017196Y004854D01*
X017190Y004930D01*
X017188Y005007D01*
X018664Y009279D02*
X018664Y010853D01*
X019058Y011247D01*
X020632Y011247D01*
X020632Y009279D01*
X018664Y009279D01*
X018821Y010263D02*
X018823Y010320D01*
X018829Y010377D01*
X018839Y010433D01*
X018852Y010489D01*
X018870Y010543D01*
X018891Y010596D01*
X018916Y010647D01*
X018944Y010697D01*
X018976Y010744D01*
X019010Y010790D01*
X019048Y010832D01*
X019089Y010872D01*
X019132Y010910D01*
X019178Y010944D01*
X019226Y010974D01*
X019276Y011002D01*
X019328Y011026D01*
X019382Y011046D01*
X019436Y011062D01*
X019492Y011075D01*
X019548Y011084D01*
X019605Y011089D01*
X019662Y011090D01*
X019719Y011087D01*
X019776Y011080D01*
X019832Y011069D01*
X019887Y011055D01*
X019941Y011036D01*
X019994Y011014D01*
X020045Y010989D01*
X020094Y010959D01*
X020141Y010927D01*
X020186Y010891D01*
X020228Y010853D01*
X020267Y010811D01*
X020303Y010767D01*
X020337Y010721D01*
X020367Y010672D01*
X020393Y010622D01*
X020416Y010570D01*
X020435Y010516D01*
X020451Y010461D01*
X020463Y010405D01*
X020471Y010348D01*
X020475Y010292D01*
X020475Y010234D01*
X020471Y010178D01*
X020463Y010121D01*
X020451Y010065D01*
X020435Y010010D01*
X020416Y009956D01*
X020393Y009904D01*
X020367Y009854D01*
X020337Y009805D01*
X020303Y009759D01*
X020267Y009715D01*
X020228Y009673D01*
X020186Y009635D01*
X020141Y009599D01*
X020094Y009567D01*
X020045Y009537D01*
X019994Y009512D01*
X019941Y009490D01*
X019887Y009471D01*
X019832Y009457D01*
X019776Y009446D01*
X019719Y009439D01*
X019662Y009436D01*
X019605Y009437D01*
X019548Y009442D01*
X019492Y009451D01*
X019436Y009464D01*
X019382Y009480D01*
X019328Y009500D01*
X019276Y009524D01*
X019226Y009552D01*
X019178Y009582D01*
X019132Y009616D01*
X019089Y009654D01*
X019048Y009694D01*
X019010Y009736D01*
X018976Y009782D01*
X018944Y009829D01*
X018916Y009879D01*
X018891Y009930D01*
X018870Y009983D01*
X018852Y010037D01*
X018839Y010093D01*
X018829Y010149D01*
X018823Y010206D01*
X018821Y010263D01*
X018664Y010853D02*
X018664Y011247D01*
X019058Y011247D01*
X018437Y011321D02*
X018439Y011335D01*
X018445Y011349D01*
X018453Y011361D01*
X018465Y011369D01*
X018479Y011375D01*
X018493Y011377D01*
X018507Y011375D01*
X018521Y011369D01*
X018533Y011361D01*
X018541Y011349D01*
X018547Y011335D01*
X018549Y011321D01*
X018547Y011307D01*
X018541Y011293D01*
X018533Y011281D01*
X018521Y011273D01*
X018507Y011267D01*
X018493Y011265D01*
X018479Y011267D01*
X018465Y011273D01*
X018453Y011281D01*
X018445Y011293D01*
X018439Y011307D01*
X018437Y011321D01*
X004097Y011247D02*
X004097Y009279D01*
X002129Y009279D01*
X002129Y010853D01*
X002522Y011247D01*
X004097Y011247D01*
X002522Y011247D02*
X002129Y011247D01*
X002129Y010853D01*
X001902Y011321D02*
X001904Y011335D01*
X001910Y011349D01*
X001918Y011361D01*
X001930Y011369D01*
X001944Y011375D01*
X001958Y011377D01*
X001972Y011375D01*
X001986Y011369D01*
X001998Y011361D01*
X002006Y011349D01*
X002012Y011335D01*
X002014Y011321D01*
X002012Y011307D01*
X002006Y011293D01*
X001998Y011281D01*
X001986Y011273D01*
X001972Y011267D01*
X001958Y011265D01*
X001944Y011267D01*
X001930Y011273D01*
X001918Y011281D01*
X001910Y011293D01*
X001904Y011307D01*
X001902Y011321D01*
X002286Y010263D02*
X002288Y010320D01*
X002294Y010377D01*
X002304Y010433D01*
X002317Y010489D01*
X002335Y010543D01*
X002356Y010596D01*
X002381Y010647D01*
X002409Y010697D01*
X002441Y010744D01*
X002475Y010790D01*
X002513Y010832D01*
X002554Y010872D01*
X002597Y010910D01*
X002643Y010944D01*
X002691Y010974D01*
X002741Y011002D01*
X002793Y011026D01*
X002847Y011046D01*
X002901Y011062D01*
X002957Y011075D01*
X003013Y011084D01*
X003070Y011089D01*
X003127Y011090D01*
X003184Y011087D01*
X003241Y011080D01*
X003297Y011069D01*
X003352Y011055D01*
X003406Y011036D01*
X003459Y011014D01*
X003510Y010989D01*
X003559Y010959D01*
X003606Y010927D01*
X003651Y010891D01*
X003693Y010853D01*
X003732Y010811D01*
X003768Y010767D01*
X003802Y010721D01*
X003832Y010672D01*
X003858Y010622D01*
X003881Y010570D01*
X003900Y010516D01*
X003916Y010461D01*
X003928Y010405D01*
X003936Y010348D01*
X003940Y010292D01*
X003940Y010234D01*
X003936Y010178D01*
X003928Y010121D01*
X003916Y010065D01*
X003900Y010010D01*
X003881Y009956D01*
X003858Y009904D01*
X003832Y009854D01*
X003802Y009805D01*
X003768Y009759D01*
X003732Y009715D01*
X003693Y009673D01*
X003651Y009635D01*
X003606Y009599D01*
X003559Y009567D01*
X003510Y009537D01*
X003459Y009512D01*
X003406Y009490D01*
X003352Y009471D01*
X003297Y009457D01*
X003241Y009446D01*
X003184Y009439D01*
X003127Y009436D01*
X003070Y009437D01*
X003013Y009442D01*
X002957Y009451D01*
X002901Y009464D01*
X002847Y009480D01*
X002793Y009500D01*
X002741Y009524D01*
X002691Y009552D01*
X002643Y009582D01*
X002597Y009616D01*
X002554Y009654D01*
X002513Y009694D01*
X002475Y009736D01*
X002441Y009782D01*
X002409Y009829D01*
X002381Y009879D01*
X002356Y009930D01*
X002335Y009983D01*
X002317Y010037D01*
X002304Y010093D01*
X002294Y010149D01*
X002288Y010206D01*
X002286Y010263D01*
D13*
X002443Y007743D03*
X003821Y007664D03*
D14*
X021353Y006401D02*
X022603Y006401D01*
X022603Y009401D01*
X021353Y009401D01*
D15*
X021027Y009151D02*
X021029Y009168D01*
X021035Y009184D01*
X021044Y009198D01*
X021056Y009210D01*
X021070Y009219D01*
X021086Y009225D01*
X021103Y009227D01*
X021120Y009225D01*
X021136Y009219D01*
X021150Y009210D01*
X021162Y009198D01*
X021171Y009184D01*
X021177Y009168D01*
X021179Y009151D01*
X021177Y009134D01*
X021171Y009118D01*
X021162Y009104D01*
X021150Y009092D01*
X021136Y009083D01*
X021120Y009077D01*
X021103Y009075D01*
X021086Y009077D01*
X021070Y009083D01*
X021056Y009092D01*
X021044Y009104D01*
X021035Y009118D01*
X021029Y009134D01*
X021027Y009151D01*
M02*
